%TF.GenerationSoftware,KiCad,Pcbnew,(5.99.0-9501-gd6b12eab50)*%
%TF.CreationDate,2021-02-28T09:53:11+01:00*%
%TF.ProjectId,audio-adapter,61756469-6f2d-4616-9461-707465722e6b,rev?*%
%TF.SameCoordinates,Original*%
%TF.FileFunction,Copper,L2,Bot*%
%TF.FilePolarity,Positive*%
%FSLAX46Y46*%
G04 Gerber Fmt 4.6, Leading zero omitted, Abs format (unit mm)*
G04 Created by KiCad (PCBNEW (5.99.0-9501-gd6b12eab50)) date 2021-02-28 09:53:11*
%MOMM*%
%LPD*%
G01*
G04 APERTURE LIST*
%TA.AperFunction,ComponentPad*%
%ADD10R,1.700000X1.700000*%
%TD*%
%TA.AperFunction,ComponentPad*%
%ADD11O,1.700000X1.700000*%
%TD*%
%TA.AperFunction,ComponentPad*%
%ADD12C,1.400000*%
%TD*%
%TA.AperFunction,ComponentPad*%
%ADD13O,1.400000X1.400000*%
%TD*%
%TA.AperFunction,ComponentPad*%
%ADD14O,1.800000X2.800000*%
%TD*%
%TA.AperFunction,ComponentPad*%
%ADD15R,1.050000X1.500000*%
%TD*%
%TA.AperFunction,ComponentPad*%
%ADD16O,1.050000X1.500000*%
%TD*%
%TA.AperFunction,Conductor*%
%ADD17C,0.250000*%
%TD*%
G04 APERTURE END LIST*
D10*
%TO.P,J1,1,Pin_1*%
%TO.N,Net-(J1-Pad1)*%
X95250000Y-113030000D03*
D11*
%TO.P,J1,2,Pin_2*%
%TO.N,/GND*%
X95250000Y-110490000D03*
%TO.P,J1,3,Pin_3*%
%TO.N,unconnected-(J1-Pad3)*%
X95250000Y-107950000D03*
%TO.P,J1,4,Pin_4*%
%TO.N,unconnected-(J1-Pad4)*%
X95250000Y-105410000D03*
%TO.P,J1,5,Pin_5*%
%TO.N,unconnected-(J1-Pad5)*%
X95250000Y-102870000D03*
%TO.P,J1,6,Pin_6*%
%TO.N,Net-(J1-Pad1)*%
X95250000Y-100330000D03*
%TO.P,J1,7,Pin_7*%
%TO.N,/Audio Out*%
X95250000Y-97790000D03*
%TO.P,J1,8,Pin_8*%
%TO.N,unconnected-(J1-Pad8)*%
X95250000Y-95250000D03*
%TO.P,J1,9,Pin_9*%
%TO.N,unconnected-(J1-Pad9)*%
X95250000Y-92710000D03*
%TO.P,J1,10,Pin_10*%
%TO.N,unconnected-(J1-Pad10)*%
X95250000Y-90170000D03*
%TO.P,J1,11,Pin_11*%
%TO.N,unconnected-(J1-Pad11)*%
X95250000Y-87630000D03*
%TD*%
D12*
%TO.P,R1,1*%
%TO.N,/GND*%
X113030000Y-104140000D03*
D13*
%TO.P,R1,2*%
%TO.N,Net-(Q1-Pad1)*%
X105410000Y-104140000D03*
%TD*%
D14*
%TO.P,J2,R*%
%TO.N,/Audio In*%
X106390000Y-113660000D03*
%TO.P,J2,RN*%
X108190000Y-111660000D03*
%TO.P,J2,S*%
%TO.N,/GND*%
X114290000Y-111660000D03*
%TO.P,J2,T*%
%TO.N,/Audio In*%
X111890000Y-113660000D03*
%TO.P,J2,TN*%
X102690000Y-111660000D03*
%TD*%
%TO.P,J3,R*%
%TO.N,/Audio Out*%
X106400000Y-90900000D03*
%TO.P,J3,RN*%
X108200000Y-88900000D03*
%TO.P,J3,S*%
%TO.N,/GND*%
X114300000Y-88900000D03*
%TO.P,J3,T*%
%TO.N,/Audio Out*%
X111900000Y-90900000D03*
%TO.P,J3,TN*%
X102700000Y-88900000D03*
%TD*%
D15*
%TO.P,Q1,1,C*%
%TO.N,Net-(Q1-Pad1)*%
X107950000Y-97790000D03*
D16*
%TO.P,Q1,2,B*%
%TO.N,/Audio In*%
X109220000Y-97790000D03*
%TO.P,Q1,3,E*%
%TO.N,Net-(J1-Pad1)*%
X110490000Y-97790000D03*
%TD*%
D17*
%TO.N,/GND*%
X114200000Y-111660000D02*
X114290000Y-111660000D01*
%TD*%
%TA.AperFunction,Conductor*%
%TO.N,/GND*%
G36*
X117544121Y-83078002D02*
G01*
X117590614Y-83131658D01*
X117602000Y-83184000D01*
X117602000Y-117476000D01*
X117581998Y-117544121D01*
X117528342Y-117590614D01*
X117476000Y-117602000D01*
X93344000Y-117602000D01*
X93275879Y-117581998D01*
X93229386Y-117528342D01*
X93218000Y-117476000D01*
X93218000Y-112180000D01*
X93886500Y-112180000D01*
X93886500Y-113880000D01*
X93891727Y-113953079D01*
X93932904Y-114093316D01*
X93937775Y-114100895D01*
X94007051Y-114208691D01*
X94007053Y-114208694D01*
X94011923Y-114216271D01*
X94018733Y-114222172D01*
X94115569Y-114306082D01*
X94115572Y-114306084D01*
X94122381Y-114311984D01*
X94255330Y-114372700D01*
X94264245Y-114373982D01*
X94264246Y-114373982D01*
X94395552Y-114392861D01*
X94395559Y-114392862D01*
X94400000Y-114393500D01*
X96100000Y-114393500D01*
X96173079Y-114388273D01*
X96251165Y-114365345D01*
X96304670Y-114349635D01*
X96304672Y-114349634D01*
X96313316Y-114347096D01*
X96377135Y-114306082D01*
X96428691Y-114272949D01*
X96428694Y-114272947D01*
X96436271Y-114268077D01*
X96478860Y-114218927D01*
X96526082Y-114164431D01*
X96526084Y-114164428D01*
X96531984Y-114157619D01*
X96592700Y-114024670D01*
X96603962Y-113946340D01*
X96612861Y-113884448D01*
X96612862Y-113884441D01*
X96613500Y-113880000D01*
X96613500Y-112180000D01*
X96608273Y-112106921D01*
X96581323Y-112015138D01*
X96569635Y-111975330D01*
X96569634Y-111975328D01*
X96567096Y-111966684D01*
X96521393Y-111895569D01*
X96492949Y-111851309D01*
X96492947Y-111851306D01*
X96488077Y-111843729D01*
X96481267Y-111837828D01*
X96384431Y-111753918D01*
X96384428Y-111753916D01*
X96377619Y-111748016D01*
X96244670Y-111687300D01*
X96237233Y-111686231D01*
X96178142Y-111648255D01*
X96148649Y-111583674D01*
X96158754Y-111513400D01*
X96183884Y-111477037D01*
X96291893Y-111368082D01*
X96298706Y-111359933D01*
X96424940Y-111179988D01*
X96430295Y-111170787D01*
X96485637Y-111053973D01*
X101281500Y-111053973D01*
X101281500Y-112218927D01*
X101296708Y-112398160D01*
X101298048Y-112403324D01*
X101298049Y-112403328D01*
X101329104Y-112522975D01*
X101356755Y-112629510D01*
X101454923Y-112847435D01*
X101588406Y-113045704D01*
X101592085Y-113049561D01*
X101592087Y-113049563D01*
X101641225Y-113101073D01*
X101753387Y-113218649D01*
X101945148Y-113361323D01*
X101949899Y-113363739D01*
X101949903Y-113363741D01*
X102153451Y-113467230D01*
X102158207Y-113469648D01*
X102386472Y-113540526D01*
X102391761Y-113541227D01*
X102618132Y-113571231D01*
X102618135Y-113571231D01*
X102623415Y-113571931D01*
X102628744Y-113571731D01*
X102628745Y-113571731D01*
X102725316Y-113568105D01*
X102862262Y-113562964D01*
X102979066Y-113538456D01*
X103090957Y-113514979D01*
X103090960Y-113514978D01*
X103096184Y-113513882D01*
X103318492Y-113426089D01*
X103421238Y-113363741D01*
X103518268Y-113304862D01*
X103518271Y-113304860D01*
X103522829Y-113302094D01*
X103703353Y-113145443D01*
X103706736Y-113141317D01*
X103706741Y-113141312D01*
X103778354Y-113053973D01*
X104981500Y-113053973D01*
X104981500Y-114218927D01*
X104996708Y-114398160D01*
X104998048Y-114403324D01*
X104998049Y-114403328D01*
X105029104Y-114522975D01*
X105056755Y-114629510D01*
X105154923Y-114847435D01*
X105288406Y-115045704D01*
X105453387Y-115218649D01*
X105645148Y-115361323D01*
X105649899Y-115363739D01*
X105649903Y-115363741D01*
X105772533Y-115426089D01*
X105858207Y-115469648D01*
X106086472Y-115540526D01*
X106091761Y-115541227D01*
X106318132Y-115571231D01*
X106318135Y-115571231D01*
X106323415Y-115571931D01*
X106328744Y-115571731D01*
X106328745Y-115571731D01*
X106425316Y-115568105D01*
X106562262Y-115562964D01*
X106676740Y-115538944D01*
X106790957Y-115514979D01*
X106790960Y-115514978D01*
X106796184Y-115513882D01*
X107018492Y-115426089D01*
X107130473Y-115358137D01*
X107218268Y-115304862D01*
X107218271Y-115304860D01*
X107222829Y-115302094D01*
X107403353Y-115145443D01*
X107406736Y-115141317D01*
X107406741Y-115141312D01*
X107551517Y-114964743D01*
X107554902Y-114960615D01*
X107673143Y-114752896D01*
X107754696Y-114528223D01*
X107797227Y-114293022D01*
X107798404Y-114268077D01*
X107798430Y-114267516D01*
X107798430Y-114267507D01*
X107798500Y-114266027D01*
X107798500Y-113672669D01*
X107818502Y-113604548D01*
X107872158Y-113558055D01*
X107941055Y-113547761D01*
X108118130Y-113571231D01*
X108118136Y-113571231D01*
X108123415Y-113571931D01*
X108128744Y-113571731D01*
X108128745Y-113571731D01*
X108225316Y-113568105D01*
X108362262Y-113562964D01*
X108479066Y-113538456D01*
X108590957Y-113514979D01*
X108590960Y-113514978D01*
X108596184Y-113513882D01*
X108818492Y-113426089D01*
X108921238Y-113363741D01*
X109018268Y-113304862D01*
X109018271Y-113304860D01*
X109022829Y-113302094D01*
X109203353Y-113145443D01*
X109206736Y-113141317D01*
X109206741Y-113141312D01*
X109278354Y-113053973D01*
X110481500Y-113053973D01*
X110481500Y-114218927D01*
X110496708Y-114398160D01*
X110498048Y-114403324D01*
X110498049Y-114403328D01*
X110529104Y-114522975D01*
X110556755Y-114629510D01*
X110654923Y-114847435D01*
X110788406Y-115045704D01*
X110953387Y-115218649D01*
X111145148Y-115361323D01*
X111149899Y-115363739D01*
X111149903Y-115363741D01*
X111272533Y-115426089D01*
X111358207Y-115469648D01*
X111586472Y-115540526D01*
X111591761Y-115541227D01*
X111818132Y-115571231D01*
X111818135Y-115571231D01*
X111823415Y-115571931D01*
X111828744Y-115571731D01*
X111828745Y-115571731D01*
X111925316Y-115568105D01*
X112062262Y-115562964D01*
X112176740Y-115538944D01*
X112290957Y-115514979D01*
X112290960Y-115514978D01*
X112296184Y-115513882D01*
X112518492Y-115426089D01*
X112630473Y-115358137D01*
X112718268Y-115304862D01*
X112718271Y-115304860D01*
X112722829Y-115302094D01*
X112903353Y-115145443D01*
X112906736Y-115141317D01*
X112906741Y-115141312D01*
X113051517Y-114964743D01*
X113054902Y-114960615D01*
X113173143Y-114752896D01*
X113254696Y-114528223D01*
X113297227Y-114293022D01*
X113298404Y-114268077D01*
X113298430Y-114267516D01*
X113298430Y-114267507D01*
X113298500Y-114266027D01*
X113298500Y-113427987D01*
X113318502Y-113359866D01*
X113372158Y-113313373D01*
X113442432Y-113303269D01*
X113499712Y-113326897D01*
X113541131Y-113357713D01*
X113550166Y-113363316D01*
X113753639Y-113466767D01*
X113763490Y-113470767D01*
X113981486Y-113538456D01*
X113991867Y-113540739D01*
X114018041Y-113544208D01*
X114032208Y-113542011D01*
X114036000Y-113528827D01*
X114036000Y-111932115D01*
X114034659Y-111927548D01*
X114544000Y-111927548D01*
X114544000Y-113527190D01*
X114547973Y-113540721D01*
X114558580Y-113542246D01*
X114690823Y-113514498D01*
X114701002Y-113511443D01*
X114913301Y-113427603D01*
X114922833Y-113422872D01*
X115117974Y-113304457D01*
X115126564Y-113298193D01*
X115298962Y-113148594D01*
X115306382Y-113140964D01*
X115451106Y-112964459D01*
X115457128Y-112955697D01*
X115570049Y-112757326D01*
X115574512Y-112747666D01*
X115652392Y-112533109D01*
X115655163Y-112522841D01*
X115695991Y-112297059D01*
X115696924Y-112288830D01*
X115697930Y-112267512D01*
X115698000Y-112264537D01*
X115698000Y-111932115D01*
X115693525Y-111916876D01*
X115692135Y-111915671D01*
X115684452Y-111914000D01*
X114562115Y-111914000D01*
X114546876Y-111918475D01*
X114545671Y-111919865D01*
X114544000Y-111927548D01*
X114034659Y-111927548D01*
X114031525Y-111916876D01*
X114030135Y-111915671D01*
X114022452Y-111914000D01*
X112900115Y-111914000D01*
X112884876Y-111918475D01*
X112883671Y-111919865D01*
X112883284Y-111921645D01*
X112849259Y-111983957D01*
X112786947Y-112017982D01*
X112716131Y-112012918D01*
X112684950Y-111995951D01*
X112634852Y-111958677D01*
X112630101Y-111956261D01*
X112630097Y-111956259D01*
X112426549Y-111852770D01*
X112426548Y-111852770D01*
X112421793Y-111850352D01*
X112255552Y-111798733D01*
X112198623Y-111781056D01*
X112193528Y-111779474D01*
X112138942Y-111772239D01*
X111961868Y-111748769D01*
X111961865Y-111748769D01*
X111956585Y-111748069D01*
X111951256Y-111748269D01*
X111951255Y-111748269D01*
X111854684Y-111751895D01*
X111717738Y-111757036D01*
X111645281Y-111772239D01*
X111489043Y-111805021D01*
X111489040Y-111805022D01*
X111483816Y-111806118D01*
X111261508Y-111893911D01*
X111256944Y-111896680D01*
X111256945Y-111896680D01*
X111061732Y-112015138D01*
X111061729Y-112015140D01*
X111057171Y-112017906D01*
X110876647Y-112174557D01*
X110873264Y-112178683D01*
X110873259Y-112178688D01*
X110779512Y-112293022D01*
X110725098Y-112359385D01*
X110606857Y-112567104D01*
X110525304Y-112791777D01*
X110482773Y-113026978D01*
X110482578Y-113031117D01*
X110482577Y-113031124D01*
X110481890Y-113045704D01*
X110481500Y-113053973D01*
X109278354Y-113053973D01*
X109351517Y-112964743D01*
X109354902Y-112960615D01*
X109357702Y-112955697D01*
X109448023Y-112797025D01*
X109473143Y-112752896D01*
X109554696Y-112528223D01*
X109597227Y-112293022D01*
X109598500Y-112266027D01*
X109598500Y-111101073D01*
X109594630Y-111055463D01*
X112882000Y-111055463D01*
X112882000Y-111387885D01*
X112886475Y-111403124D01*
X112887865Y-111404329D01*
X112895548Y-111406000D01*
X114017885Y-111406000D01*
X114033124Y-111401525D01*
X114034329Y-111400135D01*
X114036000Y-111392452D01*
X114036000Y-109792810D01*
X114035519Y-109791173D01*
X114544000Y-109791173D01*
X114544000Y-111387885D01*
X114548475Y-111403124D01*
X114549865Y-111404329D01*
X114557548Y-111406000D01*
X115679885Y-111406000D01*
X115695124Y-111401525D01*
X115696329Y-111400135D01*
X115698000Y-111392452D01*
X115698000Y-111103733D01*
X115697775Y-111098424D01*
X115683250Y-110927236D01*
X115681460Y-110916764D01*
X115624116Y-110695827D01*
X115620581Y-110685787D01*
X115526830Y-110477669D01*
X115521661Y-110468383D01*
X115394185Y-110279036D01*
X115387524Y-110270750D01*
X115229961Y-110105583D01*
X115222004Y-110098543D01*
X115038871Y-109962288D01*
X115029834Y-109956684D01*
X114826361Y-109853233D01*
X114816510Y-109849233D01*
X114598514Y-109781544D01*
X114588133Y-109779261D01*
X114561959Y-109775792D01*
X114547792Y-109777989D01*
X114544000Y-109791173D01*
X114035519Y-109791173D01*
X114032027Y-109779279D01*
X114021420Y-109777754D01*
X113889177Y-109805502D01*
X113878998Y-109808557D01*
X113666699Y-109892397D01*
X113657167Y-109897128D01*
X113462026Y-110015543D01*
X113453436Y-110021807D01*
X113281038Y-110171406D01*
X113273618Y-110179036D01*
X113128894Y-110355541D01*
X113122872Y-110364303D01*
X113009951Y-110562674D01*
X113005488Y-110572334D01*
X112927608Y-110786891D01*
X112924837Y-110797159D01*
X112884009Y-111022941D01*
X112883076Y-111031170D01*
X112882070Y-111052488D01*
X112882000Y-111055463D01*
X109594630Y-111055463D01*
X109583292Y-110921840D01*
X109581951Y-110916672D01*
X109524586Y-110695655D01*
X109524584Y-110695650D01*
X109523245Y-110690490D01*
X109425077Y-110472565D01*
X109291594Y-110274296D01*
X109251272Y-110232027D01*
X109163658Y-110140184D01*
X109126613Y-110101351D01*
X108934852Y-109958677D01*
X108930101Y-109956261D01*
X108930097Y-109956259D01*
X108726549Y-109852770D01*
X108726548Y-109852770D01*
X108721793Y-109850352D01*
X108493528Y-109779474D01*
X108465748Y-109775792D01*
X108261868Y-109748769D01*
X108261865Y-109748769D01*
X108256585Y-109748069D01*
X108251256Y-109748269D01*
X108251255Y-109748269D01*
X108154684Y-109751895D01*
X108017738Y-109757036D01*
X107931316Y-109775169D01*
X107789043Y-109805021D01*
X107789040Y-109805022D01*
X107783816Y-109806118D01*
X107561508Y-109893911D01*
X107556944Y-109896680D01*
X107556945Y-109896680D01*
X107361732Y-110015138D01*
X107361729Y-110015140D01*
X107357171Y-110017906D01*
X107176647Y-110174557D01*
X107173264Y-110178683D01*
X107173259Y-110178688D01*
X107097774Y-110270750D01*
X107025098Y-110359385D01*
X107022459Y-110364021D01*
X107022457Y-110364024D01*
X106964575Y-110465709D01*
X106906857Y-110567104D01*
X106825304Y-110791777D01*
X106782773Y-111026978D01*
X106781500Y-111053973D01*
X106781500Y-111647331D01*
X106761498Y-111715452D01*
X106707842Y-111761945D01*
X106638945Y-111772239D01*
X106461870Y-111748769D01*
X106461864Y-111748769D01*
X106456585Y-111748069D01*
X106451256Y-111748269D01*
X106451255Y-111748269D01*
X106354684Y-111751895D01*
X106217738Y-111757036D01*
X106145281Y-111772239D01*
X105989043Y-111805021D01*
X105989040Y-111805022D01*
X105983816Y-111806118D01*
X105761508Y-111893911D01*
X105756944Y-111896680D01*
X105756945Y-111896680D01*
X105561732Y-112015138D01*
X105561729Y-112015140D01*
X105557171Y-112017906D01*
X105376647Y-112174557D01*
X105373264Y-112178683D01*
X105373259Y-112178688D01*
X105279512Y-112293022D01*
X105225098Y-112359385D01*
X105106857Y-112567104D01*
X105025304Y-112791777D01*
X104982773Y-113026978D01*
X104982578Y-113031117D01*
X104982577Y-113031124D01*
X104981890Y-113045704D01*
X104981500Y-113053973D01*
X103778354Y-113053973D01*
X103851517Y-112964743D01*
X103854902Y-112960615D01*
X103857702Y-112955697D01*
X103948023Y-112797025D01*
X103973143Y-112752896D01*
X104054696Y-112528223D01*
X104097227Y-112293022D01*
X104098500Y-112266027D01*
X104098500Y-111101073D01*
X104083292Y-110921840D01*
X104081951Y-110916672D01*
X104024586Y-110695655D01*
X104024584Y-110695650D01*
X104023245Y-110690490D01*
X103925077Y-110472565D01*
X103791594Y-110274296D01*
X103751272Y-110232027D01*
X103663658Y-110140184D01*
X103626613Y-110101351D01*
X103434852Y-109958677D01*
X103430101Y-109956261D01*
X103430097Y-109956259D01*
X103226549Y-109852770D01*
X103226548Y-109852770D01*
X103221793Y-109850352D01*
X102993528Y-109779474D01*
X102965748Y-109775792D01*
X102761868Y-109748769D01*
X102761865Y-109748769D01*
X102756585Y-109748069D01*
X102751256Y-109748269D01*
X102751255Y-109748269D01*
X102654684Y-109751895D01*
X102517738Y-109757036D01*
X102431316Y-109775169D01*
X102289043Y-109805021D01*
X102289040Y-109805022D01*
X102283816Y-109806118D01*
X102061508Y-109893911D01*
X102056944Y-109896680D01*
X102056945Y-109896680D01*
X101861732Y-110015138D01*
X101861729Y-110015140D01*
X101857171Y-110017906D01*
X101676647Y-110174557D01*
X101673264Y-110178683D01*
X101673259Y-110178688D01*
X101597774Y-110270750D01*
X101525098Y-110359385D01*
X101522459Y-110364021D01*
X101522457Y-110364024D01*
X101464575Y-110465709D01*
X101406857Y-110567104D01*
X101325304Y-110791777D01*
X101282773Y-111026978D01*
X101281500Y-111053973D01*
X96485637Y-111053973D01*
X96524399Y-110972156D01*
X96528123Y-110962197D01*
X96585968Y-110755718D01*
X96584430Y-110747351D01*
X96572137Y-110744000D01*
X93933403Y-110744000D01*
X93920222Y-110747870D01*
X93918255Y-110762423D01*
X93926638Y-110814471D01*
X93929212Y-110824793D01*
X94000230Y-111032810D01*
X94004497Y-111042533D01*
X94109556Y-111235625D01*
X94115402Y-111244491D01*
X94251486Y-111417113D01*
X94258750Y-111424875D01*
X94314593Y-111475244D01*
X94351780Y-111535723D01*
X94350366Y-111606705D01*
X94310801Y-111665655D01*
X94265699Y-111689703D01*
X94195330Y-111710365D01*
X94195328Y-111710366D01*
X94186684Y-111712904D01*
X94179105Y-111717775D01*
X94071309Y-111787051D01*
X94071306Y-111787053D01*
X94063729Y-111791923D01*
X94057828Y-111798733D01*
X93973918Y-111895569D01*
X93973916Y-111895572D01*
X93968016Y-111902381D01*
X93964272Y-111910579D01*
X93956523Y-111927548D01*
X93907300Y-112035330D01*
X93906018Y-112044245D01*
X93906018Y-112044246D01*
X93887139Y-112175552D01*
X93887138Y-112175559D01*
X93886500Y-112180000D01*
X93218000Y-112180000D01*
X93218000Y-87732233D01*
X93890338Y-87732233D01*
X93927002Y-87959861D01*
X94001494Y-88178056D01*
X94111685Y-88380580D01*
X94254424Y-88561644D01*
X94258389Y-88565220D01*
X94421659Y-88712489D01*
X94421665Y-88712494D01*
X94425629Y-88716069D01*
X94430142Y-88718928D01*
X94430144Y-88718929D01*
X94548242Y-88793731D01*
X94595087Y-88847079D01*
X94605654Y-88917285D01*
X94576587Y-88982058D01*
X94546186Y-89007894D01*
X94451196Y-89065535D01*
X94451189Y-89065540D01*
X94446631Y-89068306D01*
X94442601Y-89071803D01*
X94296391Y-89198677D01*
X94272492Y-89219415D01*
X94269109Y-89223541D01*
X94269105Y-89223545D01*
X94196768Y-89311767D01*
X94126304Y-89397705D01*
X94123665Y-89402341D01*
X94123663Y-89402344D01*
X94061389Y-89511743D01*
X94012245Y-89598077D01*
X93933578Y-89814802D01*
X93932629Y-89820051D01*
X93932628Y-89820054D01*
X93895248Y-90026767D01*
X93892551Y-90041683D01*
X93891464Y-90154946D01*
X93890428Y-90262894D01*
X93890338Y-90272233D01*
X93927002Y-90499861D01*
X94001494Y-90718056D01*
X94004044Y-90722743D01*
X94004045Y-90722745D01*
X94047096Y-90801869D01*
X94111685Y-90920580D01*
X94254424Y-91101644D01*
X94258389Y-91105220D01*
X94421659Y-91252489D01*
X94421665Y-91252494D01*
X94425629Y-91256069D01*
X94430142Y-91258928D01*
X94430144Y-91258929D01*
X94548242Y-91333731D01*
X94595087Y-91387079D01*
X94605654Y-91457285D01*
X94576587Y-91522058D01*
X94546186Y-91547894D01*
X94451196Y-91605535D01*
X94451189Y-91605540D01*
X94446631Y-91608306D01*
X94442601Y-91611803D01*
X94349426Y-91692656D01*
X94272492Y-91759415D01*
X94269109Y-91763541D01*
X94269105Y-91763545D01*
X94196768Y-91851767D01*
X94126304Y-91937705D01*
X94123665Y-91942341D01*
X94123663Y-91942344D01*
X94066675Y-92042457D01*
X94012245Y-92138077D01*
X93933578Y-92354802D01*
X93932629Y-92360051D01*
X93932628Y-92360054D01*
X93910890Y-92480265D01*
X93892551Y-92581683D01*
X93892339Y-92603741D01*
X93890636Y-92781227D01*
X93890338Y-92812233D01*
X93927002Y-93039861D01*
X94001494Y-93258056D01*
X94111685Y-93460580D01*
X94254424Y-93641644D01*
X94258389Y-93645220D01*
X94421659Y-93792489D01*
X94421665Y-93792494D01*
X94425629Y-93796069D01*
X94430142Y-93798928D01*
X94430144Y-93798929D01*
X94548242Y-93873731D01*
X94595087Y-93927079D01*
X94605654Y-93997285D01*
X94576587Y-94062058D01*
X94546186Y-94087894D01*
X94451196Y-94145535D01*
X94451189Y-94145540D01*
X94446631Y-94148306D01*
X94442601Y-94151803D01*
X94349426Y-94232656D01*
X94272492Y-94299415D01*
X94269109Y-94303541D01*
X94269105Y-94303545D01*
X94196768Y-94391767D01*
X94126304Y-94477705D01*
X94012245Y-94678077D01*
X93933578Y-94894802D01*
X93932629Y-94900051D01*
X93932628Y-94900054D01*
X93910890Y-95020265D01*
X93892551Y-95121683D01*
X93892500Y-95127023D01*
X93891097Y-95273210D01*
X93890338Y-95352233D01*
X93927002Y-95579861D01*
X94001494Y-95798056D01*
X94111685Y-96000580D01*
X94254424Y-96181644D01*
X94258389Y-96185220D01*
X94421659Y-96332489D01*
X94421665Y-96332494D01*
X94425629Y-96336069D01*
X94430142Y-96338928D01*
X94430144Y-96338929D01*
X94548242Y-96413731D01*
X94595087Y-96467079D01*
X94605654Y-96537285D01*
X94576587Y-96602058D01*
X94546186Y-96627894D01*
X94451196Y-96685535D01*
X94451189Y-96685540D01*
X94446631Y-96688306D01*
X94442601Y-96691803D01*
X94279612Y-96833237D01*
X94272492Y-96839415D01*
X94269109Y-96843541D01*
X94269105Y-96843545D01*
X94219334Y-96904246D01*
X94126304Y-97017705D01*
X94123665Y-97022341D01*
X94123663Y-97022344D01*
X94036677Y-97175157D01*
X94012245Y-97218077D01*
X93933578Y-97434802D01*
X93932629Y-97440051D01*
X93932628Y-97440054D01*
X93910890Y-97560265D01*
X93892551Y-97661683D01*
X93892500Y-97667023D01*
X93891097Y-97813210D01*
X93890338Y-97892233D01*
X93927002Y-98119861D01*
X94001494Y-98338056D01*
X94111685Y-98540580D01*
X94254424Y-98721644D01*
X94258389Y-98725220D01*
X94421659Y-98872489D01*
X94421665Y-98872494D01*
X94425629Y-98876069D01*
X94430142Y-98878928D01*
X94430144Y-98878929D01*
X94548242Y-98953731D01*
X94595087Y-99007079D01*
X94605654Y-99077285D01*
X94576587Y-99142058D01*
X94546186Y-99167894D01*
X94451196Y-99225535D01*
X94451189Y-99225540D01*
X94446631Y-99228306D01*
X94442601Y-99231803D01*
X94349426Y-99312656D01*
X94272492Y-99379415D01*
X94269109Y-99383541D01*
X94269105Y-99383545D01*
X94196768Y-99471767D01*
X94126304Y-99557705D01*
X94012245Y-99758077D01*
X93933578Y-99974802D01*
X93932629Y-99980051D01*
X93932628Y-99980054D01*
X93910890Y-100100265D01*
X93892551Y-100201683D01*
X93892500Y-100207023D01*
X93891097Y-100353210D01*
X93890338Y-100432233D01*
X93927002Y-100659861D01*
X94001494Y-100878056D01*
X94111685Y-101080580D01*
X94254424Y-101261644D01*
X94258389Y-101265220D01*
X94421659Y-101412489D01*
X94421665Y-101412494D01*
X94425629Y-101416069D01*
X94430142Y-101418928D01*
X94430144Y-101418929D01*
X94548242Y-101493731D01*
X94595087Y-101547079D01*
X94605654Y-101617285D01*
X94576587Y-101682058D01*
X94546186Y-101707894D01*
X94451196Y-101765535D01*
X94451189Y-101765540D01*
X94446631Y-101768306D01*
X94442601Y-101771803D01*
X94349426Y-101852656D01*
X94272492Y-101919415D01*
X94269109Y-101923541D01*
X94269105Y-101923545D01*
X94196768Y-102011767D01*
X94126304Y-102097705D01*
X94012245Y-102298077D01*
X93933578Y-102514802D01*
X93932629Y-102520051D01*
X93932628Y-102520054D01*
X93910890Y-102640265D01*
X93892551Y-102741683D01*
X93892500Y-102747023D01*
X93890507Y-102954668D01*
X93890338Y-102972233D01*
X93927002Y-103199861D01*
X94001494Y-103418056D01*
X94111685Y-103620580D01*
X94254424Y-103801644D01*
X94258389Y-103805220D01*
X94421659Y-103952489D01*
X94421665Y-103952494D01*
X94425629Y-103956069D01*
X94430142Y-103958928D01*
X94430144Y-103958929D01*
X94548242Y-104033731D01*
X94595087Y-104087079D01*
X94605654Y-104157285D01*
X94576587Y-104222058D01*
X94546186Y-104247894D01*
X94451196Y-104305535D01*
X94451189Y-104305540D01*
X94446631Y-104308306D01*
X94442601Y-104311803D01*
X94300898Y-104434766D01*
X94272492Y-104459415D01*
X94269109Y-104463541D01*
X94269105Y-104463545D01*
X94143593Y-104616619D01*
X94126304Y-104637705D01*
X94012245Y-104838077D01*
X93933578Y-105054802D01*
X93932629Y-105060051D01*
X93932628Y-105060054D01*
X93910890Y-105180265D01*
X93892551Y-105281683D01*
X93891464Y-105394946D01*
X93891097Y-105433210D01*
X93890338Y-105512233D01*
X93927002Y-105739861D01*
X94001494Y-105958056D01*
X94111685Y-106160580D01*
X94254424Y-106341644D01*
X94258389Y-106345220D01*
X94421659Y-106492489D01*
X94421665Y-106492494D01*
X94425629Y-106496069D01*
X94430142Y-106498928D01*
X94430144Y-106498929D01*
X94548242Y-106573731D01*
X94595087Y-106627079D01*
X94605654Y-106697285D01*
X94576587Y-106762058D01*
X94546186Y-106787894D01*
X94451196Y-106845535D01*
X94451189Y-106845540D01*
X94446631Y-106848306D01*
X94442601Y-106851803D01*
X94349426Y-106932656D01*
X94272492Y-106999415D01*
X94269109Y-107003541D01*
X94269105Y-107003545D01*
X94196768Y-107091767D01*
X94126304Y-107177705D01*
X94012245Y-107378077D01*
X93933578Y-107594802D01*
X93932629Y-107600051D01*
X93932628Y-107600054D01*
X93910890Y-107720265D01*
X93892551Y-107821683D01*
X93892500Y-107827023D01*
X93891097Y-107973210D01*
X93890338Y-108052233D01*
X93927002Y-108279861D01*
X94001494Y-108498056D01*
X94111685Y-108700580D01*
X94254424Y-108881644D01*
X94258389Y-108885220D01*
X94421659Y-109032489D01*
X94421665Y-109032494D01*
X94425629Y-109036069D01*
X94430142Y-109038928D01*
X94430144Y-109038929D01*
X94548712Y-109114029D01*
X94595557Y-109167377D01*
X94606124Y-109237583D01*
X94577057Y-109302357D01*
X94546656Y-109328192D01*
X94451486Y-109385942D01*
X94442896Y-109392206D01*
X94276884Y-109536264D01*
X94269464Y-109543895D01*
X94130100Y-109713860D01*
X94124075Y-109722627D01*
X94015342Y-109913644D01*
X94010877Y-109923308D01*
X93935882Y-110129916D01*
X93933111Y-110140184D01*
X93919008Y-110218174D01*
X93920427Y-110231414D01*
X93935062Y-110236000D01*
X96569079Y-110236000D01*
X96582610Y-110232027D01*
X96583876Y-110223218D01*
X96536954Y-110042433D01*
X96533419Y-110032395D01*
X96443147Y-109831998D01*
X96437967Y-109822692D01*
X96315218Y-109640366D01*
X96308557Y-109632080D01*
X96156830Y-109473030D01*
X96148873Y-109465990D01*
X95972524Y-109334783D01*
X95959981Y-109327005D01*
X95912628Y-109274107D01*
X95901391Y-109204005D01*
X95929838Y-109138957D01*
X95953122Y-109117409D01*
X96133711Y-108988357D01*
X96296030Y-108824617D01*
X96383043Y-108700580D01*
X96425375Y-108640236D01*
X96425376Y-108640234D01*
X96428439Y-108635868D01*
X96527153Y-108427508D01*
X96589349Y-108205494D01*
X96613249Y-107976176D01*
X96613500Y-107950000D01*
X96613250Y-107947052D01*
X96594458Y-107725576D01*
X96594457Y-107725572D01*
X96594007Y-107720265D01*
X96536084Y-107497098D01*
X96484731Y-107383098D01*
X96443578Y-107291743D01*
X96443577Y-107291741D01*
X96441388Y-107286882D01*
X96312627Y-107095626D01*
X96153482Y-106928799D01*
X95968504Y-106791171D01*
X95963743Y-106788751D01*
X95960425Y-106786693D01*
X95913071Y-106733796D01*
X95901832Y-106663695D01*
X95930277Y-106598645D01*
X95953564Y-106577093D01*
X95962304Y-106570847D01*
X96133711Y-106448357D01*
X96296030Y-106284617D01*
X96383043Y-106160580D01*
X96425375Y-106100236D01*
X96425376Y-106100234D01*
X96428439Y-106095868D01*
X96527153Y-105887508D01*
X96589349Y-105665494D01*
X96613249Y-105436176D01*
X96613500Y-105410000D01*
X96608345Y-105349244D01*
X96594458Y-105185576D01*
X96594457Y-105185572D01*
X96594007Y-105180265D01*
X96589957Y-105164659D01*
X96542006Y-104979916D01*
X96536084Y-104957098D01*
X96484731Y-104843098D01*
X96443578Y-104751743D01*
X96443577Y-104751741D01*
X96441388Y-104746882D01*
X96312627Y-104555626D01*
X96263893Y-104504539D01*
X96197220Y-104434648D01*
X96153482Y-104388799D01*
X95968504Y-104251171D01*
X95963743Y-104248751D01*
X95960425Y-104246693D01*
X95933124Y-104216196D01*
X104198895Y-104216196D01*
X104204247Y-104251171D01*
X104230453Y-104422426D01*
X104231529Y-104429460D01*
X104233346Y-104434766D01*
X104299525Y-104628060D01*
X104301413Y-104633575D01*
X104406338Y-104822088D01*
X104409891Y-104826428D01*
X104409893Y-104826432D01*
X104423534Y-104843098D01*
X104542987Y-104989041D01*
X104707042Y-105129158D01*
X104711887Y-105131989D01*
X104888470Y-105235176D01*
X104888473Y-105235177D01*
X104893317Y-105238008D01*
X104898587Y-105239937D01*
X104898588Y-105239937D01*
X105090659Y-105310225D01*
X105090663Y-105310226D01*
X105095923Y-105312151D01*
X105101439Y-105313114D01*
X105101444Y-105313115D01*
X105302933Y-105348280D01*
X105302934Y-105348280D01*
X105308457Y-105349244D01*
X105314063Y-105349215D01*
X105314067Y-105349215D01*
X105412301Y-105348700D01*
X105524200Y-105348114D01*
X105529718Y-105347091D01*
X105529721Y-105347091D01*
X105730815Y-105309821D01*
X105730816Y-105309821D01*
X105736334Y-105308798D01*
X105741579Y-105306816D01*
X105741583Y-105306815D01*
X105923674Y-105238008D01*
X105938153Y-105232537D01*
X106067223Y-105155290D01*
X112379540Y-105155290D01*
X112384821Y-105162344D01*
X112508683Y-105234723D01*
X112518801Y-105239484D01*
X112710788Y-105309742D01*
X112721573Y-105312632D01*
X112922975Y-105347782D01*
X112934109Y-105348717D01*
X113138538Y-105347646D01*
X113149673Y-105346594D01*
X113350680Y-105309339D01*
X113361451Y-105306332D01*
X113552689Y-105234069D01*
X113562749Y-105229206D01*
X113670599Y-105164659D01*
X113680170Y-105154300D01*
X113676627Y-105145837D01*
X113042812Y-104512022D01*
X113028868Y-104504408D01*
X113027035Y-104504539D01*
X113020420Y-104508790D01*
X112386300Y-105142910D01*
X112379540Y-105155290D01*
X106067223Y-105155290D01*
X106123277Y-105121742D01*
X106127497Y-105118060D01*
X106127502Y-105118057D01*
X106281626Y-104983606D01*
X106285856Y-104979916D01*
X106308038Y-104952229D01*
X106417244Y-104815918D01*
X106417247Y-104815913D01*
X106420750Y-104811541D01*
X106523695Y-104621939D01*
X106591438Y-104417104D01*
X106620834Y-104210559D01*
X111819541Y-104210559D01*
X111820243Y-104221711D01*
X111851165Y-104423795D01*
X111853831Y-104434648D01*
X111920050Y-104628060D01*
X111924601Y-104638280D01*
X112004435Y-104781714D01*
X112014487Y-104791605D01*
X112022091Y-104788699D01*
X112657978Y-104152812D01*
X112664356Y-104141132D01*
X113394408Y-104141132D01*
X113394539Y-104142965D01*
X113398790Y-104149580D01*
X114034608Y-104785398D01*
X114046988Y-104792158D01*
X114053252Y-104787469D01*
X114140562Y-104626666D01*
X114144995Y-104616420D01*
X114209191Y-104422312D01*
X114211741Y-104411439D01*
X114240827Y-104207075D01*
X114241433Y-104199859D01*
X114242905Y-104143632D01*
X114242677Y-104136379D01*
X114224328Y-103930791D01*
X114222346Y-103919777D01*
X114168403Y-103722593D01*
X114164509Y-103712120D01*
X114076493Y-103527592D01*
X114070809Y-103517981D01*
X114056468Y-103498024D01*
X114045678Y-103489614D01*
X114032642Y-103496568D01*
X113402022Y-104127188D01*
X113394408Y-104141132D01*
X112664356Y-104141132D01*
X112665592Y-104138868D01*
X112665461Y-104137035D01*
X112661210Y-104130420D01*
X112027897Y-103497107D01*
X112015517Y-103490347D01*
X112007545Y-103496315D01*
X111952194Y-103584551D01*
X111947114Y-103594521D01*
X111870864Y-103784198D01*
X111867633Y-103794898D01*
X111826177Y-103995084D01*
X111824892Y-104006191D01*
X111819541Y-104210559D01*
X106620834Y-104210559D01*
X106621837Y-104203510D01*
X106623500Y-104140000D01*
X106604321Y-103925108D01*
X106565773Y-103784198D01*
X106548874Y-103722424D01*
X106548873Y-103722420D01*
X106547392Y-103717008D01*
X106454510Y-103522278D01*
X106435854Y-103496315D01*
X106331890Y-103351632D01*
X106331885Y-103351627D01*
X106328614Y-103347074D01*
X106173680Y-103196933D01*
X106081341Y-103134884D01*
X106063518Y-103122907D01*
X112377461Y-103122907D01*
X112384094Y-103134884D01*
X113017188Y-103767978D01*
X113031132Y-103775592D01*
X113032965Y-103775461D01*
X113039580Y-103771210D01*
X113672958Y-103137832D01*
X113679183Y-103126433D01*
X113669373Y-103114002D01*
X113619024Y-103080169D01*
X113609229Y-103074785D01*
X113422040Y-102992614D01*
X113411441Y-102989047D01*
X113212656Y-102941323D01*
X113201594Y-102939690D01*
X112997506Y-102927922D01*
X112986322Y-102928274D01*
X112783375Y-102952833D01*
X112772441Y-102955157D01*
X112577041Y-103015270D01*
X112566695Y-103019491D01*
X112385024Y-103113258D01*
X112384061Y-103113870D01*
X112377461Y-103122907D01*
X106063518Y-103122907D01*
X105999261Y-103079728D01*
X105999255Y-103079725D01*
X105994608Y-103076602D01*
X105849224Y-103012783D01*
X105802199Y-102992140D01*
X105802197Y-102992139D01*
X105797057Y-102989883D01*
X105650376Y-102954668D01*
X105592729Y-102940828D01*
X105592728Y-102940828D01*
X105587272Y-102939518D01*
X105504801Y-102934763D01*
X105377490Y-102927422D01*
X105377487Y-102927422D01*
X105371883Y-102927099D01*
X105157699Y-102953018D01*
X104951490Y-103016456D01*
X104946510Y-103019026D01*
X104946506Y-103019028D01*
X104828048Y-103080169D01*
X104759774Y-103115408D01*
X104588611Y-103246746D01*
X104443411Y-103406319D01*
X104328764Y-103589083D01*
X104248293Y-103789260D01*
X104247156Y-103794751D01*
X104247155Y-103794754D01*
X104214490Y-103952489D01*
X104204542Y-104000524D01*
X104204395Y-104006133D01*
X104204395Y-104006134D01*
X104203445Y-104042409D01*
X104198895Y-104216196D01*
X95933124Y-104216196D01*
X95913071Y-104193796D01*
X95901832Y-104123695D01*
X95930277Y-104058645D01*
X95953564Y-104037093D01*
X95996807Y-104006191D01*
X96133711Y-103908357D01*
X96246328Y-103794754D01*
X96292277Y-103748403D01*
X96292278Y-103748402D01*
X96296030Y-103744617D01*
X96383043Y-103620580D01*
X96425375Y-103560236D01*
X96425376Y-103560234D01*
X96428439Y-103555868D01*
X96527153Y-103347508D01*
X96589349Y-103125494D01*
X96590045Y-103118821D01*
X96603247Y-102992140D01*
X96613249Y-102896176D01*
X96613500Y-102870000D01*
X96613250Y-102867052D01*
X96594458Y-102645576D01*
X96594457Y-102645572D01*
X96594007Y-102640265D01*
X96536084Y-102417098D01*
X96484731Y-102303098D01*
X96443578Y-102211743D01*
X96443577Y-102211741D01*
X96441388Y-102206882D01*
X96312627Y-102015626D01*
X96153482Y-101848799D01*
X95968504Y-101711171D01*
X95963743Y-101708751D01*
X95960425Y-101706693D01*
X95913071Y-101653796D01*
X95901832Y-101583695D01*
X95930277Y-101518645D01*
X95953564Y-101497093D01*
X95962304Y-101490847D01*
X96133711Y-101368357D01*
X96296030Y-101204617D01*
X96383043Y-101080580D01*
X96425375Y-101020236D01*
X96425376Y-101020234D01*
X96428439Y-101015868D01*
X96527153Y-100807508D01*
X96589349Y-100585494D01*
X96613249Y-100356176D01*
X96613500Y-100330000D01*
X96613250Y-100327052D01*
X96594458Y-100105576D01*
X96594457Y-100105572D01*
X96594007Y-100100265D01*
X96536084Y-99877098D01*
X96484731Y-99763098D01*
X96443578Y-99671743D01*
X96443577Y-99671741D01*
X96441388Y-99666882D01*
X96312627Y-99475626D01*
X96153482Y-99308799D01*
X95968504Y-99171171D01*
X95963743Y-99168751D01*
X95960425Y-99166693D01*
X95913071Y-99113796D01*
X95901832Y-99043695D01*
X95930277Y-98978645D01*
X95953564Y-98957093D01*
X96055740Y-98884076D01*
X96133711Y-98828357D01*
X96296030Y-98664617D01*
X96299090Y-98660255D01*
X96425375Y-98480236D01*
X96425376Y-98480234D01*
X96428439Y-98475868D01*
X96527153Y-98267508D01*
X96589349Y-98045494D01*
X96613249Y-97816176D01*
X96613500Y-97790000D01*
X96613250Y-97787052D01*
X96594458Y-97565576D01*
X96594457Y-97565572D01*
X96594007Y-97560265D01*
X96582001Y-97514006D01*
X96537426Y-97342269D01*
X96536084Y-97337098D01*
X96484731Y-97223098D01*
X96443578Y-97131743D01*
X96443577Y-97131741D01*
X96441388Y-97126882D01*
X96382896Y-97040000D01*
X106911500Y-97040000D01*
X106911500Y-98540000D01*
X106916727Y-98613079D01*
X106957904Y-98753316D01*
X106962775Y-98760895D01*
X107032051Y-98868691D01*
X107032053Y-98868694D01*
X107036923Y-98876271D01*
X107043733Y-98882172D01*
X107140569Y-98966082D01*
X107140572Y-98966084D01*
X107147381Y-98971984D01*
X107155579Y-98975728D01*
X107161967Y-98978645D01*
X107280330Y-99032700D01*
X107289245Y-99033982D01*
X107289246Y-99033982D01*
X107420552Y-99052861D01*
X107420559Y-99052862D01*
X107425000Y-99053500D01*
X108475000Y-99053500D01*
X108548079Y-99048273D01*
X108626165Y-99025345D01*
X108679670Y-99009635D01*
X108679672Y-99009634D01*
X108688316Y-99007096D01*
X108717473Y-98988358D01*
X108785594Y-98968357D01*
X108822852Y-98973992D01*
X109005294Y-99030467D01*
X109005297Y-99030468D01*
X109011181Y-99032289D01*
X109017306Y-99032933D01*
X109017307Y-99032933D01*
X109206622Y-99052831D01*
X109206623Y-99052831D01*
X109212750Y-99053475D01*
X109295811Y-99045916D01*
X109408456Y-99035664D01*
X109408459Y-99035663D01*
X109414595Y-99035105D01*
X109420501Y-99033367D01*
X109420505Y-99033366D01*
X109603120Y-98979619D01*
X109603119Y-98979619D01*
X109609029Y-98977880D01*
X109788460Y-98884076D01*
X109788461Y-98884076D01*
X109788644Y-98883980D01*
X109788662Y-98884015D01*
X109854440Y-98864110D01*
X109915407Y-98879270D01*
X110082145Y-98969425D01*
X110082150Y-98969427D01*
X110087565Y-98972355D01*
X110093451Y-98974177D01*
X110275294Y-99030467D01*
X110275297Y-99030468D01*
X110281181Y-99032289D01*
X110287306Y-99032933D01*
X110287307Y-99032933D01*
X110476622Y-99052831D01*
X110476623Y-99052831D01*
X110482750Y-99053475D01*
X110565811Y-99045916D01*
X110678456Y-99035664D01*
X110678459Y-99035663D01*
X110684595Y-99035105D01*
X110690501Y-99033367D01*
X110690505Y-99033366D01*
X110873120Y-98979619D01*
X110873119Y-98979619D01*
X110879029Y-98977880D01*
X111058644Y-98883980D01*
X111216600Y-98756980D01*
X111346880Y-98601718D01*
X111349846Y-98596323D01*
X111349850Y-98596317D01*
X111441553Y-98429509D01*
X111444522Y-98424109D01*
X111505806Y-98230916D01*
X111523500Y-98073174D01*
X111523500Y-97514006D01*
X111508722Y-97363288D01*
X111450141Y-97169258D01*
X111383804Y-97044496D01*
X111357883Y-96995745D01*
X111357881Y-96995742D01*
X111354989Y-96990303D01*
X111351099Y-96985533D01*
X111351096Y-96985529D01*
X111230778Y-96838005D01*
X111230776Y-96838003D01*
X111226889Y-96833237D01*
X111070722Y-96704044D01*
X111065305Y-96701115D01*
X111065302Y-96701113D01*
X110897855Y-96610575D01*
X110897850Y-96610573D01*
X110892435Y-96607645D01*
X110866171Y-96599515D01*
X110704706Y-96549533D01*
X110704703Y-96549532D01*
X110698819Y-96547711D01*
X110692694Y-96547067D01*
X110692693Y-96547067D01*
X110503378Y-96527169D01*
X110503377Y-96527169D01*
X110497250Y-96526525D01*
X110440092Y-96531727D01*
X110301544Y-96544336D01*
X110301541Y-96544337D01*
X110295405Y-96544895D01*
X110289499Y-96546633D01*
X110289495Y-96546634D01*
X110183688Y-96577775D01*
X110100971Y-96602120D01*
X109921540Y-96695924D01*
X109921539Y-96695924D01*
X109921356Y-96696020D01*
X109921338Y-96695985D01*
X109855560Y-96715890D01*
X109794593Y-96700730D01*
X109627855Y-96610575D01*
X109627850Y-96610573D01*
X109622435Y-96607645D01*
X109596171Y-96599515D01*
X109434706Y-96549533D01*
X109434703Y-96549532D01*
X109428819Y-96547711D01*
X109422694Y-96547067D01*
X109422693Y-96547067D01*
X109233378Y-96527169D01*
X109233377Y-96527169D01*
X109227250Y-96526525D01*
X109170092Y-96531727D01*
X109031544Y-96544336D01*
X109031541Y-96544337D01*
X109025405Y-96544895D01*
X109019499Y-96546633D01*
X109019495Y-96546634D01*
X108913688Y-96577775D01*
X108830971Y-96602120D01*
X108830931Y-96601985D01*
X108762899Y-96608701D01*
X108734005Y-96599515D01*
X108627867Y-96551043D01*
X108627864Y-96551042D01*
X108619670Y-96547300D01*
X108610755Y-96546018D01*
X108610754Y-96546018D01*
X108479448Y-96527139D01*
X108479441Y-96527138D01*
X108475000Y-96526500D01*
X107425000Y-96526500D01*
X107351921Y-96531727D01*
X107273835Y-96554655D01*
X107220330Y-96570365D01*
X107220328Y-96570366D01*
X107211684Y-96572904D01*
X107204105Y-96577775D01*
X107096309Y-96647051D01*
X107096306Y-96647053D01*
X107088729Y-96651923D01*
X107082828Y-96658733D01*
X106998918Y-96755569D01*
X106998916Y-96755572D01*
X106993016Y-96762381D01*
X106989272Y-96770579D01*
X106955950Y-96843545D01*
X106932300Y-96895330D01*
X106931018Y-96904245D01*
X106931018Y-96904246D01*
X106912139Y-97035552D01*
X106912138Y-97035559D01*
X106911500Y-97040000D01*
X96382896Y-97040000D01*
X96312627Y-96935626D01*
X96153482Y-96768799D01*
X95968504Y-96631171D01*
X95963743Y-96628751D01*
X95960425Y-96626693D01*
X95913071Y-96573796D01*
X95901832Y-96503695D01*
X95930277Y-96438645D01*
X95953564Y-96417093D01*
X95962304Y-96410847D01*
X96133711Y-96288357D01*
X96296030Y-96124617D01*
X96383043Y-96000580D01*
X96425375Y-95940236D01*
X96425376Y-95940234D01*
X96428439Y-95935868D01*
X96527153Y-95727508D01*
X96589349Y-95505494D01*
X96613249Y-95276176D01*
X96613500Y-95250000D01*
X96613250Y-95247052D01*
X96594458Y-95025576D01*
X96594457Y-95025572D01*
X96594007Y-95020265D01*
X96536084Y-94797098D01*
X96484731Y-94683098D01*
X96443578Y-94591743D01*
X96443577Y-94591741D01*
X96441388Y-94586882D01*
X96312627Y-94395626D01*
X96153482Y-94228799D01*
X95968504Y-94091171D01*
X95963743Y-94088751D01*
X95960425Y-94086693D01*
X95913071Y-94033796D01*
X95901832Y-93963695D01*
X95930277Y-93898645D01*
X95953564Y-93877093D01*
X95962304Y-93870847D01*
X96133711Y-93748357D01*
X96296030Y-93584617D01*
X96383043Y-93460580D01*
X96425375Y-93400236D01*
X96425376Y-93400234D01*
X96428439Y-93395868D01*
X96527153Y-93187508D01*
X96589349Y-92965494D01*
X96613249Y-92736176D01*
X96613500Y-92710000D01*
X96604279Y-92601323D01*
X96594458Y-92485576D01*
X96594457Y-92485572D01*
X96594007Y-92480265D01*
X96587396Y-92454792D01*
X96537426Y-92262269D01*
X96536084Y-92257098D01*
X96508551Y-92195976D01*
X96443578Y-92051743D01*
X96443577Y-92051741D01*
X96441388Y-92046882D01*
X96312627Y-91855626D01*
X96153482Y-91688799D01*
X95968504Y-91551171D01*
X95963743Y-91548751D01*
X95960425Y-91546693D01*
X95913071Y-91493796D01*
X95901832Y-91423695D01*
X95930277Y-91358645D01*
X95953564Y-91337093D01*
X95962304Y-91330847D01*
X96133711Y-91208357D01*
X96296030Y-91044617D01*
X96383043Y-90920580D01*
X96425375Y-90860236D01*
X96425376Y-90860234D01*
X96428439Y-90855868D01*
X96527153Y-90647508D01*
X96589349Y-90425494D01*
X96613249Y-90196176D01*
X96613500Y-90170000D01*
X96606870Y-90091860D01*
X96594458Y-89945576D01*
X96594457Y-89945572D01*
X96594007Y-89940265D01*
X96536084Y-89717098D01*
X96498129Y-89632840D01*
X96443578Y-89511743D01*
X96443577Y-89511741D01*
X96441388Y-89506882D01*
X96312627Y-89315626D01*
X96153482Y-89148799D01*
X95968504Y-89011171D01*
X95963743Y-89008751D01*
X95960425Y-89006693D01*
X95913071Y-88953796D01*
X95901832Y-88883695D01*
X95930277Y-88818645D01*
X95953564Y-88797093D01*
X95962304Y-88790847D01*
X96133711Y-88668357D01*
X96296030Y-88504617D01*
X96383043Y-88380580D01*
X96425375Y-88320236D01*
X96425376Y-88320234D01*
X96428439Y-88315868D01*
X96438812Y-88293973D01*
X101291500Y-88293973D01*
X101291500Y-89458927D01*
X101306708Y-89638160D01*
X101308048Y-89643324D01*
X101308049Y-89643328D01*
X101353919Y-89820054D01*
X101366755Y-89869510D01*
X101464923Y-90087435D01*
X101598406Y-90285704D01*
X101602085Y-90289561D01*
X101602087Y-90289563D01*
X101651225Y-90341073D01*
X101763387Y-90458649D01*
X101955148Y-90601323D01*
X101959899Y-90603739D01*
X101959903Y-90603741D01*
X102163451Y-90707230D01*
X102168207Y-90709648D01*
X102396472Y-90780526D01*
X102401761Y-90781227D01*
X102628132Y-90811231D01*
X102628135Y-90811231D01*
X102633415Y-90811931D01*
X102638744Y-90811731D01*
X102638745Y-90811731D01*
X102735316Y-90808105D01*
X102872262Y-90802964D01*
X102989066Y-90778456D01*
X103100957Y-90754979D01*
X103100960Y-90754978D01*
X103106184Y-90753882D01*
X103328492Y-90666089D01*
X103431238Y-90603741D01*
X103528268Y-90544862D01*
X103528271Y-90544860D01*
X103532829Y-90542094D01*
X103713353Y-90385443D01*
X103716736Y-90381317D01*
X103716741Y-90381312D01*
X103788354Y-90293973D01*
X104991500Y-90293973D01*
X104991500Y-91458927D01*
X105006708Y-91638160D01*
X105008048Y-91643324D01*
X105008049Y-91643328D01*
X105062150Y-91851767D01*
X105066755Y-91869510D01*
X105164923Y-92087435D01*
X105298406Y-92285704D01*
X105463387Y-92458649D01*
X105655148Y-92601323D01*
X105659899Y-92603739D01*
X105659903Y-92603741D01*
X105782533Y-92666089D01*
X105868207Y-92709648D01*
X106096472Y-92780526D01*
X106101761Y-92781227D01*
X106328132Y-92811231D01*
X106328135Y-92811231D01*
X106333415Y-92811931D01*
X106338744Y-92811731D01*
X106338745Y-92811731D01*
X106435316Y-92808105D01*
X106572262Y-92802964D01*
X106686740Y-92778944D01*
X106800957Y-92754979D01*
X106800960Y-92754978D01*
X106806184Y-92753882D01*
X107028492Y-92666089D01*
X107140473Y-92598137D01*
X107228268Y-92544862D01*
X107228271Y-92544860D01*
X107232829Y-92542094D01*
X107413353Y-92385443D01*
X107416736Y-92381317D01*
X107416741Y-92381312D01*
X107561517Y-92204743D01*
X107564902Y-92200615D01*
X107683143Y-91992896D01*
X107764696Y-91768223D01*
X107807227Y-91533022D01*
X107808500Y-91506027D01*
X107808500Y-90912669D01*
X107828502Y-90844548D01*
X107882158Y-90798055D01*
X107951055Y-90787761D01*
X108128130Y-90811231D01*
X108128136Y-90811231D01*
X108133415Y-90811931D01*
X108138744Y-90811731D01*
X108138745Y-90811731D01*
X108235316Y-90808105D01*
X108372262Y-90802964D01*
X108489066Y-90778456D01*
X108600957Y-90754979D01*
X108600960Y-90754978D01*
X108606184Y-90753882D01*
X108828492Y-90666089D01*
X108931238Y-90603741D01*
X109028268Y-90544862D01*
X109028271Y-90544860D01*
X109032829Y-90542094D01*
X109213353Y-90385443D01*
X109216736Y-90381317D01*
X109216741Y-90381312D01*
X109288354Y-90293973D01*
X110491500Y-90293973D01*
X110491500Y-91458927D01*
X110506708Y-91638160D01*
X110508048Y-91643324D01*
X110508049Y-91643328D01*
X110562150Y-91851767D01*
X110566755Y-91869510D01*
X110664923Y-92087435D01*
X110798406Y-92285704D01*
X110963387Y-92458649D01*
X111155148Y-92601323D01*
X111159899Y-92603739D01*
X111159903Y-92603741D01*
X111282533Y-92666089D01*
X111368207Y-92709648D01*
X111596472Y-92780526D01*
X111601761Y-92781227D01*
X111828132Y-92811231D01*
X111828135Y-92811231D01*
X111833415Y-92811931D01*
X111838744Y-92811731D01*
X111838745Y-92811731D01*
X111935316Y-92808105D01*
X112072262Y-92802964D01*
X112186740Y-92778944D01*
X112300957Y-92754979D01*
X112300960Y-92754978D01*
X112306184Y-92753882D01*
X112528492Y-92666089D01*
X112640473Y-92598137D01*
X112728268Y-92544862D01*
X112728271Y-92544860D01*
X112732829Y-92542094D01*
X112913353Y-92385443D01*
X112916736Y-92381317D01*
X112916741Y-92381312D01*
X113061517Y-92204743D01*
X113064902Y-92200615D01*
X113183143Y-91992896D01*
X113264696Y-91768223D01*
X113307227Y-91533022D01*
X113308500Y-91506027D01*
X113308500Y-90667987D01*
X113328502Y-90599866D01*
X113382158Y-90553373D01*
X113452432Y-90543269D01*
X113509712Y-90566897D01*
X113551131Y-90597713D01*
X113560166Y-90603316D01*
X113763639Y-90706767D01*
X113773490Y-90710767D01*
X113991486Y-90778456D01*
X114001867Y-90780739D01*
X114028041Y-90784208D01*
X114042208Y-90782011D01*
X114046000Y-90768827D01*
X114046000Y-89172115D01*
X114044659Y-89167548D01*
X114554000Y-89167548D01*
X114554000Y-90767190D01*
X114557973Y-90780721D01*
X114568580Y-90782246D01*
X114700823Y-90754498D01*
X114711002Y-90751443D01*
X114923301Y-90667603D01*
X114932833Y-90662872D01*
X115127974Y-90544457D01*
X115136564Y-90538193D01*
X115308962Y-90388594D01*
X115316382Y-90380964D01*
X115461106Y-90204459D01*
X115467128Y-90195697D01*
X115580049Y-89997326D01*
X115584512Y-89987666D01*
X115662392Y-89773109D01*
X115665163Y-89762841D01*
X115705991Y-89537059D01*
X115706924Y-89528830D01*
X115707930Y-89507512D01*
X115708000Y-89504537D01*
X115708000Y-89172115D01*
X115703525Y-89156876D01*
X115702135Y-89155671D01*
X115694452Y-89154000D01*
X114572115Y-89154000D01*
X114556876Y-89158475D01*
X114555671Y-89159865D01*
X114554000Y-89167548D01*
X114044659Y-89167548D01*
X114041525Y-89156876D01*
X114040135Y-89155671D01*
X114032452Y-89154000D01*
X112910115Y-89154000D01*
X112894876Y-89158475D01*
X112893671Y-89159865D01*
X112893284Y-89161645D01*
X112859259Y-89223957D01*
X112796947Y-89257982D01*
X112726131Y-89252918D01*
X112694950Y-89235951D01*
X112644852Y-89198677D01*
X112640101Y-89196261D01*
X112640097Y-89196259D01*
X112436549Y-89092770D01*
X112436548Y-89092770D01*
X112431793Y-89090352D01*
X112203528Y-89019474D01*
X112116160Y-89007894D01*
X111971868Y-88988769D01*
X111971865Y-88988769D01*
X111966585Y-88988069D01*
X111961256Y-88988269D01*
X111961255Y-88988269D01*
X111864684Y-88991895D01*
X111727738Y-88997036D01*
X111655281Y-89012239D01*
X111499043Y-89045021D01*
X111499040Y-89045022D01*
X111493816Y-89046118D01*
X111271508Y-89133911D01*
X111266944Y-89136680D01*
X111266945Y-89136680D01*
X111071732Y-89255138D01*
X111071729Y-89255140D01*
X111067171Y-89257906D01*
X110886647Y-89414557D01*
X110883264Y-89418683D01*
X110883259Y-89418688D01*
X110789512Y-89533022D01*
X110735098Y-89599385D01*
X110616857Y-89807104D01*
X110535304Y-90031777D01*
X110492773Y-90266978D01*
X110492578Y-90271117D01*
X110492577Y-90271124D01*
X110491890Y-90285704D01*
X110491500Y-90293973D01*
X109288354Y-90293973D01*
X109361517Y-90204743D01*
X109364902Y-90200615D01*
X109367702Y-90195697D01*
X109458362Y-90036429D01*
X109483143Y-89992896D01*
X109564696Y-89768223D01*
X109607227Y-89533022D01*
X109608231Y-89511743D01*
X109608430Y-89507516D01*
X109608430Y-89507507D01*
X109608500Y-89506027D01*
X109608500Y-88341073D01*
X109604630Y-88295463D01*
X112892000Y-88295463D01*
X112892000Y-88627885D01*
X112896475Y-88643124D01*
X112897865Y-88644329D01*
X112905548Y-88646000D01*
X114027885Y-88646000D01*
X114043124Y-88641525D01*
X114044329Y-88640135D01*
X114046000Y-88632452D01*
X114046000Y-87032810D01*
X114045519Y-87031173D01*
X114554000Y-87031173D01*
X114554000Y-88627885D01*
X114558475Y-88643124D01*
X114559865Y-88644329D01*
X114567548Y-88646000D01*
X115689885Y-88646000D01*
X115705124Y-88641525D01*
X115706329Y-88640135D01*
X115708000Y-88632452D01*
X115708000Y-88343733D01*
X115707775Y-88338424D01*
X115693250Y-88167236D01*
X115691460Y-88156764D01*
X115634116Y-87935827D01*
X115630581Y-87925787D01*
X115536830Y-87717669D01*
X115531661Y-87708383D01*
X115404185Y-87519036D01*
X115397524Y-87510750D01*
X115239961Y-87345583D01*
X115232004Y-87338543D01*
X115048871Y-87202288D01*
X115039834Y-87196684D01*
X114836361Y-87093233D01*
X114826510Y-87089233D01*
X114608514Y-87021544D01*
X114598133Y-87019261D01*
X114571959Y-87015792D01*
X114557792Y-87017989D01*
X114554000Y-87031173D01*
X114045519Y-87031173D01*
X114042027Y-87019279D01*
X114031420Y-87017754D01*
X113899177Y-87045502D01*
X113888998Y-87048557D01*
X113676699Y-87132397D01*
X113667167Y-87137128D01*
X113472026Y-87255543D01*
X113463436Y-87261807D01*
X113291038Y-87411406D01*
X113283618Y-87419036D01*
X113138894Y-87595541D01*
X113132872Y-87604303D01*
X113019951Y-87802674D01*
X113015488Y-87812334D01*
X112937608Y-88026891D01*
X112934837Y-88037159D01*
X112894009Y-88262941D01*
X112893076Y-88271170D01*
X112892070Y-88292488D01*
X112892000Y-88295463D01*
X109604630Y-88295463D01*
X109593292Y-88161840D01*
X109560931Y-88037159D01*
X109534586Y-87935655D01*
X109534584Y-87935650D01*
X109533245Y-87930490D01*
X109435077Y-87712565D01*
X109301594Y-87514296D01*
X109136613Y-87341351D01*
X108944852Y-87198677D01*
X108940101Y-87196261D01*
X108940097Y-87196259D01*
X108736549Y-87092770D01*
X108736548Y-87092770D01*
X108731793Y-87090352D01*
X108503528Y-87019474D01*
X108475748Y-87015792D01*
X108271868Y-86988769D01*
X108271865Y-86988769D01*
X108266585Y-86988069D01*
X108261256Y-86988269D01*
X108261255Y-86988269D01*
X108164684Y-86991895D01*
X108027738Y-86997036D01*
X107941316Y-87015169D01*
X107799043Y-87045021D01*
X107799040Y-87045022D01*
X107793816Y-87046118D01*
X107571508Y-87133911D01*
X107566944Y-87136680D01*
X107566945Y-87136680D01*
X107371732Y-87255138D01*
X107371729Y-87255140D01*
X107367171Y-87257906D01*
X107186647Y-87414557D01*
X107183264Y-87418683D01*
X107183259Y-87418688D01*
X107107774Y-87510750D01*
X107035098Y-87599385D01*
X107032459Y-87604021D01*
X107032457Y-87604024D01*
X107001091Y-87659127D01*
X106916857Y-87807104D01*
X106835304Y-88031777D01*
X106792773Y-88266978D01*
X106791500Y-88293973D01*
X106791500Y-88887331D01*
X106771498Y-88955452D01*
X106717842Y-89001945D01*
X106648945Y-89012239D01*
X106471870Y-88988769D01*
X106471864Y-88988769D01*
X106466585Y-88988069D01*
X106461256Y-88988269D01*
X106461255Y-88988269D01*
X106364684Y-88991895D01*
X106227738Y-88997036D01*
X106155281Y-89012239D01*
X105999043Y-89045021D01*
X105999040Y-89045022D01*
X105993816Y-89046118D01*
X105771508Y-89133911D01*
X105766944Y-89136680D01*
X105766945Y-89136680D01*
X105571732Y-89255138D01*
X105571729Y-89255140D01*
X105567171Y-89257906D01*
X105386647Y-89414557D01*
X105383264Y-89418683D01*
X105383259Y-89418688D01*
X105289512Y-89533022D01*
X105235098Y-89599385D01*
X105116857Y-89807104D01*
X105035304Y-90031777D01*
X104992773Y-90266978D01*
X104992578Y-90271117D01*
X104992577Y-90271124D01*
X104991890Y-90285704D01*
X104991500Y-90293973D01*
X103788354Y-90293973D01*
X103861517Y-90204743D01*
X103864902Y-90200615D01*
X103867702Y-90195697D01*
X103958362Y-90036429D01*
X103983143Y-89992896D01*
X104064696Y-89768223D01*
X104107227Y-89533022D01*
X104108231Y-89511743D01*
X104108430Y-89507516D01*
X104108430Y-89507507D01*
X104108500Y-89506027D01*
X104108500Y-88341073D01*
X104093292Y-88161840D01*
X104060931Y-88037159D01*
X104034586Y-87935655D01*
X104034584Y-87935650D01*
X104033245Y-87930490D01*
X103935077Y-87712565D01*
X103801594Y-87514296D01*
X103636613Y-87341351D01*
X103444852Y-87198677D01*
X103440101Y-87196261D01*
X103440097Y-87196259D01*
X103236549Y-87092770D01*
X103236548Y-87092770D01*
X103231793Y-87090352D01*
X103003528Y-87019474D01*
X102975748Y-87015792D01*
X102771868Y-86988769D01*
X102771865Y-86988769D01*
X102766585Y-86988069D01*
X102761256Y-86988269D01*
X102761255Y-86988269D01*
X102664684Y-86991895D01*
X102527738Y-86997036D01*
X102441316Y-87015169D01*
X102299043Y-87045021D01*
X102299040Y-87045022D01*
X102293816Y-87046118D01*
X102071508Y-87133911D01*
X102066944Y-87136680D01*
X102066945Y-87136680D01*
X101871732Y-87255138D01*
X101871729Y-87255140D01*
X101867171Y-87257906D01*
X101686647Y-87414557D01*
X101683264Y-87418683D01*
X101683259Y-87418688D01*
X101607774Y-87510750D01*
X101535098Y-87599385D01*
X101532459Y-87604021D01*
X101532457Y-87604024D01*
X101501091Y-87659127D01*
X101416857Y-87807104D01*
X101335304Y-88031777D01*
X101292773Y-88266978D01*
X101291500Y-88293973D01*
X96438812Y-88293973D01*
X96527153Y-88107508D01*
X96589349Y-87885494D01*
X96613249Y-87656176D01*
X96613500Y-87630000D01*
X96603355Y-87510437D01*
X96594458Y-87405576D01*
X96594457Y-87405572D01*
X96594007Y-87400265D01*
X96536084Y-87177098D01*
X96498306Y-87093233D01*
X96443578Y-86971743D01*
X96443577Y-86971741D01*
X96441388Y-86966882D01*
X96312627Y-86775626D01*
X96153482Y-86608799D01*
X95968504Y-86471171D01*
X95963753Y-86468755D01*
X95963749Y-86468753D01*
X95767740Y-86369097D01*
X95767739Y-86369097D01*
X95762982Y-86366678D01*
X95622033Y-86322912D01*
X95547895Y-86299891D01*
X95547889Y-86299890D01*
X95542792Y-86298307D01*
X95437798Y-86284391D01*
X95319515Y-86268714D01*
X95319510Y-86268714D01*
X95314230Y-86268014D01*
X95308900Y-86268214D01*
X95308899Y-86268214D01*
X95199030Y-86272339D01*
X95083831Y-86276663D01*
X95001368Y-86293966D01*
X94863411Y-86322912D01*
X94863408Y-86322913D01*
X94858184Y-86324009D01*
X94643740Y-86408697D01*
X94446631Y-86528306D01*
X94442601Y-86531803D01*
X94349426Y-86612656D01*
X94272492Y-86679415D01*
X94269109Y-86683541D01*
X94269105Y-86683545D01*
X94196768Y-86771767D01*
X94126304Y-86857705D01*
X94012245Y-87058077D01*
X93933578Y-87274802D01*
X93932629Y-87280051D01*
X93932628Y-87280054D01*
X93910890Y-87400265D01*
X93892551Y-87501683D01*
X93891653Y-87595257D01*
X93891097Y-87653210D01*
X93890338Y-87732233D01*
X93218000Y-87732233D01*
X93218000Y-83184000D01*
X93238002Y-83115879D01*
X93291658Y-83069386D01*
X93344000Y-83058000D01*
X117476000Y-83058000D01*
X117544121Y-83078002D01*
G37*
%TD.AperFunction*%
%TD*%
M02*
