%TF.GenerationSoftware,KiCad,Pcbnew,(5.99.0-9501-gd6b12eab50)*%
%TF.CreationDate,2021-02-28T09:53:11+01:00*%
%TF.ProjectId,audio-adapter,61756469-6f2d-4616-9461-707465722e6b,rev?*%
%TF.SameCoordinates,Original*%
%TF.FileFunction,Legend,Bot*%
%TF.FilePolarity,Positive*%
%FSLAX46Y46*%
G04 Gerber Fmt 4.6, Leading zero omitted, Abs format (unit mm)*
G04 Created by KiCad (PCBNEW (5.99.0-9501-gd6b12eab50)) date 2021-02-28 09:53:11*
%MOMM*%
%LPD*%
G01*
G04 APERTURE LIST*
%ADD10C,0.150000*%
G04 APERTURE END LIST*
D10*
X99964761Y-91091904D02*
X99012380Y-90425238D01*
X99964761Y-89949047D02*
X97964761Y-89949047D01*
X97964761Y-90710952D01*
X98060000Y-90901428D01*
X98155238Y-90996666D01*
X98345714Y-91091904D01*
X98631428Y-91091904D01*
X98821904Y-90996666D01*
X98917142Y-90901428D01*
X99012380Y-90710952D01*
X99012380Y-89949047D01*
X99869523Y-92710952D02*
X99964761Y-92520476D01*
X99964761Y-92139523D01*
X99869523Y-91949047D01*
X99679047Y-91853809D01*
X98917142Y-91853809D01*
X98726666Y-91949047D01*
X98631428Y-92139523D01*
X98631428Y-92520476D01*
X98726666Y-92710952D01*
X98917142Y-92806190D01*
X99107619Y-92806190D01*
X99298095Y-91853809D01*
X98631428Y-93377619D02*
X98631428Y-94139523D01*
X97964761Y-93663333D02*
X99679047Y-93663333D01*
X99869523Y-93758571D01*
X99964761Y-93949047D01*
X99964761Y-94139523D01*
X99964761Y-94806190D02*
X98631428Y-94806190D01*
X99012380Y-94806190D02*
X98821904Y-94901428D01*
X98726666Y-94996666D01*
X98631428Y-95187142D01*
X98631428Y-95377619D01*
X99964761Y-96330000D02*
X99869523Y-96139523D01*
X99774285Y-96044285D01*
X99583809Y-95949047D01*
X99012380Y-95949047D01*
X98821904Y-96044285D01*
X98726666Y-96139523D01*
X98631428Y-96330000D01*
X98631428Y-96615714D01*
X98726666Y-96806190D01*
X98821904Y-96901428D01*
X99012380Y-96996666D01*
X99583809Y-96996666D01*
X99774285Y-96901428D01*
X99869523Y-96806190D01*
X99964761Y-96615714D01*
X99964761Y-96330000D01*
X99774285Y-97853809D02*
X99869523Y-97949047D01*
X99964761Y-97853809D01*
X99869523Y-97758571D01*
X99774285Y-97853809D01*
X99964761Y-97853809D01*
X98917142Y-98806190D02*
X98917142Y-99472857D01*
X99964761Y-99758571D02*
X99964761Y-98806190D01*
X97964761Y-98806190D01*
X97964761Y-99758571D01*
X98631428Y-100615714D02*
X99964761Y-100615714D01*
X98821904Y-100615714D02*
X98726666Y-100710952D01*
X98631428Y-100901428D01*
X98631428Y-101187142D01*
X98726666Y-101377619D01*
X98917142Y-101472857D01*
X99964761Y-101472857D01*
X98631428Y-103282380D02*
X100250476Y-103282380D01*
X100440952Y-103187142D01*
X100536190Y-103091904D01*
X100631428Y-102901428D01*
X100631428Y-102615714D01*
X100536190Y-102425238D01*
X99869523Y-103282380D02*
X99964761Y-103091904D01*
X99964761Y-102710952D01*
X99869523Y-102520476D01*
X99774285Y-102425238D01*
X99583809Y-102330000D01*
X99012380Y-102330000D01*
X98821904Y-102425238D01*
X98726666Y-102520476D01*
X98631428Y-102710952D01*
X98631428Y-103091904D01*
X98726666Y-103282380D01*
X99964761Y-104234761D02*
X98631428Y-104234761D01*
X97964761Y-104234761D02*
X98060000Y-104139523D01*
X98155238Y-104234761D01*
X98060000Y-104330000D01*
X97964761Y-104234761D01*
X98155238Y-104234761D01*
X98631428Y-105187142D02*
X99964761Y-105187142D01*
X98821904Y-105187142D02*
X98726666Y-105282380D01*
X98631428Y-105472857D01*
X98631428Y-105758571D01*
X98726666Y-105949047D01*
X98917142Y-106044285D01*
X99964761Y-106044285D01*
X99869523Y-107758571D02*
X99964761Y-107568095D01*
X99964761Y-107187142D01*
X99869523Y-106996666D01*
X99679047Y-106901428D01*
X98917142Y-106901428D01*
X98726666Y-106996666D01*
X98631428Y-107187142D01*
X98631428Y-107568095D01*
X98726666Y-107758571D01*
X98917142Y-107853809D01*
X99107619Y-107853809D01*
X99298095Y-106901428D01*
X99869523Y-109472857D02*
X99964761Y-109282380D01*
X99964761Y-108901428D01*
X99869523Y-108710952D01*
X99679047Y-108615714D01*
X98917142Y-108615714D01*
X98726666Y-108710952D01*
X98631428Y-108901428D01*
X98631428Y-109282380D01*
X98726666Y-109472857D01*
X98917142Y-109568095D01*
X99107619Y-109568095D01*
X99298095Y-108615714D01*
X99964761Y-110425238D02*
X98631428Y-110425238D01*
X99012380Y-110425238D02*
X98821904Y-110520476D01*
X98726666Y-110615714D01*
X98631428Y-110806190D01*
X98631428Y-110996666D01*
M02*
