%TF.GenerationSoftware,KiCad,Pcbnew,(5.99.0-9501-gd6b12eab50)*%
%TF.CreationDate,2021-02-28T09:53:11+01:00*%
%TF.ProjectId,audio-adapter,61756469-6f2d-4616-9461-707465722e6b,rev?*%
%TF.SameCoordinates,Original*%
%TF.FileFunction,Legend,Top*%
%TF.FilePolarity,Positive*%
%FSLAX46Y46*%
G04 Gerber Fmt 4.6, Leading zero omitted, Abs format (unit mm)*
G04 Created by KiCad (PCBNEW (5.99.0-9501-gd6b12eab50)) date 2021-02-28 09:53:11*
%MOMM*%
%LPD*%
G01*
G04 APERTURE LIST*
%ADD10C,0.300000*%
%ADD11C,0.150000*%
%ADD12C,0.010000*%
%ADD13C,0.120000*%
G04 APERTURE END LIST*
D10*
X99738571Y-112545714D02*
X98238571Y-112545714D01*
X99738571Y-111831428D02*
X98238571Y-111831428D01*
X99738571Y-110974285D01*
X98238571Y-110974285D01*
X98238571Y-90400000D02*
X98238571Y-90114285D01*
X98310000Y-89971428D01*
X98452857Y-89828571D01*
X98738571Y-89757142D01*
X99238571Y-89757142D01*
X99524285Y-89828571D01*
X99667142Y-89971428D01*
X99738571Y-90114285D01*
X99738571Y-90400000D01*
X99667142Y-90542857D01*
X99524285Y-90685714D01*
X99238571Y-90757142D01*
X98738571Y-90757142D01*
X98452857Y-90685714D01*
X98310000Y-90542857D01*
X98238571Y-90400000D01*
X98238571Y-89114285D02*
X99452857Y-89114285D01*
X99595714Y-89042857D01*
X99667142Y-88971428D01*
X99738571Y-88828571D01*
X99738571Y-88542857D01*
X99667142Y-88400000D01*
X99595714Y-88328571D01*
X99452857Y-88257142D01*
X98238571Y-88257142D01*
X98238571Y-87757142D02*
X98238571Y-86900000D01*
X99738571Y-87328571D02*
X98238571Y-87328571D01*
D11*
%TO.C,R1*%
X109053333Y-106512380D02*
X108720000Y-106036190D01*
X108481904Y-106512380D02*
X108481904Y-105512380D01*
X108862857Y-105512380D01*
X108958095Y-105560000D01*
X109005714Y-105607619D01*
X109053333Y-105702857D01*
X109053333Y-105845714D01*
X109005714Y-105940952D01*
X108958095Y-105988571D01*
X108862857Y-106036190D01*
X108481904Y-106036190D01*
X110005714Y-106512380D02*
X109434285Y-106512380D01*
X109720000Y-106512380D02*
X109720000Y-105512380D01*
X109624761Y-105655238D01*
X109529523Y-105750476D01*
X109434285Y-105798095D01*
%TO.C,J2*%
X120192380Y-112093333D02*
X120906666Y-112093333D01*
X121049523Y-112140952D01*
X121144761Y-112236190D01*
X121192380Y-112379047D01*
X121192380Y-112474285D01*
X120287619Y-111664761D02*
X120240000Y-111617142D01*
X120192380Y-111521904D01*
X120192380Y-111283809D01*
X120240000Y-111188571D01*
X120287619Y-111140952D01*
X120382857Y-111093333D01*
X120478095Y-111093333D01*
X120620952Y-111140952D01*
X121192380Y-111712380D01*
X121192380Y-111093333D01*
%TO.C,J3*%
X120202380Y-89333333D02*
X120916666Y-89333333D01*
X121059523Y-89380952D01*
X121154761Y-89476190D01*
X121202380Y-89619047D01*
X121202380Y-89714285D01*
X120202380Y-88952380D02*
X120202380Y-88333333D01*
X120583333Y-88666666D01*
X120583333Y-88523809D01*
X120630952Y-88428571D01*
X120678571Y-88380952D01*
X120773809Y-88333333D01*
X121011904Y-88333333D01*
X121107142Y-88380952D01*
X121154761Y-88428571D01*
X121202380Y-88523809D01*
X121202380Y-88809523D01*
X121154761Y-88904761D01*
X121107142Y-88952380D01*
%TO.C,Q1*%
X109124761Y-94777619D02*
X109029523Y-94730000D01*
X108934285Y-94634761D01*
X108791428Y-94491904D01*
X108696190Y-94444285D01*
X108600952Y-94444285D01*
X108648571Y-94682380D02*
X108553333Y-94634761D01*
X108458095Y-94539523D01*
X108410476Y-94349047D01*
X108410476Y-94015714D01*
X108458095Y-93825238D01*
X108553333Y-93730000D01*
X108648571Y-93682380D01*
X108839047Y-93682380D01*
X108934285Y-93730000D01*
X109029523Y-93825238D01*
X109077142Y-94015714D01*
X109077142Y-94349047D01*
X109029523Y-94539523D01*
X108934285Y-94634761D01*
X108839047Y-94682380D01*
X108648571Y-94682380D01*
X110029523Y-94682380D02*
X109458095Y-94682380D01*
X109743809Y-94682380D02*
X109743809Y-93682380D01*
X109648571Y-93825238D01*
X109553333Y-93920476D01*
X109458095Y-93968095D01*
D12*
%TO.C,REF\u002A\u002A*%
X97572348Y-98956090D02*
X97572778Y-98877546D01*
X97572778Y-98877546D02*
X97573942Y-98820702D01*
X97573942Y-98820702D02*
X97576207Y-98781895D01*
X97576207Y-98781895D02*
X97579940Y-98757462D01*
X97579940Y-98757462D02*
X97585506Y-98743738D01*
X97585506Y-98743738D02*
X97593273Y-98737060D01*
X97593273Y-98737060D02*
X97603605Y-98733764D01*
X97603605Y-98733764D02*
X97604943Y-98733444D01*
X97604943Y-98733444D02*
X97629079Y-98728438D01*
X97629079Y-98728438D02*
X97676701Y-98719171D01*
X97676701Y-98719171D02*
X97742741Y-98706608D01*
X97742741Y-98706608D02*
X97822128Y-98691713D01*
X97822128Y-98691713D02*
X97909796Y-98675449D01*
X97909796Y-98675449D02*
X97912875Y-98674881D01*
X97912875Y-98674881D02*
X97998789Y-98658590D01*
X97998789Y-98658590D02*
X98074696Y-98643348D01*
X98074696Y-98643348D02*
X98136045Y-98630139D01*
X98136045Y-98630139D02*
X98178282Y-98619946D01*
X98178282Y-98619946D02*
X98196855Y-98613752D01*
X98196855Y-98613752D02*
X98197184Y-98613457D01*
X98197184Y-98613457D02*
X98206253Y-98595212D01*
X98206253Y-98595212D02*
X98221367Y-98557595D01*
X98221367Y-98557595D02*
X98239262Y-98508729D01*
X98239262Y-98508729D02*
X98239358Y-98508457D01*
X98239358Y-98508457D02*
X98262493Y-98446907D01*
X98262493Y-98446907D02*
X98291965Y-98374343D01*
X98291965Y-98374343D02*
X98321597Y-98305943D01*
X98321597Y-98305943D02*
X98323062Y-98302706D01*
X98323062Y-98302706D02*
X98373626Y-98191298D01*
X98373626Y-98191298D02*
X98205160Y-97944601D01*
X98205160Y-97944601D02*
X98153803Y-97868923D01*
X98153803Y-97868923D02*
X98107889Y-97800369D01*
X98107889Y-97800369D02*
X98070030Y-97742912D01*
X98070030Y-97742912D02*
X98042837Y-97700524D01*
X98042837Y-97700524D02*
X98028921Y-97677175D01*
X98028921Y-97677175D02*
X98027889Y-97674958D01*
X98027889Y-97674958D02*
X98032484Y-97657990D01*
X98032484Y-97657990D02*
X98054655Y-97626299D01*
X98054655Y-97626299D02*
X98095447Y-97578648D01*
X98095447Y-97578648D02*
X98155905Y-97513802D01*
X98155905Y-97513802D02*
X98220227Y-97447603D01*
X98220227Y-97447603D02*
X98283612Y-97383786D01*
X98283612Y-97383786D02*
X98341451Y-97326671D01*
X98341451Y-97326671D02*
X98390175Y-97279695D01*
X98390175Y-97279695D02*
X98426210Y-97246297D01*
X98426210Y-97246297D02*
X98445984Y-97229915D01*
X98445984Y-97229915D02*
X98447002Y-97229306D01*
X98447002Y-97229306D02*
X98460572Y-97227495D01*
X98460572Y-97227495D02*
X98482733Y-97234317D01*
X98482733Y-97234317D02*
X98516478Y-97251460D01*
X98516478Y-97251460D02*
X98564800Y-97280607D01*
X98564800Y-97280607D02*
X98630692Y-97323445D01*
X98630692Y-97323445D02*
X98715517Y-97380552D01*
X98715517Y-97380552D02*
X98790177Y-97431234D01*
X98790177Y-97431234D02*
X98857140Y-97476539D01*
X98857140Y-97476539D02*
X98912516Y-97513850D01*
X98912516Y-97513850D02*
X98952420Y-97540548D01*
X98952420Y-97540548D02*
X98972962Y-97554015D01*
X98972962Y-97554015D02*
X98974356Y-97554863D01*
X98974356Y-97554863D02*
X98994038Y-97553219D01*
X98994038Y-97553219D02*
X99032293Y-97540755D01*
X99032293Y-97540755D02*
X99081889Y-97519952D01*
X99081889Y-97519952D02*
X99097728Y-97512538D01*
X99097728Y-97512538D02*
X99168290Y-97480186D01*
X99168290Y-97480186D02*
X99248353Y-97445672D01*
X99248353Y-97445672D02*
X99317629Y-97417635D01*
X99317629Y-97417635D02*
X99369045Y-97397432D01*
X99369045Y-97397432D02*
X99408119Y-97381385D01*
X99408119Y-97381385D02*
X99428541Y-97372112D01*
X99428541Y-97372112D02*
X99430114Y-97370959D01*
X99430114Y-97370959D02*
X99432721Y-97353904D01*
X99432721Y-97353904D02*
X99439863Y-97313702D01*
X99439863Y-97313702D02*
X99450523Y-97255698D01*
X99450523Y-97255698D02*
X99463685Y-97185237D01*
X99463685Y-97185237D02*
X99478333Y-97107665D01*
X99478333Y-97107665D02*
X99493449Y-97028328D01*
X99493449Y-97028328D02*
X99508018Y-96952569D01*
X99508018Y-96952569D02*
X99521022Y-96885736D01*
X99521022Y-96885736D02*
X99531445Y-96833172D01*
X99531445Y-96833172D02*
X99538270Y-96800224D01*
X99538270Y-96800224D02*
X99540199Y-96792143D01*
X99540199Y-96792143D02*
X99544962Y-96783795D01*
X99544962Y-96783795D02*
X99555718Y-96777494D01*
X99555718Y-96777494D02*
X99576098Y-96772955D01*
X99576098Y-96772955D02*
X99609734Y-96769896D01*
X99609734Y-96769896D02*
X99660255Y-96768033D01*
X99660255Y-96768033D02*
X99731292Y-96767082D01*
X99731292Y-96767082D02*
X99826476Y-96766760D01*
X99826476Y-96766760D02*
X99865492Y-96766743D01*
X99865492Y-96766743D02*
X100182799Y-96766743D01*
X100182799Y-96766743D02*
X100197839Y-96842943D01*
X100197839Y-96842943D02*
X100205995Y-96885337D01*
X100205995Y-96885337D02*
X100217899Y-96948600D01*
X100217899Y-96948600D02*
X100232116Y-97025038D01*
X100232116Y-97025038D02*
X100247210Y-97106957D01*
X100247210Y-97106957D02*
X100251355Y-97129600D01*
X100251355Y-97129600D02*
X100266053Y-97205194D01*
X100266053Y-97205194D02*
X100280505Y-97271047D01*
X100280505Y-97271047D02*
X100293375Y-97321634D01*
X100293375Y-97321634D02*
X100303322Y-97351426D01*
X100303322Y-97351426D02*
X100306287Y-97356388D01*
X100306287Y-97356388D02*
X100327283Y-97368574D01*
X100327283Y-97368574D02*
X100367967Y-97386047D01*
X100367967Y-97386047D02*
X100420322Y-97405423D01*
X100420322Y-97405423D02*
X100431600Y-97409266D01*
X100431600Y-97409266D02*
X100501523Y-97434661D01*
X100501523Y-97434661D02*
X100580418Y-97466183D01*
X100580418Y-97466183D02*
X100651266Y-97497031D01*
X100651266Y-97497031D02*
X100651595Y-97497183D01*
X100651595Y-97497183D02*
X100762733Y-97548553D01*
X100762733Y-97548553D02*
X101011253Y-97379601D01*
X101011253Y-97379601D02*
X101259772Y-97210648D01*
X101259772Y-97210648D02*
X101477058Y-97427571D01*
X101477058Y-97427571D02*
X101541726Y-97493181D01*
X101541726Y-97493181D02*
X101598733Y-97553021D01*
X101598733Y-97553021D02*
X101645033Y-97603733D01*
X101645033Y-97603733D02*
X101677584Y-97641954D01*
X101677584Y-97641954D02*
X101693343Y-97664325D01*
X101693343Y-97664325D02*
X101694343Y-97667534D01*
X101694343Y-97667534D02*
X101686469Y-97686374D01*
X101686469Y-97686374D02*
X101664578Y-97724820D01*
X101664578Y-97724820D02*
X101631267Y-97778670D01*
X101631267Y-97778670D02*
X101589131Y-97843724D01*
X101589131Y-97843724D02*
X101541943Y-97914060D01*
X101541943Y-97914060D02*
X101493810Y-97985445D01*
X101493810Y-97985445D02*
X101451928Y-98049092D01*
X101451928Y-98049092D02*
X101418871Y-98100959D01*
X101418871Y-98100959D02*
X101397218Y-98137005D01*
X101397218Y-98137005D02*
X101389543Y-98153133D01*
X101389543Y-98153133D02*
X101396037Y-98172811D01*
X101396037Y-98172811D02*
X101413150Y-98210125D01*
X101413150Y-98210125D02*
X101437326Y-98257379D01*
X101437326Y-98257379D02*
X101440013Y-98262388D01*
X101440013Y-98262388D02*
X101471927Y-98326023D01*
X101471927Y-98326023D02*
X101487579Y-98369659D01*
X101487579Y-98369659D02*
X101487745Y-98396798D01*
X101487745Y-98396798D02*
X101473204Y-98410943D01*
X101473204Y-98410943D02*
X101473000Y-98411025D01*
X101473000Y-98411025D02*
X101455779Y-98418095D01*
X101455779Y-98418095D02*
X101414899Y-98434958D01*
X101414899Y-98434958D02*
X101353525Y-98460305D01*
X101353525Y-98460305D02*
X101274819Y-98492829D01*
X101274819Y-98492829D02*
X101181947Y-98531222D01*
X101181947Y-98531222D02*
X101078072Y-98574178D01*
X101078072Y-98574178D02*
X100977502Y-98615778D01*
X100977502Y-98615778D02*
X100866516Y-98661496D01*
X100866516Y-98661496D02*
X100763703Y-98703474D01*
X100763703Y-98703474D02*
X100672215Y-98740452D01*
X100672215Y-98740452D02*
X100595201Y-98771173D01*
X100595201Y-98771173D02*
X100535815Y-98794378D01*
X100535815Y-98794378D02*
X100497209Y-98808810D01*
X100497209Y-98808810D02*
X100482800Y-98813257D01*
X100482800Y-98813257D02*
X100466272Y-98802104D01*
X100466272Y-98802104D02*
X100439930Y-98772931D01*
X100439930Y-98772931D02*
X100410887Y-98734029D01*
X100410887Y-98734029D02*
X100319039Y-98623243D01*
X100319039Y-98623243D02*
X100213759Y-98536649D01*
X100213759Y-98536649D02*
X100097266Y-98475284D01*
X100097266Y-98475284D02*
X99971776Y-98440185D01*
X99971776Y-98440185D02*
X99839507Y-98432392D01*
X99839507Y-98432392D02*
X99778457Y-98438057D01*
X99778457Y-98438057D02*
X99651795Y-98468922D01*
X99651795Y-98468922D02*
X99539941Y-98522080D01*
X99539941Y-98522080D02*
X99444001Y-98594233D01*
X99444001Y-98594233D02*
X99365076Y-98682083D01*
X99365076Y-98682083D02*
X99304270Y-98782335D01*
X99304270Y-98782335D02*
X99262687Y-98891690D01*
X99262687Y-98891690D02*
X99241428Y-99006853D01*
X99241428Y-99006853D02*
X99241599Y-99124525D01*
X99241599Y-99124525D02*
X99264301Y-99241410D01*
X99264301Y-99241410D02*
X99310638Y-99354211D01*
X99310638Y-99354211D02*
X99381713Y-99459631D01*
X99381713Y-99459631D02*
X99421911Y-99503632D01*
X99421911Y-99503632D02*
X99525129Y-99588021D01*
X99525129Y-99588021D02*
X99637925Y-99646778D01*
X99637925Y-99646778D02*
X99757010Y-99680296D01*
X99757010Y-99680296D02*
X99879095Y-99688965D01*
X99879095Y-99688965D02*
X100000893Y-99673177D01*
X100000893Y-99673177D02*
X100119116Y-99633322D01*
X100119116Y-99633322D02*
X100230475Y-99569793D01*
X100230475Y-99569793D02*
X100331684Y-99482979D01*
X100331684Y-99482979D02*
X100410887Y-99385971D01*
X100410887Y-99385971D02*
X100441162Y-99345563D01*
X100441162Y-99345563D02*
X100467219Y-99317018D01*
X100467219Y-99317018D02*
X100482825Y-99306743D01*
X100482825Y-99306743D02*
X100499843Y-99312123D01*
X100499843Y-99312123D02*
X100540500Y-99327425D01*
X100540500Y-99327425D02*
X100601642Y-99351388D01*
X100601642Y-99351388D02*
X100680119Y-99382756D01*
X100680119Y-99382756D02*
X100772780Y-99420268D01*
X100772780Y-99420268D02*
X100876472Y-99462667D01*
X100876472Y-99462667D02*
X100977526Y-99504337D01*
X100977526Y-99504337D02*
X101088607Y-99550310D01*
X101088607Y-99550310D02*
X101191541Y-99592893D01*
X101191541Y-99592893D02*
X101283165Y-99630779D01*
X101283165Y-99630779D02*
X101360316Y-99662660D01*
X101360316Y-99662660D02*
X101419831Y-99687229D01*
X101419831Y-99687229D02*
X101458544Y-99703180D01*
X101458544Y-99703180D02*
X101473000Y-99709090D01*
X101473000Y-99709090D02*
X101487685Y-99723052D01*
X101487685Y-99723052D02*
X101487642Y-99750060D01*
X101487642Y-99750060D02*
X101472099Y-99793587D01*
X101472099Y-99793587D02*
X101440284Y-99857110D01*
X101440284Y-99857110D02*
X101440013Y-99857612D01*
X101440013Y-99857612D02*
X101415323Y-99905440D01*
X101415323Y-99905440D02*
X101397338Y-99944103D01*
X101397338Y-99944103D02*
X101389614Y-99965905D01*
X101389614Y-99965905D02*
X101389543Y-99966867D01*
X101389543Y-99966867D02*
X101397378Y-99983279D01*
X101397378Y-99983279D02*
X101419165Y-100019513D01*
X101419165Y-100019513D02*
X101452328Y-100071526D01*
X101452328Y-100071526D02*
X101494291Y-100135275D01*
X101494291Y-100135275D02*
X101541943Y-100205940D01*
X101541943Y-100205940D02*
X101590191Y-100277884D01*
X101590191Y-100277884D02*
X101632151Y-100342726D01*
X101632151Y-100342726D02*
X101665227Y-100396265D01*
X101665227Y-100396265D02*
X101686821Y-100434303D01*
X101686821Y-100434303D02*
X101694343Y-100452467D01*
X101694343Y-100452467D02*
X101684457Y-100469192D01*
X101684457Y-100469192D02*
X101656826Y-100502820D01*
X101656826Y-100502820D02*
X101614495Y-100549990D01*
X101614495Y-100549990D02*
X101560505Y-100607342D01*
X101560505Y-100607342D02*
X101497899Y-100671516D01*
X101497899Y-100671516D02*
X101476983Y-100692503D01*
X101476983Y-100692503D02*
X101259623Y-100909501D01*
X101259623Y-100909501D02*
X101017220Y-100744332D01*
X101017220Y-100744332D02*
X100942781Y-100694136D01*
X100942781Y-100694136D02*
X100875972Y-100650081D01*
X100875972Y-100650081D02*
X100820665Y-100614638D01*
X100820665Y-100614638D02*
X100780729Y-100590281D01*
X100780729Y-100590281D02*
X100760036Y-100579478D01*
X100760036Y-100579478D02*
X100758563Y-100579162D01*
X100758563Y-100579162D02*
X100739058Y-100584857D01*
X100739058Y-100584857D02*
X100699822Y-100600174D01*
X100699822Y-100600174D02*
X100647430Y-100622463D01*
X100647430Y-100622463D02*
X100612355Y-100638107D01*
X100612355Y-100638107D02*
X100545201Y-100667359D01*
X100545201Y-100667359D02*
X100477358Y-100694906D01*
X100477358Y-100694906D02*
X100420034Y-100716263D01*
X100420034Y-100716263D02*
X100402572Y-100722065D01*
X100402572Y-100722065D02*
X100355938Y-100738548D01*
X100355938Y-100738548D02*
X100319905Y-100754660D01*
X100319905Y-100754660D02*
X100306287Y-100763510D01*
X100306287Y-100763510D02*
X100297952Y-100783040D01*
X100297952Y-100783040D02*
X100286137Y-100825666D01*
X100286137Y-100825666D02*
X100272181Y-100885855D01*
X100272181Y-100885855D02*
X100257422Y-100958078D01*
X100257422Y-100958078D02*
X100251355Y-100990400D01*
X100251355Y-100990400D02*
X100236273Y-101072478D01*
X100236273Y-101072478D02*
X100221669Y-101151205D01*
X100221669Y-101151205D02*
X100208980Y-101218891D01*
X100208980Y-101218891D02*
X100199642Y-101267840D01*
X100199642Y-101267840D02*
X100197839Y-101277057D01*
X100197839Y-101277057D02*
X100182799Y-101353257D01*
X100182799Y-101353257D02*
X99865492Y-101353257D01*
X99865492Y-101353257D02*
X99761154Y-101353086D01*
X99761154Y-101353086D02*
X99682213Y-101352384D01*
X99682213Y-101352384D02*
X99625038Y-101350866D01*
X99625038Y-101350866D02*
X99585999Y-101348251D01*
X99585999Y-101348251D02*
X99561465Y-101344254D01*
X99561465Y-101344254D02*
X99547805Y-101338591D01*
X99547805Y-101338591D02*
X99541389Y-101330980D01*
X99541389Y-101330980D02*
X99540199Y-101327857D01*
X99540199Y-101327857D02*
X99535980Y-101309022D01*
X99535980Y-101309022D02*
X99527562Y-101267412D01*
X99527562Y-101267412D02*
X99515961Y-101208370D01*
X99515961Y-101208370D02*
X99502195Y-101137243D01*
X99502195Y-101137243D02*
X99487280Y-101059375D01*
X99487280Y-101059375D02*
X99472232Y-100980113D01*
X99472232Y-100980113D02*
X99458069Y-100904802D01*
X99458069Y-100904802D02*
X99445806Y-100838787D01*
X99445806Y-100838787D02*
X99436461Y-100787413D01*
X99436461Y-100787413D02*
X99431050Y-100756025D01*
X99431050Y-100756025D02*
X99430114Y-100749041D01*
X99430114Y-100749041D02*
X99417596Y-100742715D01*
X99417596Y-100742715D02*
X99384246Y-100728710D01*
X99384246Y-100728710D02*
X99336377Y-100709645D01*
X99336377Y-100709645D02*
X99317629Y-100702366D01*
X99317629Y-100702366D02*
X99245195Y-100673004D01*
X99245195Y-100673004D02*
X99165170Y-100638429D01*
X99165170Y-100638429D02*
X99097728Y-100607463D01*
X99097728Y-100607463D02*
X99046159Y-100584677D01*
X99046159Y-100584677D02*
X99003785Y-100569518D01*
X99003785Y-100569518D02*
X98977834Y-100564458D01*
X98977834Y-100564458D02*
X98974356Y-100565264D01*
X98974356Y-100565264D02*
X98957936Y-100575959D01*
X98957936Y-100575959D02*
X98921417Y-100600380D01*
X98921417Y-100600380D02*
X98868687Y-100635905D01*
X98868687Y-100635905D02*
X98803635Y-100679913D01*
X98803635Y-100679913D02*
X98730151Y-100729783D01*
X98730151Y-100729783D02*
X98715645Y-100739644D01*
X98715645Y-100739644D02*
X98629704Y-100797508D01*
X98629704Y-100797508D02*
X98564261Y-100840044D01*
X98564261Y-100840044D02*
X98516304Y-100868946D01*
X98516304Y-100868946D02*
X98482820Y-100885910D01*
X98482820Y-100885910D02*
X98460795Y-100892633D01*
X98460795Y-100892633D02*
X98447217Y-100890810D01*
X98447217Y-100890810D02*
X98447131Y-100890764D01*
X98447131Y-100890764D02*
X98429297Y-100876414D01*
X98429297Y-100876414D02*
X98394817Y-100844677D01*
X98394817Y-100844677D02*
X98347268Y-100798990D01*
X98347268Y-100798990D02*
X98290222Y-100742796D01*
X98290222Y-100742796D02*
X98227255Y-100679532D01*
X98227255Y-100679532D02*
X98220227Y-100672398D01*
X98220227Y-100672398D02*
X98143020Y-100592670D01*
X98143020Y-100592670D02*
X98086330Y-100531143D01*
X98086330Y-100531143D02*
X98049110Y-100486579D01*
X98049110Y-100486579D02*
X98030315Y-100457743D01*
X98030315Y-100457743D02*
X98027889Y-100445042D01*
X98027889Y-100445042D02*
X98038471Y-100426506D01*
X98038471Y-100426506D02*
X98062916Y-100388039D01*
X98062916Y-100388039D02*
X98098612Y-100333614D01*
X98098612Y-100333614D02*
X98142947Y-100267202D01*
X98142947Y-100267202D02*
X98193311Y-100192775D01*
X98193311Y-100192775D02*
X98205160Y-100175399D01*
X98205160Y-100175399D02*
X98373626Y-99928703D01*
X98373626Y-99928703D02*
X98323062Y-99817294D01*
X98323062Y-99817294D02*
X98293595Y-99749543D01*
X98293595Y-99749543D02*
X98263959Y-99676817D01*
X98263959Y-99676817D02*
X98240330Y-99614297D01*
X98240330Y-99614297D02*
X98239358Y-99611543D01*
X98239358Y-99611543D02*
X98221457Y-99562640D01*
X98221457Y-99562640D02*
X98206320Y-99524943D01*
X98206320Y-99524943D02*
X98197210Y-99506575D01*
X98197210Y-99506575D02*
X98197184Y-99506544D01*
X98197184Y-99506544D02*
X98180717Y-99500715D01*
X98180717Y-99500715D02*
X98140219Y-99490808D01*
X98140219Y-99490808D02*
X98080242Y-99477805D01*
X98080242Y-99477805D02*
X98005340Y-99462691D01*
X98005340Y-99462691D02*
X97920064Y-99446448D01*
X97920064Y-99446448D02*
X97912875Y-99445119D01*
X97912875Y-99445119D02*
X97825014Y-99428825D01*
X97825014Y-99428825D02*
X97745260Y-99413867D01*
X97745260Y-99413867D02*
X97678681Y-99401209D01*
X97678681Y-99401209D02*
X97630347Y-99391814D01*
X97630347Y-99391814D02*
X97605325Y-99386646D01*
X97605325Y-99386646D02*
X97604943Y-99386556D01*
X97604943Y-99386556D02*
X97594299Y-99383411D01*
X97594299Y-99383411D02*
X97586262Y-99377296D01*
X97586262Y-99377296D02*
X97580467Y-99364547D01*
X97580467Y-99364547D02*
X97576547Y-99341500D01*
X97576547Y-99341500D02*
X97574135Y-99304491D01*
X97574135Y-99304491D02*
X97572865Y-99249856D01*
X97572865Y-99249856D02*
X97572371Y-99173933D01*
X97572371Y-99173933D02*
X97572286Y-99073056D01*
X97572286Y-99073056D02*
X97572286Y-99060000D01*
X97572286Y-99060000D02*
X97572348Y-98956090D01*
X97572348Y-98956090D02*
X97572348Y-98956090D01*
G36*
X100197839Y-96842943D02*
G01*
X100205995Y-96885337D01*
X100217899Y-96948600D01*
X100232116Y-97025038D01*
X100247210Y-97106957D01*
X100251355Y-97129600D01*
X100266053Y-97205194D01*
X100280505Y-97271047D01*
X100293375Y-97321634D01*
X100303322Y-97351426D01*
X100306287Y-97356388D01*
X100327283Y-97368574D01*
X100367967Y-97386047D01*
X100420322Y-97405423D01*
X100431600Y-97409266D01*
X100501523Y-97434661D01*
X100580418Y-97466183D01*
X100651266Y-97497031D01*
X100651595Y-97497183D01*
X100762733Y-97548553D01*
X101011253Y-97379601D01*
X101259772Y-97210648D01*
X101477058Y-97427571D01*
X101541726Y-97493181D01*
X101598733Y-97553021D01*
X101645033Y-97603733D01*
X101677584Y-97641954D01*
X101693343Y-97664325D01*
X101694343Y-97667534D01*
X101686469Y-97686374D01*
X101664578Y-97724820D01*
X101631267Y-97778670D01*
X101589131Y-97843724D01*
X101541943Y-97914060D01*
X101493810Y-97985445D01*
X101451928Y-98049092D01*
X101418871Y-98100959D01*
X101397218Y-98137005D01*
X101389543Y-98153133D01*
X101396037Y-98172811D01*
X101413150Y-98210125D01*
X101437326Y-98257379D01*
X101440013Y-98262388D01*
X101471927Y-98326023D01*
X101487579Y-98369659D01*
X101487745Y-98396798D01*
X101473204Y-98410943D01*
X101473000Y-98411025D01*
X101455779Y-98418095D01*
X101414899Y-98434958D01*
X101353525Y-98460305D01*
X101274819Y-98492829D01*
X101181947Y-98531222D01*
X101078072Y-98574178D01*
X100977502Y-98615778D01*
X100866516Y-98661496D01*
X100763703Y-98703474D01*
X100672215Y-98740452D01*
X100595201Y-98771173D01*
X100535815Y-98794378D01*
X100497209Y-98808810D01*
X100482800Y-98813257D01*
X100466272Y-98802104D01*
X100439930Y-98772931D01*
X100410887Y-98734029D01*
X100319039Y-98623243D01*
X100213759Y-98536649D01*
X100097266Y-98475284D01*
X99971776Y-98440185D01*
X99839507Y-98432392D01*
X99778457Y-98438057D01*
X99651795Y-98468922D01*
X99539941Y-98522080D01*
X99444001Y-98594233D01*
X99365076Y-98682083D01*
X99304270Y-98782335D01*
X99262687Y-98891690D01*
X99241428Y-99006853D01*
X99241599Y-99124525D01*
X99264301Y-99241410D01*
X99310638Y-99354211D01*
X99381713Y-99459631D01*
X99421911Y-99503632D01*
X99525129Y-99588021D01*
X99637925Y-99646778D01*
X99757010Y-99680296D01*
X99879095Y-99688965D01*
X100000893Y-99673177D01*
X100119116Y-99633322D01*
X100230475Y-99569793D01*
X100331684Y-99482979D01*
X100410887Y-99385971D01*
X100441162Y-99345563D01*
X100467219Y-99317018D01*
X100482825Y-99306743D01*
X100499843Y-99312123D01*
X100540500Y-99327425D01*
X100601642Y-99351388D01*
X100680119Y-99382756D01*
X100772780Y-99420268D01*
X100876472Y-99462667D01*
X100977526Y-99504337D01*
X101088607Y-99550310D01*
X101191541Y-99592893D01*
X101283165Y-99630779D01*
X101360316Y-99662660D01*
X101419831Y-99687229D01*
X101458544Y-99703180D01*
X101473000Y-99709090D01*
X101487685Y-99723052D01*
X101487642Y-99750060D01*
X101472099Y-99793587D01*
X101440284Y-99857110D01*
X101440013Y-99857612D01*
X101415323Y-99905440D01*
X101397338Y-99944103D01*
X101389614Y-99965905D01*
X101389543Y-99966867D01*
X101397378Y-99983279D01*
X101419165Y-100019513D01*
X101452328Y-100071526D01*
X101494291Y-100135275D01*
X101541943Y-100205940D01*
X101590191Y-100277884D01*
X101632151Y-100342726D01*
X101665227Y-100396265D01*
X101686821Y-100434303D01*
X101694343Y-100452467D01*
X101684457Y-100469192D01*
X101656826Y-100502820D01*
X101614495Y-100549990D01*
X101560505Y-100607342D01*
X101497899Y-100671516D01*
X101476983Y-100692503D01*
X101259623Y-100909501D01*
X101017220Y-100744332D01*
X100942781Y-100694136D01*
X100875972Y-100650081D01*
X100820665Y-100614638D01*
X100780729Y-100590281D01*
X100760036Y-100579478D01*
X100758563Y-100579162D01*
X100739058Y-100584857D01*
X100699822Y-100600174D01*
X100647430Y-100622463D01*
X100612355Y-100638107D01*
X100545201Y-100667359D01*
X100477358Y-100694906D01*
X100420034Y-100716263D01*
X100402572Y-100722065D01*
X100355938Y-100738548D01*
X100319905Y-100754660D01*
X100306287Y-100763510D01*
X100297952Y-100783040D01*
X100286137Y-100825666D01*
X100272181Y-100885855D01*
X100257422Y-100958078D01*
X100251355Y-100990400D01*
X100236273Y-101072478D01*
X100221669Y-101151205D01*
X100208980Y-101218891D01*
X100199642Y-101267840D01*
X100197839Y-101277057D01*
X100182799Y-101353257D01*
X99865492Y-101353257D01*
X99761154Y-101353086D01*
X99682213Y-101352384D01*
X99625038Y-101350866D01*
X99585999Y-101348251D01*
X99561465Y-101344254D01*
X99547805Y-101338591D01*
X99541389Y-101330980D01*
X99540199Y-101327857D01*
X99535980Y-101309022D01*
X99527562Y-101267412D01*
X99515961Y-101208370D01*
X99502195Y-101137243D01*
X99487280Y-101059375D01*
X99472232Y-100980113D01*
X99458069Y-100904802D01*
X99445806Y-100838787D01*
X99436461Y-100787413D01*
X99431050Y-100756025D01*
X99430114Y-100749041D01*
X99417596Y-100742715D01*
X99384246Y-100728710D01*
X99336377Y-100709645D01*
X99317629Y-100702366D01*
X99245195Y-100673004D01*
X99165170Y-100638429D01*
X99097728Y-100607463D01*
X99046159Y-100584677D01*
X99003785Y-100569518D01*
X98977834Y-100564458D01*
X98974356Y-100565264D01*
X98957936Y-100575959D01*
X98921417Y-100600380D01*
X98868687Y-100635905D01*
X98803635Y-100679913D01*
X98730151Y-100729783D01*
X98715645Y-100739644D01*
X98629704Y-100797508D01*
X98564261Y-100840044D01*
X98516304Y-100868946D01*
X98482820Y-100885910D01*
X98460795Y-100892633D01*
X98447217Y-100890810D01*
X98447131Y-100890764D01*
X98429297Y-100876414D01*
X98394817Y-100844677D01*
X98347268Y-100798990D01*
X98290222Y-100742796D01*
X98227255Y-100679532D01*
X98220227Y-100672398D01*
X98143020Y-100592670D01*
X98086330Y-100531143D01*
X98049110Y-100486579D01*
X98030315Y-100457743D01*
X98027889Y-100445042D01*
X98038471Y-100426506D01*
X98062916Y-100388039D01*
X98098612Y-100333614D01*
X98142947Y-100267202D01*
X98193311Y-100192775D01*
X98205160Y-100175399D01*
X98373626Y-99928703D01*
X98323062Y-99817294D01*
X98293595Y-99749543D01*
X98263959Y-99676817D01*
X98240330Y-99614297D01*
X98239358Y-99611543D01*
X98221457Y-99562640D01*
X98206320Y-99524943D01*
X98197210Y-99506575D01*
X98197184Y-99506544D01*
X98180717Y-99500715D01*
X98140219Y-99490808D01*
X98080242Y-99477805D01*
X98005340Y-99462691D01*
X97920064Y-99446448D01*
X97912875Y-99445119D01*
X97825014Y-99428825D01*
X97745260Y-99413867D01*
X97678681Y-99401209D01*
X97630347Y-99391814D01*
X97605325Y-99386646D01*
X97604943Y-99386556D01*
X97594299Y-99383411D01*
X97586262Y-99377296D01*
X97580467Y-99364547D01*
X97576547Y-99341500D01*
X97574135Y-99304491D01*
X97572865Y-99249856D01*
X97572371Y-99173933D01*
X97572286Y-99073056D01*
X97572286Y-99060000D01*
X97572348Y-98956090D01*
X97572778Y-98877546D01*
X97573942Y-98820702D01*
X97576207Y-98781895D01*
X97579940Y-98757462D01*
X97585506Y-98743738D01*
X97593273Y-98737060D01*
X97603605Y-98733764D01*
X97604943Y-98733444D01*
X97629079Y-98728438D01*
X97676701Y-98719171D01*
X97742741Y-98706608D01*
X97822128Y-98691713D01*
X97909796Y-98675449D01*
X97912875Y-98674881D01*
X97998789Y-98658590D01*
X98074696Y-98643348D01*
X98136045Y-98630139D01*
X98178282Y-98619946D01*
X98196855Y-98613752D01*
X98197184Y-98613457D01*
X98206253Y-98595212D01*
X98221367Y-98557595D01*
X98239262Y-98508729D01*
X98239358Y-98508457D01*
X98262493Y-98446907D01*
X98291965Y-98374343D01*
X98321597Y-98305943D01*
X98323062Y-98302706D01*
X98373626Y-98191298D01*
X98205160Y-97944601D01*
X98153803Y-97868923D01*
X98107889Y-97800369D01*
X98070030Y-97742912D01*
X98042837Y-97700524D01*
X98028921Y-97677175D01*
X98027889Y-97674958D01*
X98032484Y-97657990D01*
X98054655Y-97626299D01*
X98095447Y-97578648D01*
X98155905Y-97513802D01*
X98220227Y-97447603D01*
X98283612Y-97383786D01*
X98341451Y-97326671D01*
X98390175Y-97279695D01*
X98426210Y-97246297D01*
X98445984Y-97229915D01*
X98447002Y-97229306D01*
X98460572Y-97227495D01*
X98482733Y-97234317D01*
X98516478Y-97251460D01*
X98564800Y-97280607D01*
X98630692Y-97323445D01*
X98715517Y-97380552D01*
X98790177Y-97431234D01*
X98857140Y-97476539D01*
X98912516Y-97513850D01*
X98952420Y-97540548D01*
X98972962Y-97554015D01*
X98974356Y-97554863D01*
X98994038Y-97553219D01*
X99032293Y-97540755D01*
X99081889Y-97519952D01*
X99097728Y-97512538D01*
X99168290Y-97480186D01*
X99248353Y-97445672D01*
X99317629Y-97417635D01*
X99369045Y-97397432D01*
X99408119Y-97381385D01*
X99428541Y-97372112D01*
X99430114Y-97370959D01*
X99432721Y-97353904D01*
X99439863Y-97313702D01*
X99450523Y-97255698D01*
X99463685Y-97185237D01*
X99478333Y-97107665D01*
X99493449Y-97028328D01*
X99508018Y-96952569D01*
X99521022Y-96885736D01*
X99531445Y-96833172D01*
X99538270Y-96800224D01*
X99540199Y-96792143D01*
X99544962Y-96783795D01*
X99555718Y-96777494D01*
X99576098Y-96772955D01*
X99609734Y-96769896D01*
X99660255Y-96768033D01*
X99731292Y-96767082D01*
X99826476Y-96766760D01*
X99865492Y-96766743D01*
X100182799Y-96766743D01*
X100197839Y-96842943D01*
G37*
X100197839Y-96842943D02*
X100205995Y-96885337D01*
X100217899Y-96948600D01*
X100232116Y-97025038D01*
X100247210Y-97106957D01*
X100251355Y-97129600D01*
X100266053Y-97205194D01*
X100280505Y-97271047D01*
X100293375Y-97321634D01*
X100303322Y-97351426D01*
X100306287Y-97356388D01*
X100327283Y-97368574D01*
X100367967Y-97386047D01*
X100420322Y-97405423D01*
X100431600Y-97409266D01*
X100501523Y-97434661D01*
X100580418Y-97466183D01*
X100651266Y-97497031D01*
X100651595Y-97497183D01*
X100762733Y-97548553D01*
X101011253Y-97379601D01*
X101259772Y-97210648D01*
X101477058Y-97427571D01*
X101541726Y-97493181D01*
X101598733Y-97553021D01*
X101645033Y-97603733D01*
X101677584Y-97641954D01*
X101693343Y-97664325D01*
X101694343Y-97667534D01*
X101686469Y-97686374D01*
X101664578Y-97724820D01*
X101631267Y-97778670D01*
X101589131Y-97843724D01*
X101541943Y-97914060D01*
X101493810Y-97985445D01*
X101451928Y-98049092D01*
X101418871Y-98100959D01*
X101397218Y-98137005D01*
X101389543Y-98153133D01*
X101396037Y-98172811D01*
X101413150Y-98210125D01*
X101437326Y-98257379D01*
X101440013Y-98262388D01*
X101471927Y-98326023D01*
X101487579Y-98369659D01*
X101487745Y-98396798D01*
X101473204Y-98410943D01*
X101473000Y-98411025D01*
X101455779Y-98418095D01*
X101414899Y-98434958D01*
X101353525Y-98460305D01*
X101274819Y-98492829D01*
X101181947Y-98531222D01*
X101078072Y-98574178D01*
X100977502Y-98615778D01*
X100866516Y-98661496D01*
X100763703Y-98703474D01*
X100672215Y-98740452D01*
X100595201Y-98771173D01*
X100535815Y-98794378D01*
X100497209Y-98808810D01*
X100482800Y-98813257D01*
X100466272Y-98802104D01*
X100439930Y-98772931D01*
X100410887Y-98734029D01*
X100319039Y-98623243D01*
X100213759Y-98536649D01*
X100097266Y-98475284D01*
X99971776Y-98440185D01*
X99839507Y-98432392D01*
X99778457Y-98438057D01*
X99651795Y-98468922D01*
X99539941Y-98522080D01*
X99444001Y-98594233D01*
X99365076Y-98682083D01*
X99304270Y-98782335D01*
X99262687Y-98891690D01*
X99241428Y-99006853D01*
X99241599Y-99124525D01*
X99264301Y-99241410D01*
X99310638Y-99354211D01*
X99381713Y-99459631D01*
X99421911Y-99503632D01*
X99525129Y-99588021D01*
X99637925Y-99646778D01*
X99757010Y-99680296D01*
X99879095Y-99688965D01*
X100000893Y-99673177D01*
X100119116Y-99633322D01*
X100230475Y-99569793D01*
X100331684Y-99482979D01*
X100410887Y-99385971D01*
X100441162Y-99345563D01*
X100467219Y-99317018D01*
X100482825Y-99306743D01*
X100499843Y-99312123D01*
X100540500Y-99327425D01*
X100601642Y-99351388D01*
X100680119Y-99382756D01*
X100772780Y-99420268D01*
X100876472Y-99462667D01*
X100977526Y-99504337D01*
X101088607Y-99550310D01*
X101191541Y-99592893D01*
X101283165Y-99630779D01*
X101360316Y-99662660D01*
X101419831Y-99687229D01*
X101458544Y-99703180D01*
X101473000Y-99709090D01*
X101487685Y-99723052D01*
X101487642Y-99750060D01*
X101472099Y-99793587D01*
X101440284Y-99857110D01*
X101440013Y-99857612D01*
X101415323Y-99905440D01*
X101397338Y-99944103D01*
X101389614Y-99965905D01*
X101389543Y-99966867D01*
X101397378Y-99983279D01*
X101419165Y-100019513D01*
X101452328Y-100071526D01*
X101494291Y-100135275D01*
X101541943Y-100205940D01*
X101590191Y-100277884D01*
X101632151Y-100342726D01*
X101665227Y-100396265D01*
X101686821Y-100434303D01*
X101694343Y-100452467D01*
X101684457Y-100469192D01*
X101656826Y-100502820D01*
X101614495Y-100549990D01*
X101560505Y-100607342D01*
X101497899Y-100671516D01*
X101476983Y-100692503D01*
X101259623Y-100909501D01*
X101017220Y-100744332D01*
X100942781Y-100694136D01*
X100875972Y-100650081D01*
X100820665Y-100614638D01*
X100780729Y-100590281D01*
X100760036Y-100579478D01*
X100758563Y-100579162D01*
X100739058Y-100584857D01*
X100699822Y-100600174D01*
X100647430Y-100622463D01*
X100612355Y-100638107D01*
X100545201Y-100667359D01*
X100477358Y-100694906D01*
X100420034Y-100716263D01*
X100402572Y-100722065D01*
X100355938Y-100738548D01*
X100319905Y-100754660D01*
X100306287Y-100763510D01*
X100297952Y-100783040D01*
X100286137Y-100825666D01*
X100272181Y-100885855D01*
X100257422Y-100958078D01*
X100251355Y-100990400D01*
X100236273Y-101072478D01*
X100221669Y-101151205D01*
X100208980Y-101218891D01*
X100199642Y-101267840D01*
X100197839Y-101277057D01*
X100182799Y-101353257D01*
X99865492Y-101353257D01*
X99761154Y-101353086D01*
X99682213Y-101352384D01*
X99625038Y-101350866D01*
X99585999Y-101348251D01*
X99561465Y-101344254D01*
X99547805Y-101338591D01*
X99541389Y-101330980D01*
X99540199Y-101327857D01*
X99535980Y-101309022D01*
X99527562Y-101267412D01*
X99515961Y-101208370D01*
X99502195Y-101137243D01*
X99487280Y-101059375D01*
X99472232Y-100980113D01*
X99458069Y-100904802D01*
X99445806Y-100838787D01*
X99436461Y-100787413D01*
X99431050Y-100756025D01*
X99430114Y-100749041D01*
X99417596Y-100742715D01*
X99384246Y-100728710D01*
X99336377Y-100709645D01*
X99317629Y-100702366D01*
X99245195Y-100673004D01*
X99165170Y-100638429D01*
X99097728Y-100607463D01*
X99046159Y-100584677D01*
X99003785Y-100569518D01*
X98977834Y-100564458D01*
X98974356Y-100565264D01*
X98957936Y-100575959D01*
X98921417Y-100600380D01*
X98868687Y-100635905D01*
X98803635Y-100679913D01*
X98730151Y-100729783D01*
X98715645Y-100739644D01*
X98629704Y-100797508D01*
X98564261Y-100840044D01*
X98516304Y-100868946D01*
X98482820Y-100885910D01*
X98460795Y-100892633D01*
X98447217Y-100890810D01*
X98447131Y-100890764D01*
X98429297Y-100876414D01*
X98394817Y-100844677D01*
X98347268Y-100798990D01*
X98290222Y-100742796D01*
X98227255Y-100679532D01*
X98220227Y-100672398D01*
X98143020Y-100592670D01*
X98086330Y-100531143D01*
X98049110Y-100486579D01*
X98030315Y-100457743D01*
X98027889Y-100445042D01*
X98038471Y-100426506D01*
X98062916Y-100388039D01*
X98098612Y-100333614D01*
X98142947Y-100267202D01*
X98193311Y-100192775D01*
X98205160Y-100175399D01*
X98373626Y-99928703D01*
X98323062Y-99817294D01*
X98293595Y-99749543D01*
X98263959Y-99676817D01*
X98240330Y-99614297D01*
X98239358Y-99611543D01*
X98221457Y-99562640D01*
X98206320Y-99524943D01*
X98197210Y-99506575D01*
X98197184Y-99506544D01*
X98180717Y-99500715D01*
X98140219Y-99490808D01*
X98080242Y-99477805D01*
X98005340Y-99462691D01*
X97920064Y-99446448D01*
X97912875Y-99445119D01*
X97825014Y-99428825D01*
X97745260Y-99413867D01*
X97678681Y-99401209D01*
X97630347Y-99391814D01*
X97605325Y-99386646D01*
X97604943Y-99386556D01*
X97594299Y-99383411D01*
X97586262Y-99377296D01*
X97580467Y-99364547D01*
X97576547Y-99341500D01*
X97574135Y-99304491D01*
X97572865Y-99249856D01*
X97572371Y-99173933D01*
X97572286Y-99073056D01*
X97572286Y-99060000D01*
X97572348Y-98956090D01*
X97572778Y-98877546D01*
X97573942Y-98820702D01*
X97576207Y-98781895D01*
X97579940Y-98757462D01*
X97585506Y-98743738D01*
X97593273Y-98737060D01*
X97603605Y-98733764D01*
X97604943Y-98733444D01*
X97629079Y-98728438D01*
X97676701Y-98719171D01*
X97742741Y-98706608D01*
X97822128Y-98691713D01*
X97909796Y-98675449D01*
X97912875Y-98674881D01*
X97998789Y-98658590D01*
X98074696Y-98643348D01*
X98136045Y-98630139D01*
X98178282Y-98619946D01*
X98196855Y-98613752D01*
X98197184Y-98613457D01*
X98206253Y-98595212D01*
X98221367Y-98557595D01*
X98239262Y-98508729D01*
X98239358Y-98508457D01*
X98262493Y-98446907D01*
X98291965Y-98374343D01*
X98321597Y-98305943D01*
X98323062Y-98302706D01*
X98373626Y-98191298D01*
X98205160Y-97944601D01*
X98153803Y-97868923D01*
X98107889Y-97800369D01*
X98070030Y-97742912D01*
X98042837Y-97700524D01*
X98028921Y-97677175D01*
X98027889Y-97674958D01*
X98032484Y-97657990D01*
X98054655Y-97626299D01*
X98095447Y-97578648D01*
X98155905Y-97513802D01*
X98220227Y-97447603D01*
X98283612Y-97383786D01*
X98341451Y-97326671D01*
X98390175Y-97279695D01*
X98426210Y-97246297D01*
X98445984Y-97229915D01*
X98447002Y-97229306D01*
X98460572Y-97227495D01*
X98482733Y-97234317D01*
X98516478Y-97251460D01*
X98564800Y-97280607D01*
X98630692Y-97323445D01*
X98715517Y-97380552D01*
X98790177Y-97431234D01*
X98857140Y-97476539D01*
X98912516Y-97513850D01*
X98952420Y-97540548D01*
X98972962Y-97554015D01*
X98974356Y-97554863D01*
X98994038Y-97553219D01*
X99032293Y-97540755D01*
X99081889Y-97519952D01*
X99097728Y-97512538D01*
X99168290Y-97480186D01*
X99248353Y-97445672D01*
X99317629Y-97417635D01*
X99369045Y-97397432D01*
X99408119Y-97381385D01*
X99428541Y-97372112D01*
X99430114Y-97370959D01*
X99432721Y-97353904D01*
X99439863Y-97313702D01*
X99450523Y-97255698D01*
X99463685Y-97185237D01*
X99478333Y-97107665D01*
X99493449Y-97028328D01*
X99508018Y-96952569D01*
X99521022Y-96885736D01*
X99531445Y-96833172D01*
X99538270Y-96800224D01*
X99540199Y-96792143D01*
X99544962Y-96783795D01*
X99555718Y-96777494D01*
X99576098Y-96772955D01*
X99609734Y-96769896D01*
X99660255Y-96768033D01*
X99731292Y-96767082D01*
X99826476Y-96766760D01*
X99865492Y-96766743D01*
X100182799Y-96766743D01*
X100197839Y-96842943D01*
X102296966Y-95906405D02*
X102334497Y-95848979D01*
X102334497Y-95848979D02*
X102368096Y-95821281D01*
X102368096Y-95821281D02*
X102429064Y-95799338D01*
X102429064Y-95799338D02*
X102477308Y-95797595D01*
X102477308Y-95797595D02*
X102541816Y-95801543D01*
X102541816Y-95801543D02*
X102606934Y-95950314D01*
X102606934Y-95950314D02*
X102640202Y-96022651D01*
X102640202Y-96022651D02*
X102666964Y-96069916D01*
X102666964Y-96069916D02*
X102690144Y-96094493D01*
X102690144Y-96094493D02*
X102712667Y-96098763D01*
X102712667Y-96098763D02*
X102737455Y-96085111D01*
X102737455Y-96085111D02*
X102753886Y-96070057D01*
X102753886Y-96070057D02*
X102780235Y-96026254D01*
X102780235Y-96026254D02*
X102782081Y-95978611D01*
X102782081Y-95978611D02*
X102761546Y-95934855D01*
X102761546Y-95934855D02*
X102720752Y-95902711D01*
X102720752Y-95902711D02*
X102706347Y-95896962D01*
X102706347Y-95896962D02*
X102661356Y-95869424D01*
X102661356Y-95869424D02*
X102642182Y-95837742D01*
X102642182Y-95837742D02*
X102625779Y-95794286D01*
X102625779Y-95794286D02*
X102687966Y-95794286D01*
X102687966Y-95794286D02*
X102730283Y-95798128D01*
X102730283Y-95798128D02*
X102765969Y-95813177D01*
X102765969Y-95813177D02*
X102806943Y-95844720D01*
X102806943Y-95844720D02*
X102812267Y-95849408D01*
X102812267Y-95849408D02*
X102848720Y-95884494D01*
X102848720Y-95884494D02*
X102868283Y-95914653D01*
X102868283Y-95914653D02*
X102877283Y-95952385D01*
X102877283Y-95952385D02*
X102880230Y-95983665D01*
X102880230Y-95983665D02*
X102880965Y-96039615D01*
X102880965Y-96039615D02*
X102871660Y-96079445D01*
X102871660Y-96079445D02*
X102857846Y-96104292D01*
X102857846Y-96104292D02*
X102827467Y-96143344D01*
X102827467Y-96143344D02*
X102794613Y-96170375D01*
X102794613Y-96170375D02*
X102753294Y-96187483D01*
X102753294Y-96187483D02*
X102697521Y-96196762D01*
X102697521Y-96196762D02*
X102621305Y-96200307D01*
X102621305Y-96200307D02*
X102582622Y-96200590D01*
X102582622Y-96200590D02*
X102536247Y-96199628D01*
X102536247Y-96199628D02*
X102536247Y-96111993D01*
X102536247Y-96111993D02*
X102561126Y-96110977D01*
X102561126Y-96110977D02*
X102565200Y-96108444D01*
X102565200Y-96108444D02*
X102559665Y-96091726D01*
X102559665Y-96091726D02*
X102545017Y-96055751D01*
X102545017Y-96055751D02*
X102524190Y-96007669D01*
X102524190Y-96007669D02*
X102519714Y-95997614D01*
X102519714Y-95997614D02*
X102488814Y-95936848D01*
X102488814Y-95936848D02*
X102461657Y-95903368D01*
X102461657Y-95903368D02*
X102436220Y-95896010D01*
X102436220Y-95896010D02*
X102410481Y-95913609D01*
X102410481Y-95913609D02*
X102399109Y-95928144D01*
X102399109Y-95928144D02*
X102376364Y-95980590D01*
X102376364Y-95980590D02*
X102380122Y-96029678D01*
X102380122Y-96029678D02*
X102407884Y-96070773D01*
X102407884Y-96070773D02*
X102457152Y-96099242D01*
X102457152Y-96099242D02*
X102496257Y-96108369D01*
X102496257Y-96108369D02*
X102536247Y-96111993D01*
X102536247Y-96111993D02*
X102536247Y-96199628D01*
X102536247Y-96199628D02*
X102492249Y-96198715D01*
X102492249Y-96198715D02*
X102425384Y-96191804D01*
X102425384Y-96191804D02*
X102376695Y-96178116D01*
X102376695Y-96178116D02*
X102340849Y-96155904D01*
X102340849Y-96155904D02*
X102312513Y-96123426D01*
X102312513Y-96123426D02*
X102303355Y-96109267D01*
X102303355Y-96109267D02*
X102279507Y-96044947D01*
X102279507Y-96044947D02*
X102278006Y-95974527D01*
X102278006Y-95974527D02*
X102296966Y-95906405D01*
X102296966Y-95906405D02*
X102296966Y-95906405D01*
G36*
X102425384Y-96191804D02*
G01*
X102376695Y-96178116D01*
X102340849Y-96155904D01*
X102312513Y-96123426D01*
X102303355Y-96109267D01*
X102279507Y-96044947D01*
X102278135Y-95980590D01*
X102376364Y-95980590D01*
X102380122Y-96029678D01*
X102407884Y-96070773D01*
X102457152Y-96099242D01*
X102496257Y-96108369D01*
X102536247Y-96111993D01*
X102561126Y-96110977D01*
X102565200Y-96108444D01*
X102559665Y-96091726D01*
X102545017Y-96055751D01*
X102524190Y-96007669D01*
X102519714Y-95997614D01*
X102488814Y-95936848D01*
X102461657Y-95903368D01*
X102436220Y-95896010D01*
X102410481Y-95913609D01*
X102399109Y-95928144D01*
X102376364Y-95980590D01*
X102278135Y-95980590D01*
X102278006Y-95974527D01*
X102296966Y-95906405D01*
X102334497Y-95848979D01*
X102368096Y-95821281D01*
X102429064Y-95799338D01*
X102477308Y-95797595D01*
X102541816Y-95801543D01*
X102606934Y-95950314D01*
X102640202Y-96022651D01*
X102666964Y-96069916D01*
X102690144Y-96094493D01*
X102712667Y-96098763D01*
X102737455Y-96085111D01*
X102753886Y-96070057D01*
X102780235Y-96026254D01*
X102782081Y-95978611D01*
X102761546Y-95934855D01*
X102720752Y-95902711D01*
X102706347Y-95896962D01*
X102661356Y-95869424D01*
X102642182Y-95837742D01*
X102625779Y-95794286D01*
X102687966Y-95794286D01*
X102730283Y-95798128D01*
X102765969Y-95813177D01*
X102806943Y-95844720D01*
X102812267Y-95849408D01*
X102848720Y-95884494D01*
X102868283Y-95914653D01*
X102877283Y-95952385D01*
X102880230Y-95983665D01*
X102880965Y-96039615D01*
X102871660Y-96079445D01*
X102857846Y-96104292D01*
X102827467Y-96143344D01*
X102794613Y-96170375D01*
X102753294Y-96187483D01*
X102697521Y-96196762D01*
X102621305Y-96200307D01*
X102582622Y-96200590D01*
X102536247Y-96199628D01*
X102492249Y-96198715D01*
X102425384Y-96191804D01*
G37*
X102425384Y-96191804D02*
X102376695Y-96178116D01*
X102340849Y-96155904D01*
X102312513Y-96123426D01*
X102303355Y-96109267D01*
X102279507Y-96044947D01*
X102278135Y-95980590D01*
X102376364Y-95980590D01*
X102380122Y-96029678D01*
X102407884Y-96070773D01*
X102457152Y-96099242D01*
X102496257Y-96108369D01*
X102536247Y-96111993D01*
X102561126Y-96110977D01*
X102565200Y-96108444D01*
X102559665Y-96091726D01*
X102545017Y-96055751D01*
X102524190Y-96007669D01*
X102519714Y-95997614D01*
X102488814Y-95936848D01*
X102461657Y-95903368D01*
X102436220Y-95896010D01*
X102410481Y-95913609D01*
X102399109Y-95928144D01*
X102376364Y-95980590D01*
X102278135Y-95980590D01*
X102278006Y-95974527D01*
X102296966Y-95906405D01*
X102334497Y-95848979D01*
X102368096Y-95821281D01*
X102429064Y-95799338D01*
X102477308Y-95797595D01*
X102541816Y-95801543D01*
X102606934Y-95950314D01*
X102640202Y-96022651D01*
X102666964Y-96069916D01*
X102690144Y-96094493D01*
X102712667Y-96098763D01*
X102737455Y-96085111D01*
X102753886Y-96070057D01*
X102780235Y-96026254D01*
X102782081Y-95978611D01*
X102761546Y-95934855D01*
X102720752Y-95902711D01*
X102706347Y-95896962D01*
X102661356Y-95869424D01*
X102642182Y-95837742D01*
X102625779Y-95794286D01*
X102687966Y-95794286D01*
X102730283Y-95798128D01*
X102765969Y-95813177D01*
X102806943Y-95844720D01*
X102812267Y-95849408D01*
X102848720Y-95884494D01*
X102868283Y-95914653D01*
X102877283Y-95952385D01*
X102880230Y-95983665D01*
X102880965Y-96039615D01*
X102871660Y-96079445D01*
X102857846Y-96104292D01*
X102827467Y-96143344D01*
X102794613Y-96170375D01*
X102753294Y-96187483D01*
X102697521Y-96196762D01*
X102621305Y-96200307D01*
X102582622Y-96200590D01*
X102536247Y-96199628D01*
X102492249Y-96198715D01*
X102425384Y-96191804D01*
X102288752Y-96407400D02*
X102296334Y-96390052D01*
X102296334Y-96390052D02*
X102329128Y-96348644D01*
X102329128Y-96348644D02*
X102376547Y-96313235D01*
X102376547Y-96313235D02*
X102427151Y-96291336D01*
X102427151Y-96291336D02*
X102452098Y-96287771D01*
X102452098Y-96287771D02*
X102486927Y-96299721D01*
X102486927Y-96299721D02*
X102505357Y-96325933D01*
X102505357Y-96325933D02*
X102516516Y-96354036D01*
X102516516Y-96354036D02*
X102518572Y-96366905D01*
X102518572Y-96366905D02*
X102503649Y-96373171D01*
X102503649Y-96373171D02*
X102471175Y-96385544D01*
X102471175Y-96385544D02*
X102456502Y-96390972D01*
X102456502Y-96390972D02*
X102405744Y-96421410D01*
X102405744Y-96421410D02*
X102380427Y-96465480D01*
X102380427Y-96465480D02*
X102381206Y-96521990D01*
X102381206Y-96521990D02*
X102382203Y-96526175D01*
X102382203Y-96526175D02*
X102396507Y-96556345D01*
X102396507Y-96556345D02*
X102424393Y-96578524D01*
X102424393Y-96578524D02*
X102469287Y-96593673D01*
X102469287Y-96593673D02*
X102534615Y-96602750D01*
X102534615Y-96602750D02*
X102623804Y-96606714D01*
X102623804Y-96606714D02*
X102671261Y-96607086D01*
X102671261Y-96607086D02*
X102746071Y-96607270D01*
X102746071Y-96607270D02*
X102797069Y-96608478D01*
X102797069Y-96608478D02*
X102829471Y-96611691D01*
X102829471Y-96611691D02*
X102848495Y-96617891D01*
X102848495Y-96617891D02*
X102859356Y-96628060D01*
X102859356Y-96628060D02*
X102867272Y-96643181D01*
X102867272Y-96643181D02*
X102867670Y-96644054D01*
X102867670Y-96644054D02*
X102879981Y-96673172D01*
X102879981Y-96673172D02*
X102884514Y-96687597D01*
X102884514Y-96687597D02*
X102870809Y-96689814D01*
X102870809Y-96689814D02*
X102832925Y-96691711D01*
X102832925Y-96691711D02*
X102775715Y-96693153D01*
X102775715Y-96693153D02*
X102704027Y-96694002D01*
X102704027Y-96694002D02*
X102651565Y-96694171D01*
X102651565Y-96694171D02*
X102550047Y-96693308D01*
X102550047Y-96693308D02*
X102473032Y-96689930D01*
X102473032Y-96689930D02*
X102416023Y-96682858D01*
X102416023Y-96682858D02*
X102374526Y-96670912D01*
X102374526Y-96670912D02*
X102344043Y-96652910D01*
X102344043Y-96652910D02*
X102320080Y-96627673D01*
X102320080Y-96627673D02*
X102303355Y-96602753D01*
X102303355Y-96602753D02*
X102281097Y-96542829D01*
X102281097Y-96542829D02*
X102276076Y-96473089D01*
X102276076Y-96473089D02*
X102288752Y-96407400D01*
X102288752Y-96407400D02*
X102288752Y-96407400D01*
G36*
X102486927Y-96299721D02*
G01*
X102505357Y-96325933D01*
X102516516Y-96354036D01*
X102518572Y-96366905D01*
X102503649Y-96373171D01*
X102471175Y-96385544D01*
X102456502Y-96390972D01*
X102405744Y-96421410D01*
X102380427Y-96465480D01*
X102381206Y-96521990D01*
X102382203Y-96526175D01*
X102396507Y-96556345D01*
X102424393Y-96578524D01*
X102469287Y-96593673D01*
X102534615Y-96602750D01*
X102623804Y-96606714D01*
X102671261Y-96607086D01*
X102746071Y-96607270D01*
X102797069Y-96608478D01*
X102829471Y-96611691D01*
X102848495Y-96617891D01*
X102859356Y-96628060D01*
X102867272Y-96643181D01*
X102867670Y-96644054D01*
X102879981Y-96673172D01*
X102884514Y-96687597D01*
X102870809Y-96689814D01*
X102832925Y-96691711D01*
X102775715Y-96693153D01*
X102704027Y-96694002D01*
X102651565Y-96694171D01*
X102550047Y-96693308D01*
X102473032Y-96689930D01*
X102416023Y-96682858D01*
X102374526Y-96670912D01*
X102344043Y-96652910D01*
X102320080Y-96627673D01*
X102303355Y-96602753D01*
X102281097Y-96542829D01*
X102276076Y-96473089D01*
X102288752Y-96407400D01*
X102296334Y-96390052D01*
X102329128Y-96348644D01*
X102376547Y-96313235D01*
X102427151Y-96291336D01*
X102452098Y-96287771D01*
X102486927Y-96299721D01*
G37*
X102486927Y-96299721D02*
X102505357Y-96325933D01*
X102516516Y-96354036D01*
X102518572Y-96366905D01*
X102503649Y-96373171D01*
X102471175Y-96385544D01*
X102456502Y-96390972D01*
X102405744Y-96421410D01*
X102380427Y-96465480D01*
X102381206Y-96521990D01*
X102382203Y-96526175D01*
X102396507Y-96556345D01*
X102424393Y-96578524D01*
X102469287Y-96593673D01*
X102534615Y-96602750D01*
X102623804Y-96606714D01*
X102671261Y-96607086D01*
X102746071Y-96607270D01*
X102797069Y-96608478D01*
X102829471Y-96611691D01*
X102848495Y-96617891D01*
X102859356Y-96628060D01*
X102867272Y-96643181D01*
X102867670Y-96644054D01*
X102879981Y-96673172D01*
X102884514Y-96687597D01*
X102870809Y-96689814D01*
X102832925Y-96691711D01*
X102775715Y-96693153D01*
X102704027Y-96694002D01*
X102651565Y-96694171D01*
X102550047Y-96693308D01*
X102473032Y-96689930D01*
X102416023Y-96682858D01*
X102374526Y-96670912D01*
X102344043Y-96652910D01*
X102320080Y-96627673D01*
X102303355Y-96602753D01*
X102281097Y-96542829D01*
X102276076Y-96473089D01*
X102288752Y-96407400D01*
X102296334Y-96390052D01*
X102329128Y-96348644D01*
X102376547Y-96313235D01*
X102427151Y-96291336D01*
X102452098Y-96287771D01*
X102486927Y-96299721D01*
X102286335Y-96915124D02*
X102305344Y-96873333D01*
X102305344Y-96873333D02*
X102328378Y-96840531D01*
X102328378Y-96840531D02*
X102354133Y-96816497D01*
X102354133Y-96816497D02*
X102387358Y-96799903D01*
X102387358Y-96799903D02*
X102432800Y-96789423D01*
X102432800Y-96789423D02*
X102495207Y-96783729D01*
X102495207Y-96783729D02*
X102579327Y-96781493D01*
X102579327Y-96781493D02*
X102634721Y-96781257D01*
X102634721Y-96781257D02*
X102850826Y-96781257D01*
X102850826Y-96781257D02*
X102867670Y-96818226D01*
X102867670Y-96818226D02*
X102879981Y-96847344D01*
X102879981Y-96847344D02*
X102884514Y-96861769D01*
X102884514Y-96861769D02*
X102871025Y-96864528D01*
X102871025Y-96864528D02*
X102834653Y-96866718D01*
X102834653Y-96866718D02*
X102781542Y-96868058D01*
X102781542Y-96868058D02*
X102739372Y-96868343D01*
X102739372Y-96868343D02*
X102678447Y-96869566D01*
X102678447Y-96869566D02*
X102630115Y-96872864D01*
X102630115Y-96872864D02*
X102600518Y-96877679D01*
X102600518Y-96877679D02*
X102594229Y-96881504D01*
X102594229Y-96881504D02*
X102600652Y-96907217D01*
X102600652Y-96907217D02*
X102617125Y-96947582D01*
X102617125Y-96947582D02*
X102639458Y-96994321D01*
X102639458Y-96994321D02*
X102663457Y-97039155D01*
X102663457Y-97039155D02*
X102684930Y-97073807D01*
X102684930Y-97073807D02*
X102699685Y-97089998D01*
X102699685Y-97089998D02*
X102699845Y-97090062D01*
X102699845Y-97090062D02*
X102727152Y-97088670D01*
X102727152Y-97088670D02*
X102753219Y-97076182D01*
X102753219Y-97076182D02*
X102774392Y-97054257D01*
X102774392Y-97054257D02*
X102781474Y-97022257D01*
X102781474Y-97022257D02*
X102780649Y-96994908D01*
X102780649Y-96994908D02*
X102780042Y-96956174D01*
X102780042Y-96956174D02*
X102789116Y-96935842D01*
X102789116Y-96935842D02*
X102813092Y-96923631D01*
X102813092Y-96923631D02*
X102817613Y-96922091D01*
X102817613Y-96922091D02*
X102851806Y-96916797D01*
X102851806Y-96916797D02*
X102872568Y-96930953D01*
X102872568Y-96930953D02*
X102882462Y-96967852D01*
X102882462Y-96967852D02*
X102884292Y-97007711D01*
X102884292Y-97007711D02*
X102870727Y-97079438D01*
X102870727Y-97079438D02*
X102851355Y-97116568D01*
X102851355Y-97116568D02*
X102805845Y-97162424D01*
X102805845Y-97162424D02*
X102749983Y-97186744D01*
X102749983Y-97186744D02*
X102690957Y-97188927D01*
X102690957Y-97188927D02*
X102635953Y-97168371D01*
X102635953Y-97168371D02*
X102601486Y-97137451D01*
X102601486Y-97137451D02*
X102582189Y-97106580D01*
X102582189Y-97106580D02*
X102557759Y-97058058D01*
X102557759Y-97058058D02*
X102532985Y-97001515D01*
X102532985Y-97001515D02*
X102529199Y-96992090D01*
X102529199Y-96992090D02*
X102501791Y-96929981D01*
X102501791Y-96929981D02*
X102477634Y-96894178D01*
X102477634Y-96894178D02*
X102453619Y-96882663D01*
X102453619Y-96882663D02*
X102426635Y-96893420D01*
X102426635Y-96893420D02*
X102405543Y-96911886D01*
X102405543Y-96911886D02*
X102379572Y-96955531D01*
X102379572Y-96955531D02*
X102377624Y-97003554D01*
X102377624Y-97003554D02*
X102397637Y-97047594D01*
X102397637Y-97047594D02*
X102437551Y-97079291D01*
X102437551Y-97079291D02*
X102447848Y-97083451D01*
X102447848Y-97083451D02*
X102485724Y-97107673D01*
X102485724Y-97107673D02*
X102513842Y-97143035D01*
X102513842Y-97143035D02*
X102536917Y-97187657D01*
X102536917Y-97187657D02*
X102471485Y-97187657D01*
X102471485Y-97187657D02*
X102431506Y-97185031D01*
X102431506Y-97185031D02*
X102399997Y-97173770D01*
X102399997Y-97173770D02*
X102366378Y-97148801D01*
X102366378Y-97148801D02*
X102340484Y-97124831D01*
X102340484Y-97124831D02*
X102303817Y-97087559D01*
X102303817Y-97087559D02*
X102284121Y-97058599D01*
X102284121Y-97058599D02*
X102276220Y-97027495D01*
X102276220Y-97027495D02*
X102274914Y-96992287D01*
X102274914Y-96992287D02*
X102286335Y-96915124D01*
X102286335Y-96915124D02*
X102286335Y-96915124D01*
G36*
X102867670Y-96818226D02*
G01*
X102879981Y-96847344D01*
X102884514Y-96861769D01*
X102871025Y-96864528D01*
X102834653Y-96866718D01*
X102781542Y-96868058D01*
X102739372Y-96868343D01*
X102678447Y-96869566D01*
X102630115Y-96872864D01*
X102600518Y-96877679D01*
X102594229Y-96881504D01*
X102600652Y-96907217D01*
X102617125Y-96947582D01*
X102639458Y-96994321D01*
X102663457Y-97039155D01*
X102684930Y-97073807D01*
X102699685Y-97089998D01*
X102699845Y-97090062D01*
X102727152Y-97088670D01*
X102753219Y-97076182D01*
X102774392Y-97054257D01*
X102781474Y-97022257D01*
X102780649Y-96994908D01*
X102780042Y-96956174D01*
X102789116Y-96935842D01*
X102813092Y-96923631D01*
X102817613Y-96922091D01*
X102851806Y-96916797D01*
X102872568Y-96930953D01*
X102882462Y-96967852D01*
X102884292Y-97007711D01*
X102870727Y-97079438D01*
X102851355Y-97116568D01*
X102805845Y-97162424D01*
X102749983Y-97186744D01*
X102690957Y-97188927D01*
X102635953Y-97168371D01*
X102601486Y-97137451D01*
X102582189Y-97106580D01*
X102557759Y-97058058D01*
X102532985Y-97001515D01*
X102529199Y-96992090D01*
X102501791Y-96929981D01*
X102477634Y-96894178D01*
X102453619Y-96882663D01*
X102426635Y-96893420D01*
X102405543Y-96911886D01*
X102379572Y-96955531D01*
X102377624Y-97003554D01*
X102397637Y-97047594D01*
X102437551Y-97079291D01*
X102447848Y-97083451D01*
X102485724Y-97107673D01*
X102513842Y-97143035D01*
X102536917Y-97187657D01*
X102471485Y-97187657D01*
X102431506Y-97185031D01*
X102399997Y-97173770D01*
X102366378Y-97148801D01*
X102340484Y-97124831D01*
X102303817Y-97087559D01*
X102284121Y-97058599D01*
X102276220Y-97027495D01*
X102274914Y-96992287D01*
X102286335Y-96915124D01*
X102305344Y-96873333D01*
X102328378Y-96840531D01*
X102354133Y-96816497D01*
X102387358Y-96799903D01*
X102432800Y-96789423D01*
X102495207Y-96783729D01*
X102579327Y-96781493D01*
X102634721Y-96781257D01*
X102850826Y-96781257D01*
X102867670Y-96818226D01*
G37*
X102867670Y-96818226D02*
X102879981Y-96847344D01*
X102884514Y-96861769D01*
X102871025Y-96864528D01*
X102834653Y-96866718D01*
X102781542Y-96868058D01*
X102739372Y-96868343D01*
X102678447Y-96869566D01*
X102630115Y-96872864D01*
X102600518Y-96877679D01*
X102594229Y-96881504D01*
X102600652Y-96907217D01*
X102617125Y-96947582D01*
X102639458Y-96994321D01*
X102663457Y-97039155D01*
X102684930Y-97073807D01*
X102699685Y-97089998D01*
X102699845Y-97090062D01*
X102727152Y-97088670D01*
X102753219Y-97076182D01*
X102774392Y-97054257D01*
X102781474Y-97022257D01*
X102780649Y-96994908D01*
X102780042Y-96956174D01*
X102789116Y-96935842D01*
X102813092Y-96923631D01*
X102817613Y-96922091D01*
X102851806Y-96916797D01*
X102872568Y-96930953D01*
X102882462Y-96967852D01*
X102884292Y-97007711D01*
X102870727Y-97079438D01*
X102851355Y-97116568D01*
X102805845Y-97162424D01*
X102749983Y-97186744D01*
X102690957Y-97188927D01*
X102635953Y-97168371D01*
X102601486Y-97137451D01*
X102582189Y-97106580D01*
X102557759Y-97058058D01*
X102532985Y-97001515D01*
X102529199Y-96992090D01*
X102501791Y-96929981D01*
X102477634Y-96894178D01*
X102453619Y-96882663D01*
X102426635Y-96893420D01*
X102405543Y-96911886D01*
X102379572Y-96955531D01*
X102377624Y-97003554D01*
X102397637Y-97047594D01*
X102437551Y-97079291D01*
X102447848Y-97083451D01*
X102485724Y-97107673D01*
X102513842Y-97143035D01*
X102536917Y-97187657D01*
X102471485Y-97187657D01*
X102431506Y-97185031D01*
X102399997Y-97173770D01*
X102366378Y-97148801D01*
X102340484Y-97124831D01*
X102303817Y-97087559D01*
X102284121Y-97058599D01*
X102276220Y-97027495D01*
X102274914Y-96992287D01*
X102286335Y-96915124D01*
X102305344Y-96873333D01*
X102328378Y-96840531D01*
X102354133Y-96816497D01*
X102387358Y-96799903D01*
X102432800Y-96789423D01*
X102495207Y-96783729D01*
X102579327Y-96781493D01*
X102634721Y-96781257D01*
X102850826Y-96781257D01*
X102867670Y-96818226D01*
X102288663Y-97280167D02*
X102326850Y-97277952D01*
X102326850Y-97277952D02*
X102384886Y-97276216D01*
X102384886Y-97276216D02*
X102458180Y-97275101D01*
X102458180Y-97275101D02*
X102535055Y-97274743D01*
X102535055Y-97274743D02*
X102795196Y-97274743D01*
X102795196Y-97274743D02*
X102841127Y-97320674D01*
X102841127Y-97320674D02*
X102869429Y-97352325D01*
X102869429Y-97352325D02*
X102880893Y-97380110D01*
X102880893Y-97380110D02*
X102880168Y-97418085D01*
X102880168Y-97418085D02*
X102878321Y-97433160D01*
X102878321Y-97433160D02*
X102872948Y-97480274D01*
X102872948Y-97480274D02*
X102869869Y-97519244D01*
X102869869Y-97519244D02*
X102869585Y-97528743D01*
X102869585Y-97528743D02*
X102871445Y-97560767D01*
X102871445Y-97560767D02*
X102876114Y-97606568D01*
X102876114Y-97606568D02*
X102878321Y-97624326D01*
X102878321Y-97624326D02*
X102881735Y-97667943D01*
X102881735Y-97667943D02*
X102874320Y-97697255D01*
X102874320Y-97697255D02*
X102851427Y-97726320D01*
X102851427Y-97726320D02*
X102841127Y-97736812D01*
X102841127Y-97736812D02*
X102795196Y-97782743D01*
X102795196Y-97782743D02*
X102308602Y-97782743D01*
X102308602Y-97782743D02*
X102291758Y-97745774D01*
X102291758Y-97745774D02*
X102279282Y-97713941D01*
X102279282Y-97713941D02*
X102274914Y-97695317D01*
X102274914Y-97695317D02*
X102288718Y-97690542D01*
X102288718Y-97690542D02*
X102327286Y-97686079D01*
X102327286Y-97686079D02*
X102386356Y-97682225D01*
X102386356Y-97682225D02*
X102461663Y-97679278D01*
X102461663Y-97679278D02*
X102525286Y-97677857D01*
X102525286Y-97677857D02*
X102775657Y-97673886D01*
X102775657Y-97673886D02*
X102780556Y-97639241D01*
X102780556Y-97639241D02*
X102777131Y-97607732D01*
X102777131Y-97607732D02*
X102766041Y-97592292D01*
X102766041Y-97592292D02*
X102745308Y-97587977D01*
X102745308Y-97587977D02*
X102701145Y-97584292D01*
X102701145Y-97584292D02*
X102639146Y-97581531D01*
X102639146Y-97581531D02*
X102564909Y-97579988D01*
X102564909Y-97579988D02*
X102526706Y-97579765D01*
X102526706Y-97579765D02*
X102306783Y-97579543D01*
X102306783Y-97579543D02*
X102290849Y-97533834D01*
X102290849Y-97533834D02*
X102280015Y-97501482D01*
X102280015Y-97501482D02*
X102274962Y-97483885D01*
X102274962Y-97483885D02*
X102274914Y-97483377D01*
X102274914Y-97483377D02*
X102288648Y-97481612D01*
X102288648Y-97481612D02*
X102326730Y-97479671D01*
X102326730Y-97479671D02*
X102384482Y-97477718D01*
X102384482Y-97477718D02*
X102457227Y-97475916D01*
X102457227Y-97475916D02*
X102525286Y-97474657D01*
X102525286Y-97474657D02*
X102775657Y-97470686D01*
X102775657Y-97470686D02*
X102775657Y-97383600D01*
X102775657Y-97383600D02*
X102547240Y-97379604D01*
X102547240Y-97379604D02*
X102318822Y-97375608D01*
X102318822Y-97375608D02*
X102296868Y-97333153D01*
X102296868Y-97333153D02*
X102281793Y-97301808D01*
X102281793Y-97301808D02*
X102274951Y-97283256D01*
X102274951Y-97283256D02*
X102274914Y-97282721D01*
X102274914Y-97282721D02*
X102288663Y-97280167D01*
X102288663Y-97280167D02*
X102288663Y-97280167D01*
G36*
X102841127Y-97320674D02*
G01*
X102869429Y-97352325D01*
X102880893Y-97380110D01*
X102880168Y-97418085D01*
X102878321Y-97433160D01*
X102872948Y-97480274D01*
X102869869Y-97519244D01*
X102869585Y-97528743D01*
X102871445Y-97560767D01*
X102876114Y-97606568D01*
X102878321Y-97624326D01*
X102881735Y-97667943D01*
X102874320Y-97697255D01*
X102851427Y-97726320D01*
X102841127Y-97736812D01*
X102795196Y-97782743D01*
X102308602Y-97782743D01*
X102291758Y-97745774D01*
X102279282Y-97713941D01*
X102274914Y-97695317D01*
X102288718Y-97690542D01*
X102327286Y-97686079D01*
X102386356Y-97682225D01*
X102461663Y-97679278D01*
X102525286Y-97677857D01*
X102775657Y-97673886D01*
X102780556Y-97639241D01*
X102777131Y-97607732D01*
X102766041Y-97592292D01*
X102745308Y-97587977D01*
X102701145Y-97584292D01*
X102639146Y-97581531D01*
X102564909Y-97579988D01*
X102526706Y-97579765D01*
X102306783Y-97579543D01*
X102290849Y-97533834D01*
X102280015Y-97501482D01*
X102274962Y-97483885D01*
X102274914Y-97483377D01*
X102288648Y-97481612D01*
X102326730Y-97479671D01*
X102384482Y-97477718D01*
X102457227Y-97475916D01*
X102525286Y-97474657D01*
X102775657Y-97470686D01*
X102775657Y-97383600D01*
X102547240Y-97379604D01*
X102318822Y-97375608D01*
X102296868Y-97333153D01*
X102281793Y-97301808D01*
X102274951Y-97283256D01*
X102274914Y-97282721D01*
X102288663Y-97280167D01*
X102326850Y-97277952D01*
X102384886Y-97276216D01*
X102458180Y-97275101D01*
X102535055Y-97274743D01*
X102795196Y-97274743D01*
X102841127Y-97320674D01*
G37*
X102841127Y-97320674D02*
X102869429Y-97352325D01*
X102880893Y-97380110D01*
X102880168Y-97418085D01*
X102878321Y-97433160D01*
X102872948Y-97480274D01*
X102869869Y-97519244D01*
X102869585Y-97528743D01*
X102871445Y-97560767D01*
X102876114Y-97606568D01*
X102878321Y-97624326D01*
X102881735Y-97667943D01*
X102874320Y-97697255D01*
X102851427Y-97726320D01*
X102841127Y-97736812D01*
X102795196Y-97782743D01*
X102308602Y-97782743D01*
X102291758Y-97745774D01*
X102279282Y-97713941D01*
X102274914Y-97695317D01*
X102288718Y-97690542D01*
X102327286Y-97686079D01*
X102386356Y-97682225D01*
X102461663Y-97679278D01*
X102525286Y-97677857D01*
X102775657Y-97673886D01*
X102780556Y-97639241D01*
X102777131Y-97607732D01*
X102766041Y-97592292D01*
X102745308Y-97587977D01*
X102701145Y-97584292D01*
X102639146Y-97581531D01*
X102564909Y-97579988D01*
X102526706Y-97579765D01*
X102306783Y-97579543D01*
X102290849Y-97533834D01*
X102280015Y-97501482D01*
X102274962Y-97483885D01*
X102274914Y-97483377D01*
X102288648Y-97481612D01*
X102326730Y-97479671D01*
X102384482Y-97477718D01*
X102457227Y-97475916D01*
X102525286Y-97474657D01*
X102775657Y-97470686D01*
X102775657Y-97383600D01*
X102547240Y-97379604D01*
X102318822Y-97375608D01*
X102296868Y-97333153D01*
X102281793Y-97301808D01*
X102274951Y-97283256D01*
X102274914Y-97282721D01*
X102288663Y-97280167D01*
X102326850Y-97277952D01*
X102384886Y-97276216D01*
X102458180Y-97275101D01*
X102535055Y-97274743D01*
X102795196Y-97274743D01*
X102841127Y-97320674D01*
X102395358Y-97869883D02*
X102503837Y-97870067D01*
X102503837Y-97870067D02*
X102587287Y-97870781D01*
X102587287Y-97870781D02*
X102649704Y-97872325D01*
X102649704Y-97872325D02*
X102695085Y-97874999D01*
X102695085Y-97874999D02*
X102727429Y-97879106D01*
X102727429Y-97879106D02*
X102750733Y-97884945D01*
X102750733Y-97884945D02*
X102768995Y-97892818D01*
X102768995Y-97892818D02*
X102779418Y-97898779D01*
X102779418Y-97898779D02*
X102835945Y-97948145D01*
X102835945Y-97948145D02*
X102871377Y-98010736D01*
X102871377Y-98010736D02*
X102884090Y-98079987D01*
X102884090Y-98079987D02*
X102872463Y-98149332D01*
X102872463Y-98149332D02*
X102851568Y-98190625D01*
X102851568Y-98190625D02*
X102815422Y-98233975D01*
X102815422Y-98233975D02*
X102771276Y-98263519D01*
X102771276Y-98263519D02*
X102713462Y-98281345D01*
X102713462Y-98281345D02*
X102636313Y-98289537D01*
X102636313Y-98289537D02*
X102579714Y-98290698D01*
X102579714Y-98290698D02*
X102575647Y-98290542D01*
X102575647Y-98290542D02*
X102575647Y-98189143D01*
X102575647Y-98189143D02*
X102640550Y-98188524D01*
X102640550Y-98188524D02*
X102683514Y-98185686D01*
X102683514Y-98185686D02*
X102711622Y-98179160D01*
X102711622Y-98179160D02*
X102731953Y-98167477D01*
X102731953Y-98167477D02*
X102747288Y-98153517D01*
X102747288Y-98153517D02*
X102776890Y-98106635D01*
X102776890Y-98106635D02*
X102779419Y-98056299D01*
X102779419Y-98056299D02*
X102754705Y-98008724D01*
X102754705Y-98008724D02*
X102751356Y-98005021D01*
X102751356Y-98005021D02*
X102733935Y-97989217D01*
X102733935Y-97989217D02*
X102713209Y-97979307D01*
X102713209Y-97979307D02*
X102682362Y-97973942D01*
X102682362Y-97973942D02*
X102634577Y-97971772D01*
X102634577Y-97971772D02*
X102581748Y-97971429D01*
X102581748Y-97971429D02*
X102515381Y-97972173D01*
X102515381Y-97972173D02*
X102471106Y-97975252D01*
X102471106Y-97975252D02*
X102442009Y-97981939D01*
X102442009Y-97981939D02*
X102421173Y-97993504D01*
X102421173Y-97993504D02*
X102410107Y-98002987D01*
X102410107Y-98002987D02*
X102382198Y-98047040D01*
X102382198Y-98047040D02*
X102378843Y-98097776D01*
X102378843Y-98097776D02*
X102400159Y-98146204D01*
X102400159Y-98146204D02*
X102408073Y-98155550D01*
X102408073Y-98155550D02*
X102425647Y-98171460D01*
X102425647Y-98171460D02*
X102446587Y-98181390D01*
X102446587Y-98181390D02*
X102477782Y-98186722D01*
X102477782Y-98186722D02*
X102526122Y-98188837D01*
X102526122Y-98188837D02*
X102575647Y-98189143D01*
X102575647Y-98189143D02*
X102575647Y-98290542D01*
X102575647Y-98290542D02*
X102488568Y-98287190D01*
X102488568Y-98287190D02*
X102420086Y-98275274D01*
X102420086Y-98275274D02*
X102368600Y-98252865D01*
X102368600Y-98252865D02*
X102328443Y-98217876D01*
X102328443Y-98217876D02*
X102307861Y-98190625D01*
X102307861Y-98190625D02*
X102285625Y-98141093D01*
X102285625Y-98141093D02*
X102275304Y-98083684D01*
X102275304Y-98083684D02*
X102278067Y-98030318D01*
X102278067Y-98030318D02*
X102289212Y-98000457D01*
X102289212Y-98000457D02*
X102292383Y-97988739D01*
X102292383Y-97988739D02*
X102280557Y-97980963D01*
X102280557Y-97980963D02*
X102248866Y-97975535D01*
X102248866Y-97975535D02*
X102200593Y-97971429D01*
X102200593Y-97971429D02*
X102146829Y-97966933D01*
X102146829Y-97966933D02*
X102114482Y-97960687D01*
X102114482Y-97960687D02*
X102095985Y-97949324D01*
X102095985Y-97949324D02*
X102083770Y-97929472D01*
X102083770Y-97929472D02*
X102078362Y-97917000D01*
X102078362Y-97917000D02*
X102058601Y-97869829D01*
X102058601Y-97869829D02*
X102395358Y-97869883D01*
X102395358Y-97869883D02*
X102395358Y-97869883D01*
G36*
X102420086Y-98275274D02*
G01*
X102368600Y-98252865D01*
X102328443Y-98217876D01*
X102307861Y-98190625D01*
X102285625Y-98141093D01*
X102277837Y-98097776D01*
X102378843Y-98097776D01*
X102400159Y-98146204D01*
X102408073Y-98155550D01*
X102425647Y-98171460D01*
X102446587Y-98181390D01*
X102477782Y-98186722D01*
X102526122Y-98188837D01*
X102575647Y-98189143D01*
X102640550Y-98188524D01*
X102683514Y-98185686D01*
X102711622Y-98179160D01*
X102731953Y-98167477D01*
X102747288Y-98153517D01*
X102776890Y-98106635D01*
X102779419Y-98056299D01*
X102754705Y-98008724D01*
X102751356Y-98005021D01*
X102733935Y-97989217D01*
X102713209Y-97979307D01*
X102682362Y-97973942D01*
X102634577Y-97971772D01*
X102581748Y-97971429D01*
X102515381Y-97972173D01*
X102471106Y-97975252D01*
X102442009Y-97981939D01*
X102421173Y-97993504D01*
X102410107Y-98002987D01*
X102382198Y-98047040D01*
X102378843Y-98097776D01*
X102277837Y-98097776D01*
X102275304Y-98083684D01*
X102278067Y-98030318D01*
X102289212Y-98000457D01*
X102292383Y-97988739D01*
X102280557Y-97980963D01*
X102248866Y-97975535D01*
X102200593Y-97971429D01*
X102146829Y-97966933D01*
X102114482Y-97960687D01*
X102095985Y-97949324D01*
X102083770Y-97929472D01*
X102078362Y-97917000D01*
X102058601Y-97869829D01*
X102395358Y-97869883D01*
X102503837Y-97870067D01*
X102587287Y-97870781D01*
X102649704Y-97872325D01*
X102695085Y-97874999D01*
X102727429Y-97879106D01*
X102750733Y-97884945D01*
X102768995Y-97892818D01*
X102779418Y-97898779D01*
X102835945Y-97948145D01*
X102871377Y-98010736D01*
X102884090Y-98079987D01*
X102872463Y-98149332D01*
X102851568Y-98190625D01*
X102815422Y-98233975D01*
X102771276Y-98263519D01*
X102713462Y-98281345D01*
X102636313Y-98289537D01*
X102579714Y-98290698D01*
X102575647Y-98290542D01*
X102488568Y-98287190D01*
X102420086Y-98275274D01*
G37*
X102420086Y-98275274D02*
X102368600Y-98252865D01*
X102328443Y-98217876D01*
X102307861Y-98190625D01*
X102285625Y-98141093D01*
X102277837Y-98097776D01*
X102378843Y-98097776D01*
X102400159Y-98146204D01*
X102408073Y-98155550D01*
X102425647Y-98171460D01*
X102446587Y-98181390D01*
X102477782Y-98186722D01*
X102526122Y-98188837D01*
X102575647Y-98189143D01*
X102640550Y-98188524D01*
X102683514Y-98185686D01*
X102711622Y-98179160D01*
X102731953Y-98167477D01*
X102747288Y-98153517D01*
X102776890Y-98106635D01*
X102779419Y-98056299D01*
X102754705Y-98008724D01*
X102751356Y-98005021D01*
X102733935Y-97989217D01*
X102713209Y-97979307D01*
X102682362Y-97973942D01*
X102634577Y-97971772D01*
X102581748Y-97971429D01*
X102515381Y-97972173D01*
X102471106Y-97975252D01*
X102442009Y-97981939D01*
X102421173Y-97993504D01*
X102410107Y-98002987D01*
X102382198Y-98047040D01*
X102378843Y-98097776D01*
X102277837Y-98097776D01*
X102275304Y-98083684D01*
X102278067Y-98030318D01*
X102289212Y-98000457D01*
X102292383Y-97988739D01*
X102280557Y-97980963D01*
X102248866Y-97975535D01*
X102200593Y-97971429D01*
X102146829Y-97966933D01*
X102114482Y-97960687D01*
X102095985Y-97949324D01*
X102083770Y-97929472D01*
X102078362Y-97917000D01*
X102058601Y-97869829D01*
X102395358Y-97869883D01*
X102503837Y-97870067D01*
X102587287Y-97870781D01*
X102649704Y-97872325D01*
X102695085Y-97874999D01*
X102727429Y-97879106D01*
X102750733Y-97884945D01*
X102768995Y-97892818D01*
X102779418Y-97898779D01*
X102835945Y-97948145D01*
X102871377Y-98010736D01*
X102884090Y-98079987D01*
X102872463Y-98149332D01*
X102851568Y-98190625D01*
X102815422Y-98233975D01*
X102771276Y-98263519D01*
X102713462Y-98281345D01*
X102636313Y-98289537D01*
X102579714Y-98290698D01*
X102575647Y-98290542D01*
X102488568Y-98287190D01*
X102420086Y-98275274D01*
X102279755Y-98530074D02*
X102304084Y-98464142D01*
X102304084Y-98464142D02*
X102347117Y-98410727D01*
X102347117Y-98410727D02*
X102377409Y-98389836D01*
X102377409Y-98389836D02*
X102432994Y-98367061D01*
X102432994Y-98367061D02*
X102473186Y-98367534D01*
X102473186Y-98367534D02*
X102500217Y-98391438D01*
X102500217Y-98391438D02*
X102504813Y-98400283D01*
X102504813Y-98400283D02*
X102519144Y-98438470D01*
X102519144Y-98438470D02*
X102515472Y-98457972D01*
X102515472Y-98457972D02*
X102491407Y-98464578D01*
X102491407Y-98464578D02*
X102478114Y-98464914D01*
X102478114Y-98464914D02*
X102429210Y-98477008D01*
X102429210Y-98477008D02*
X102394999Y-98508529D01*
X102394999Y-98508529D02*
X102378476Y-98552341D01*
X102378476Y-98552341D02*
X102382634Y-98601305D01*
X102382634Y-98601305D02*
X102404227Y-98641106D01*
X102404227Y-98641106D02*
X102416544Y-98654550D01*
X102416544Y-98654550D02*
X102431487Y-98664079D01*
X102431487Y-98664079D02*
X102454075Y-98670515D01*
X102454075Y-98670515D02*
X102489328Y-98674683D01*
X102489328Y-98674683D02*
X102542266Y-98677403D01*
X102542266Y-98677403D02*
X102617907Y-98679498D01*
X102617907Y-98679498D02*
X102641857Y-98680040D01*
X102641857Y-98680040D02*
X102723790Y-98682019D01*
X102723790Y-98682019D02*
X102781455Y-98684269D01*
X102781455Y-98684269D02*
X102819608Y-98687643D01*
X102819608Y-98687643D02*
X102843004Y-98692994D01*
X102843004Y-98692994D02*
X102856398Y-98701176D01*
X102856398Y-98701176D02*
X102864545Y-98713041D01*
X102864545Y-98713041D02*
X102868144Y-98720638D01*
X102868144Y-98720638D02*
X102880452Y-98752898D01*
X102880452Y-98752898D02*
X102884514Y-98771889D01*
X102884514Y-98771889D02*
X102870948Y-98778164D01*
X102870948Y-98778164D02*
X102829934Y-98781994D01*
X102829934Y-98781994D02*
X102760999Y-98783400D01*
X102760999Y-98783400D02*
X102663669Y-98782402D01*
X102663669Y-98782402D02*
X102648657Y-98782092D01*
X102648657Y-98782092D02*
X102559859Y-98779899D01*
X102559859Y-98779899D02*
X102495019Y-98777307D01*
X102495019Y-98777307D02*
X102449067Y-98773618D01*
X102449067Y-98773618D02*
X102416935Y-98768136D01*
X102416935Y-98768136D02*
X102393553Y-98760165D01*
X102393553Y-98760165D02*
X102373852Y-98749007D01*
X102373852Y-98749007D02*
X102365410Y-98743170D01*
X102365410Y-98743170D02*
X102328057Y-98709704D01*
X102328057Y-98709704D02*
X102299003Y-98672273D01*
X102299003Y-98672273D02*
X102296467Y-98667691D01*
X102296467Y-98667691D02*
X102276443Y-98600574D01*
X102276443Y-98600574D02*
X102279755Y-98530074D01*
X102279755Y-98530074D02*
X102279755Y-98530074D01*
G36*
X102473186Y-98367534D02*
G01*
X102500217Y-98391438D01*
X102504813Y-98400283D01*
X102519144Y-98438470D01*
X102515472Y-98457972D01*
X102491407Y-98464578D01*
X102478114Y-98464914D01*
X102429210Y-98477008D01*
X102394999Y-98508529D01*
X102378476Y-98552341D01*
X102382634Y-98601305D01*
X102404227Y-98641106D01*
X102416544Y-98654550D01*
X102431487Y-98664079D01*
X102454075Y-98670515D01*
X102489328Y-98674683D01*
X102542266Y-98677403D01*
X102617907Y-98679498D01*
X102641857Y-98680040D01*
X102723790Y-98682019D01*
X102781455Y-98684269D01*
X102819608Y-98687643D01*
X102843004Y-98692994D01*
X102856398Y-98701176D01*
X102864545Y-98713041D01*
X102868144Y-98720638D01*
X102880452Y-98752898D01*
X102884514Y-98771889D01*
X102870948Y-98778164D01*
X102829934Y-98781994D01*
X102760999Y-98783400D01*
X102663669Y-98782402D01*
X102648657Y-98782092D01*
X102559859Y-98779899D01*
X102495019Y-98777307D01*
X102449067Y-98773618D01*
X102416935Y-98768136D01*
X102393553Y-98760165D01*
X102373852Y-98749007D01*
X102365410Y-98743170D01*
X102328057Y-98709704D01*
X102299003Y-98672273D01*
X102296467Y-98667691D01*
X102276443Y-98600574D01*
X102279755Y-98530074D01*
X102304084Y-98464142D01*
X102347117Y-98410727D01*
X102377409Y-98389836D01*
X102432994Y-98367061D01*
X102473186Y-98367534D01*
G37*
X102473186Y-98367534D02*
X102500217Y-98391438D01*
X102504813Y-98400283D01*
X102519144Y-98438470D01*
X102515472Y-98457972D01*
X102491407Y-98464578D01*
X102478114Y-98464914D01*
X102429210Y-98477008D01*
X102394999Y-98508529D01*
X102378476Y-98552341D01*
X102382634Y-98601305D01*
X102404227Y-98641106D01*
X102416544Y-98654550D01*
X102431487Y-98664079D01*
X102454075Y-98670515D01*
X102489328Y-98674683D01*
X102542266Y-98677403D01*
X102617907Y-98679498D01*
X102641857Y-98680040D01*
X102723790Y-98682019D01*
X102781455Y-98684269D01*
X102819608Y-98687643D01*
X102843004Y-98692994D01*
X102856398Y-98701176D01*
X102864545Y-98713041D01*
X102868144Y-98720638D01*
X102880452Y-98752898D01*
X102884514Y-98771889D01*
X102870948Y-98778164D01*
X102829934Y-98781994D01*
X102760999Y-98783400D01*
X102663669Y-98782402D01*
X102648657Y-98782092D01*
X102559859Y-98779899D01*
X102495019Y-98777307D01*
X102449067Y-98773618D01*
X102416935Y-98768136D01*
X102393553Y-98760165D01*
X102373852Y-98749007D01*
X102365410Y-98743170D01*
X102328057Y-98709704D01*
X102299003Y-98672273D01*
X102296467Y-98667691D01*
X102276443Y-98600574D01*
X102279755Y-98530074D01*
X102304084Y-98464142D01*
X102347117Y-98410727D01*
X102377409Y-98389836D01*
X102432994Y-98367061D01*
X102473186Y-98367534D01*
X102280968Y-99020256D02*
X102302087Y-98963384D01*
X102302087Y-98963384D02*
X102302493Y-98962733D01*
X102302493Y-98962733D02*
X102328380Y-98927560D01*
X102328380Y-98927560D02*
X102358633Y-98901593D01*
X102358633Y-98901593D02*
X102398058Y-98883330D01*
X102398058Y-98883330D02*
X102451462Y-98871268D01*
X102451462Y-98871268D02*
X102523651Y-98863904D01*
X102523651Y-98863904D02*
X102619432Y-98859736D01*
X102619432Y-98859736D02*
X102633078Y-98859371D01*
X102633078Y-98859371D02*
X102838842Y-98854124D01*
X102838842Y-98854124D02*
X102861678Y-98898284D01*
X102861678Y-98898284D02*
X102877110Y-98930237D01*
X102877110Y-98930237D02*
X102884423Y-98949530D01*
X102884423Y-98949530D02*
X102884514Y-98950422D01*
X102884514Y-98950422D02*
X102871022Y-98953761D01*
X102871022Y-98953761D02*
X102834626Y-98956413D01*
X102834626Y-98956413D02*
X102781452Y-98958044D01*
X102781452Y-98958044D02*
X102738393Y-98958400D01*
X102738393Y-98958400D02*
X102668641Y-98958408D01*
X102668641Y-98958408D02*
X102624837Y-98961597D01*
X102624837Y-98961597D02*
X102603944Y-98972712D01*
X102603944Y-98972712D02*
X102602925Y-98996499D01*
X102602925Y-98996499D02*
X102618741Y-99037704D01*
X102618741Y-99037704D02*
X102647815Y-99099914D01*
X102647815Y-99099914D02*
X102671963Y-99145659D01*
X102671963Y-99145659D02*
X102692913Y-99169187D01*
X102692913Y-99169187D02*
X102715747Y-99176104D01*
X102715747Y-99176104D02*
X102716877Y-99176114D01*
X102716877Y-99176114D02*
X102756212Y-99164701D01*
X102756212Y-99164701D02*
X102777462Y-99130908D01*
X102777462Y-99130908D02*
X102780539Y-99079191D01*
X102780539Y-99079191D02*
X102780006Y-99041939D01*
X102780006Y-99041939D02*
X102790735Y-99022297D01*
X102790735Y-99022297D02*
X102816505Y-99010048D01*
X102816505Y-99010048D02*
X102849337Y-99002998D01*
X102849337Y-99002998D02*
X102867966Y-99013158D01*
X102867966Y-99013158D02*
X102870632Y-99016983D01*
X102870632Y-99016983D02*
X102881340Y-99052999D01*
X102881340Y-99052999D02*
X102882856Y-99103434D01*
X102882856Y-99103434D02*
X102875759Y-99155374D01*
X102875759Y-99155374D02*
X102862788Y-99192178D01*
X102862788Y-99192178D02*
X102819585Y-99243062D01*
X102819585Y-99243062D02*
X102759446Y-99271986D01*
X102759446Y-99271986D02*
X102712462Y-99277714D01*
X102712462Y-99277714D02*
X102670082Y-99273343D01*
X102670082Y-99273343D02*
X102635488Y-99257525D01*
X102635488Y-99257525D02*
X102604763Y-99226203D01*
X102604763Y-99226203D02*
X102573990Y-99175322D01*
X102573990Y-99175322D02*
X102539252Y-99100824D01*
X102539252Y-99100824D02*
X102537288Y-99096286D01*
X102537288Y-99096286D02*
X102506287Y-99029179D01*
X102506287Y-99029179D02*
X102480862Y-98987768D01*
X102480862Y-98987768D02*
X102458014Y-98970019D01*
X102458014Y-98970019D02*
X102434745Y-98973893D01*
X102434745Y-98973893D02*
X102408056Y-98997357D01*
X102408056Y-98997357D02*
X102401914Y-99004373D01*
X102401914Y-99004373D02*
X102378100Y-99051370D01*
X102378100Y-99051370D02*
X102379103Y-99100067D01*
X102379103Y-99100067D02*
X102402451Y-99142478D01*
X102402451Y-99142478D02*
X102445675Y-99170616D01*
X102445675Y-99170616D02*
X102454160Y-99173231D01*
X102454160Y-99173231D02*
X102495308Y-99198692D01*
X102495308Y-99198692D02*
X102515128Y-99230999D01*
X102515128Y-99230999D02*
X102534770Y-99277714D01*
X102534770Y-99277714D02*
X102483950Y-99277714D01*
X102483950Y-99277714D02*
X102410082Y-99263504D01*
X102410082Y-99263504D02*
X102342327Y-99221325D01*
X102342327Y-99221325D02*
X102319661Y-99199376D01*
X102319661Y-99199376D02*
X102290569Y-99149483D01*
X102290569Y-99149483D02*
X102277400Y-99086033D01*
X102277400Y-99086033D02*
X102280968Y-99020256D01*
X102280968Y-99020256D02*
X102280968Y-99020256D01*
G36*
X102861678Y-98898284D02*
G01*
X102877110Y-98930237D01*
X102884423Y-98949530D01*
X102884514Y-98950422D01*
X102871022Y-98953761D01*
X102834626Y-98956413D01*
X102781452Y-98958044D01*
X102738393Y-98958400D01*
X102668641Y-98958408D01*
X102624837Y-98961597D01*
X102603944Y-98972712D01*
X102602925Y-98996499D01*
X102618741Y-99037704D01*
X102647815Y-99099914D01*
X102671963Y-99145659D01*
X102692913Y-99169187D01*
X102715747Y-99176104D01*
X102716877Y-99176114D01*
X102756212Y-99164701D01*
X102777462Y-99130908D01*
X102780539Y-99079191D01*
X102780006Y-99041939D01*
X102790735Y-99022297D01*
X102816505Y-99010048D01*
X102849337Y-99002998D01*
X102867966Y-99013158D01*
X102870632Y-99016983D01*
X102881340Y-99052999D01*
X102882856Y-99103434D01*
X102875759Y-99155374D01*
X102862788Y-99192178D01*
X102819585Y-99243062D01*
X102759446Y-99271986D01*
X102712462Y-99277714D01*
X102670082Y-99273343D01*
X102635488Y-99257525D01*
X102604763Y-99226203D01*
X102573990Y-99175322D01*
X102539252Y-99100824D01*
X102537288Y-99096286D01*
X102506287Y-99029179D01*
X102480862Y-98987768D01*
X102458014Y-98970019D01*
X102434745Y-98973893D01*
X102408056Y-98997357D01*
X102401914Y-99004373D01*
X102378100Y-99051370D01*
X102379103Y-99100067D01*
X102402451Y-99142478D01*
X102445675Y-99170616D01*
X102454160Y-99173231D01*
X102495308Y-99198692D01*
X102515128Y-99230999D01*
X102534770Y-99277714D01*
X102483950Y-99277714D01*
X102410082Y-99263504D01*
X102342327Y-99221325D01*
X102319661Y-99199376D01*
X102290569Y-99149483D01*
X102277400Y-99086033D01*
X102280968Y-99020256D01*
X102302087Y-98963384D01*
X102302493Y-98962733D01*
X102328380Y-98927560D01*
X102358633Y-98901593D01*
X102398058Y-98883330D01*
X102451462Y-98871268D01*
X102523651Y-98863904D01*
X102619432Y-98859736D01*
X102633078Y-98859371D01*
X102838842Y-98854124D01*
X102861678Y-98898284D01*
G37*
X102861678Y-98898284D02*
X102877110Y-98930237D01*
X102884423Y-98949530D01*
X102884514Y-98950422D01*
X102871022Y-98953761D01*
X102834626Y-98956413D01*
X102781452Y-98958044D01*
X102738393Y-98958400D01*
X102668641Y-98958408D01*
X102624837Y-98961597D01*
X102603944Y-98972712D01*
X102602925Y-98996499D01*
X102618741Y-99037704D01*
X102647815Y-99099914D01*
X102671963Y-99145659D01*
X102692913Y-99169187D01*
X102715747Y-99176104D01*
X102716877Y-99176114D01*
X102756212Y-99164701D01*
X102777462Y-99130908D01*
X102780539Y-99079191D01*
X102780006Y-99041939D01*
X102790735Y-99022297D01*
X102816505Y-99010048D01*
X102849337Y-99002998D01*
X102867966Y-99013158D01*
X102870632Y-99016983D01*
X102881340Y-99052999D01*
X102882856Y-99103434D01*
X102875759Y-99155374D01*
X102862788Y-99192178D01*
X102819585Y-99243062D01*
X102759446Y-99271986D01*
X102712462Y-99277714D01*
X102670082Y-99273343D01*
X102635488Y-99257525D01*
X102604763Y-99226203D01*
X102573990Y-99175322D01*
X102539252Y-99100824D01*
X102537288Y-99096286D01*
X102506287Y-99029179D01*
X102480862Y-98987768D01*
X102458014Y-98970019D01*
X102434745Y-98973893D01*
X102408056Y-98997357D01*
X102401914Y-99004373D01*
X102378100Y-99051370D01*
X102379103Y-99100067D01*
X102402451Y-99142478D01*
X102445675Y-99170616D01*
X102454160Y-99173231D01*
X102495308Y-99198692D01*
X102515128Y-99230999D01*
X102534770Y-99277714D01*
X102483950Y-99277714D01*
X102410082Y-99263504D01*
X102342327Y-99221325D01*
X102319661Y-99199376D01*
X102290569Y-99149483D01*
X102277400Y-99086033D01*
X102280968Y-99020256D01*
X102302087Y-98963384D01*
X102302493Y-98962733D01*
X102328380Y-98927560D01*
X102358633Y-98901593D01*
X102398058Y-98883330D01*
X102451462Y-98871268D01*
X102523651Y-98863904D01*
X102619432Y-98859736D01*
X102633078Y-98859371D01*
X102838842Y-98854124D01*
X102861678Y-98898284D01*
X102181289Y-99684114D02*
X102240613Y-99679861D01*
X102240613Y-99679861D02*
X102275572Y-99674975D01*
X102275572Y-99674975D02*
X102290820Y-99668205D01*
X102290820Y-99668205D02*
X102291015Y-99658298D01*
X102291015Y-99658298D02*
X102289195Y-99655086D01*
X102289195Y-99655086D02*
X102276015Y-99612356D01*
X102276015Y-99612356D02*
X102276785Y-99556773D01*
X102276785Y-99556773D02*
X102290333Y-99500263D01*
X102290333Y-99500263D02*
X102307861Y-99464918D01*
X102307861Y-99464918D02*
X102335861Y-99428679D01*
X102335861Y-99428679D02*
X102367549Y-99402187D01*
X102367549Y-99402187D02*
X102407813Y-99384001D01*
X102407813Y-99384001D02*
X102461543Y-99372678D01*
X102461543Y-99372678D02*
X102533626Y-99366778D01*
X102533626Y-99366778D02*
X102628951Y-99364857D01*
X102628951Y-99364857D02*
X102647237Y-99364823D01*
X102647237Y-99364823D02*
X102852646Y-99364800D01*
X102852646Y-99364800D02*
X102868580Y-99410509D01*
X102868580Y-99410509D02*
X102879420Y-99442973D01*
X102879420Y-99442973D02*
X102884468Y-99460785D01*
X102884468Y-99460785D02*
X102884514Y-99461309D01*
X102884514Y-99461309D02*
X102870828Y-99463063D01*
X102870828Y-99463063D02*
X102833076Y-99464556D01*
X102833076Y-99464556D02*
X102776224Y-99465674D01*
X102776224Y-99465674D02*
X102705234Y-99466303D01*
X102705234Y-99466303D02*
X102662073Y-99466400D01*
X102662073Y-99466400D02*
X102576973Y-99466602D01*
X102576973Y-99466602D02*
X102515981Y-99467642D01*
X102515981Y-99467642D02*
X102474177Y-99470169D01*
X102474177Y-99470169D02*
X102446642Y-99474836D01*
X102446642Y-99474836D02*
X102428456Y-99482293D01*
X102428456Y-99482293D02*
X102414698Y-99493189D01*
X102414698Y-99493189D02*
X102408073Y-99499993D01*
X102408073Y-99499993D02*
X102381375Y-99546728D01*
X102381375Y-99546728D02*
X102379375Y-99597728D01*
X102379375Y-99597728D02*
X102401955Y-99643999D01*
X102401955Y-99643999D02*
X102410107Y-99652556D01*
X102410107Y-99652556D02*
X102425436Y-99665107D01*
X102425436Y-99665107D02*
X102443618Y-99673812D01*
X102443618Y-99673812D02*
X102469909Y-99679369D01*
X102469909Y-99679369D02*
X102509562Y-99682474D01*
X102509562Y-99682474D02*
X102567832Y-99683824D01*
X102567832Y-99683824D02*
X102648173Y-99684114D01*
X102648173Y-99684114D02*
X102852646Y-99684114D01*
X102852646Y-99684114D02*
X102868580Y-99729823D01*
X102868580Y-99729823D02*
X102879420Y-99762287D01*
X102879420Y-99762287D02*
X102884468Y-99780099D01*
X102884468Y-99780099D02*
X102884514Y-99780623D01*
X102884514Y-99780623D02*
X102870623Y-99781963D01*
X102870623Y-99781963D02*
X102831439Y-99783172D01*
X102831439Y-99783172D02*
X102770700Y-99784199D01*
X102770700Y-99784199D02*
X102692141Y-99784998D01*
X102692141Y-99784998D02*
X102599498Y-99785519D01*
X102599498Y-99785519D02*
X102496509Y-99785714D01*
X102496509Y-99785714D02*
X102099342Y-99785714D01*
X102099342Y-99785714D02*
X102079444Y-99738543D01*
X102079444Y-99738543D02*
X102059547Y-99691371D01*
X102059547Y-99691371D02*
X102181289Y-99684114D01*
X102181289Y-99684114D02*
X102181289Y-99684114D01*
G36*
X102868580Y-99410509D02*
G01*
X102879420Y-99442973D01*
X102884468Y-99460785D01*
X102884514Y-99461309D01*
X102870828Y-99463063D01*
X102833076Y-99464556D01*
X102776224Y-99465674D01*
X102705234Y-99466303D01*
X102662073Y-99466400D01*
X102576973Y-99466602D01*
X102515981Y-99467642D01*
X102474177Y-99470169D01*
X102446642Y-99474836D01*
X102428456Y-99482293D01*
X102414698Y-99493189D01*
X102408073Y-99499993D01*
X102381375Y-99546728D01*
X102379375Y-99597728D01*
X102401955Y-99643999D01*
X102410107Y-99652556D01*
X102425436Y-99665107D01*
X102443618Y-99673812D01*
X102469909Y-99679369D01*
X102509562Y-99682474D01*
X102567832Y-99683824D01*
X102648173Y-99684114D01*
X102852646Y-99684114D01*
X102868580Y-99729823D01*
X102879420Y-99762287D01*
X102884468Y-99780099D01*
X102884514Y-99780623D01*
X102870623Y-99781963D01*
X102831439Y-99783172D01*
X102770700Y-99784199D01*
X102692141Y-99784998D01*
X102599498Y-99785519D01*
X102496509Y-99785714D01*
X102099342Y-99785714D01*
X102079444Y-99738543D01*
X102059547Y-99691371D01*
X102181289Y-99684114D01*
X102240613Y-99679861D01*
X102275572Y-99674975D01*
X102290820Y-99668205D01*
X102291015Y-99658298D01*
X102289195Y-99655086D01*
X102276015Y-99612356D01*
X102276785Y-99556773D01*
X102290333Y-99500263D01*
X102307861Y-99464918D01*
X102335861Y-99428679D01*
X102367549Y-99402187D01*
X102407813Y-99384001D01*
X102461543Y-99372678D01*
X102533626Y-99366778D01*
X102628951Y-99364857D01*
X102647237Y-99364823D01*
X102852646Y-99364800D01*
X102868580Y-99410509D01*
G37*
X102868580Y-99410509D02*
X102879420Y-99442973D01*
X102884468Y-99460785D01*
X102884514Y-99461309D01*
X102870828Y-99463063D01*
X102833076Y-99464556D01*
X102776224Y-99465674D01*
X102705234Y-99466303D01*
X102662073Y-99466400D01*
X102576973Y-99466602D01*
X102515981Y-99467642D01*
X102474177Y-99470169D01*
X102446642Y-99474836D01*
X102428456Y-99482293D01*
X102414698Y-99493189D01*
X102408073Y-99499993D01*
X102381375Y-99546728D01*
X102379375Y-99597728D01*
X102401955Y-99643999D01*
X102410107Y-99652556D01*
X102425436Y-99665107D01*
X102443618Y-99673812D01*
X102469909Y-99679369D01*
X102509562Y-99682474D01*
X102567832Y-99683824D01*
X102648173Y-99684114D01*
X102852646Y-99684114D01*
X102868580Y-99729823D01*
X102879420Y-99762287D01*
X102884468Y-99780099D01*
X102884514Y-99780623D01*
X102870623Y-99781963D01*
X102831439Y-99783172D01*
X102770700Y-99784199D01*
X102692141Y-99784998D01*
X102599498Y-99785519D01*
X102496509Y-99785714D01*
X102099342Y-99785714D01*
X102079444Y-99738543D01*
X102059547Y-99691371D01*
X102181289Y-99684114D01*
X102240613Y-99679861D01*
X102275572Y-99674975D01*
X102290820Y-99668205D01*
X102291015Y-99658298D01*
X102289195Y-99655086D01*
X102276015Y-99612356D01*
X102276785Y-99556773D01*
X102290333Y-99500263D01*
X102307861Y-99464918D01*
X102335861Y-99428679D01*
X102367549Y-99402187D01*
X102407813Y-99384001D01*
X102461543Y-99372678D01*
X102533626Y-99366778D01*
X102628951Y-99364857D01*
X102647237Y-99364823D01*
X102852646Y-99364800D01*
X102868580Y-99410509D01*
X102261239Y-100891697D02*
X102299735Y-100834473D01*
X102299735Y-100834473D02*
X102355335Y-100790251D01*
X102355335Y-100790251D02*
X102426086Y-100763833D01*
X102426086Y-100763833D02*
X102478162Y-100758490D01*
X102478162Y-100758490D02*
X102499893Y-100759097D01*
X102499893Y-100759097D02*
X102516531Y-100764178D01*
X102516531Y-100764178D02*
X102531437Y-100778145D01*
X102531437Y-100778145D02*
X102547973Y-100805411D01*
X102547973Y-100805411D02*
X102569498Y-100850388D01*
X102569498Y-100850388D02*
X102599374Y-100917489D01*
X102599374Y-100917489D02*
X102599524Y-100917829D01*
X102599524Y-100917829D02*
X102627813Y-100979593D01*
X102627813Y-100979593D02*
X102652933Y-101030241D01*
X102652933Y-101030241D02*
X102672179Y-101064596D01*
X102672179Y-101064596D02*
X102682848Y-101077482D01*
X102682848Y-101077482D02*
X102682934Y-101077486D01*
X102682934Y-101077486D02*
X102706166Y-101066128D01*
X102706166Y-101066128D02*
X102731774Y-101039569D01*
X102731774Y-101039569D02*
X102750221Y-101009077D01*
X102750221Y-101009077D02*
X102753886Y-100993630D01*
X102753886Y-100993630D02*
X102741212Y-100951485D01*
X102741212Y-100951485D02*
X102709471Y-100915192D01*
X102709471Y-100915192D02*
X102674572Y-100897483D01*
X102674572Y-100897483D02*
X102648845Y-100880448D01*
X102648845Y-100880448D02*
X102619546Y-100847078D01*
X102619546Y-100847078D02*
X102594235Y-100807851D01*
X102594235Y-100807851D02*
X102580471Y-100773244D01*
X102580471Y-100773244D02*
X102579714Y-100766007D01*
X102579714Y-100766007D02*
X102592160Y-100757861D01*
X102592160Y-100757861D02*
X102623972Y-100757370D01*
X102623972Y-100757370D02*
X102666866Y-100763357D01*
X102666866Y-100763357D02*
X102712558Y-100774643D01*
X102712558Y-100774643D02*
X102752761Y-100790050D01*
X102752761Y-100790050D02*
X102754322Y-100790829D01*
X102754322Y-100790829D02*
X102819062Y-100837196D01*
X102819062Y-100837196D02*
X102863097Y-100897289D01*
X102863097Y-100897289D02*
X102884711Y-100965535D01*
X102884711Y-100965535D02*
X102882185Y-101036362D01*
X102882185Y-101036362D02*
X102853804Y-101104196D01*
X102853804Y-101104196D02*
X102851808Y-101107212D01*
X102851808Y-101107212D02*
X102803448Y-101160573D01*
X102803448Y-101160573D02*
X102740352Y-101195660D01*
X102740352Y-101195660D02*
X102657387Y-101215078D01*
X102657387Y-101215078D02*
X102634078Y-101217684D01*
X102634078Y-101217684D02*
X102524055Y-101222299D01*
X102524055Y-101222299D02*
X102472748Y-101216767D01*
X102472748Y-101216767D02*
X102472748Y-101077486D01*
X102472748Y-101077486D02*
X102504753Y-101075676D01*
X102504753Y-101075676D02*
X102514093Y-101065778D01*
X102514093Y-101065778D02*
X102507105Y-101041102D01*
X102507105Y-101041102D02*
X102490587Y-101002205D01*
X102490587Y-101002205D02*
X102469881Y-100958725D01*
X102469881Y-100958725D02*
X102469333Y-100957644D01*
X102469333Y-100957644D02*
X102449949Y-100920791D01*
X102449949Y-100920791D02*
X102437013Y-100906000D01*
X102437013Y-100906000D02*
X102423451Y-100909647D01*
X102423451Y-100909647D02*
X102405632Y-100925005D01*
X102405632Y-100925005D02*
X102379845Y-100964077D01*
X102379845Y-100964077D02*
X102377950Y-101006154D01*
X102377950Y-101006154D02*
X102396717Y-101043897D01*
X102396717Y-101043897D02*
X102432915Y-101069966D01*
X102432915Y-101069966D02*
X102472748Y-101077486D01*
X102472748Y-101077486D02*
X102472748Y-101216767D01*
X102472748Y-101216767D02*
X102436027Y-101212806D01*
X102436027Y-101212806D02*
X102366212Y-101188450D01*
X102366212Y-101188450D02*
X102317302Y-101154544D01*
X102317302Y-101154544D02*
X102267878Y-101093347D01*
X102267878Y-101093347D02*
X102243359Y-101025937D01*
X102243359Y-101025937D02*
X102241797Y-100957120D01*
X102241797Y-100957120D02*
X102261239Y-100891697D01*
X102261239Y-100891697D02*
X102261239Y-100891697D01*
G36*
X102366212Y-101188450D02*
G01*
X102317302Y-101154544D01*
X102267878Y-101093347D01*
X102243359Y-101025937D01*
X102242910Y-101006154D01*
X102377950Y-101006154D01*
X102396717Y-101043897D01*
X102432915Y-101069966D01*
X102472748Y-101077486D01*
X102504753Y-101075676D01*
X102514093Y-101065778D01*
X102507105Y-101041102D01*
X102490587Y-101002205D01*
X102469881Y-100958725D01*
X102469333Y-100957644D01*
X102449949Y-100920791D01*
X102437013Y-100906000D01*
X102423451Y-100909647D01*
X102405632Y-100925005D01*
X102379845Y-100964077D01*
X102377950Y-101006154D01*
X102242910Y-101006154D01*
X102241797Y-100957120D01*
X102261239Y-100891697D01*
X102299735Y-100834473D01*
X102355335Y-100790251D01*
X102426086Y-100763833D01*
X102478162Y-100758490D01*
X102499893Y-100759097D01*
X102516531Y-100764178D01*
X102531437Y-100778145D01*
X102547973Y-100805411D01*
X102569498Y-100850388D01*
X102599374Y-100917489D01*
X102599524Y-100917829D01*
X102627813Y-100979593D01*
X102652933Y-101030241D01*
X102672179Y-101064596D01*
X102682848Y-101077482D01*
X102682934Y-101077486D01*
X102706166Y-101066128D01*
X102731774Y-101039569D01*
X102750221Y-101009077D01*
X102753886Y-100993630D01*
X102741212Y-100951485D01*
X102709471Y-100915192D01*
X102674572Y-100897483D01*
X102648845Y-100880448D01*
X102619546Y-100847078D01*
X102594235Y-100807851D01*
X102580471Y-100773244D01*
X102579714Y-100766007D01*
X102592160Y-100757861D01*
X102623972Y-100757370D01*
X102666866Y-100763357D01*
X102712558Y-100774643D01*
X102752761Y-100790050D01*
X102754322Y-100790829D01*
X102819062Y-100837196D01*
X102863097Y-100897289D01*
X102884711Y-100965535D01*
X102882185Y-101036362D01*
X102853804Y-101104196D01*
X102851808Y-101107212D01*
X102803448Y-101160573D01*
X102740352Y-101195660D01*
X102657387Y-101215078D01*
X102634078Y-101217684D01*
X102524055Y-101222299D01*
X102472748Y-101216767D01*
X102436027Y-101212806D01*
X102366212Y-101188450D01*
G37*
X102366212Y-101188450D02*
X102317302Y-101154544D01*
X102267878Y-101093347D01*
X102243359Y-101025937D01*
X102242910Y-101006154D01*
X102377950Y-101006154D01*
X102396717Y-101043897D01*
X102432915Y-101069966D01*
X102472748Y-101077486D01*
X102504753Y-101075676D01*
X102514093Y-101065778D01*
X102507105Y-101041102D01*
X102490587Y-101002205D01*
X102469881Y-100958725D01*
X102469333Y-100957644D01*
X102449949Y-100920791D01*
X102437013Y-100906000D01*
X102423451Y-100909647D01*
X102405632Y-100925005D01*
X102379845Y-100964077D01*
X102377950Y-101006154D01*
X102242910Y-101006154D01*
X102241797Y-100957120D01*
X102261239Y-100891697D01*
X102299735Y-100834473D01*
X102355335Y-100790251D01*
X102426086Y-100763833D01*
X102478162Y-100758490D01*
X102499893Y-100759097D01*
X102516531Y-100764178D01*
X102531437Y-100778145D01*
X102547973Y-100805411D01*
X102569498Y-100850388D01*
X102599374Y-100917489D01*
X102599524Y-100917829D01*
X102627813Y-100979593D01*
X102652933Y-101030241D01*
X102672179Y-101064596D01*
X102682848Y-101077482D01*
X102682934Y-101077486D01*
X102706166Y-101066128D01*
X102731774Y-101039569D01*
X102750221Y-101009077D01*
X102753886Y-100993630D01*
X102741212Y-100951485D01*
X102709471Y-100915192D01*
X102674572Y-100897483D01*
X102648845Y-100880448D01*
X102619546Y-100847078D01*
X102594235Y-100807851D01*
X102580471Y-100773244D01*
X102579714Y-100766007D01*
X102592160Y-100757861D01*
X102623972Y-100757370D01*
X102666866Y-100763357D01*
X102712558Y-100774643D01*
X102752761Y-100790050D01*
X102754322Y-100790829D01*
X102819062Y-100837196D01*
X102863097Y-100897289D01*
X102884711Y-100965535D01*
X102882185Y-101036362D01*
X102853804Y-101104196D01*
X102851808Y-101107212D01*
X102803448Y-101160573D01*
X102740352Y-101195660D01*
X102657387Y-101215078D01*
X102634078Y-101217684D01*
X102524055Y-101222299D01*
X102472748Y-101216767D01*
X102436027Y-101212806D01*
X102366212Y-101188450D01*
X102251962Y-102018885D02*
X102287733Y-101950855D01*
X102287733Y-101950855D02*
X102345301Y-101900649D01*
X102345301Y-101900649D02*
X102382312Y-101882815D01*
X102382312Y-101882815D02*
X102437882Y-101868937D01*
X102437882Y-101868937D02*
X102508096Y-101861833D01*
X102508096Y-101861833D02*
X102584727Y-101861160D01*
X102584727Y-101861160D02*
X102659552Y-101866573D01*
X102659552Y-101866573D02*
X102724342Y-101877730D01*
X102724342Y-101877730D02*
X102770873Y-101894286D01*
X102770873Y-101894286D02*
X102778887Y-101899374D01*
X102778887Y-101899374D02*
X102838707Y-101959645D01*
X102838707Y-101959645D02*
X102874535Y-102031231D01*
X102874535Y-102031231D02*
X102885020Y-102108908D01*
X102885020Y-102108908D02*
X102868810Y-102187452D01*
X102868810Y-102187452D02*
X102859092Y-102209311D01*
X102859092Y-102209311D02*
X102829143Y-102251878D01*
X102829143Y-102251878D02*
X102789433Y-102289237D01*
X102789433Y-102289237D02*
X102784397Y-102292768D01*
X102784397Y-102292768D02*
X102760124Y-102307119D01*
X102760124Y-102307119D02*
X102734178Y-102316606D01*
X102734178Y-102316606D02*
X102700022Y-102322210D01*
X102700022Y-102322210D02*
X102651119Y-102324914D01*
X102651119Y-102324914D02*
X102580935Y-102325701D01*
X102580935Y-102325701D02*
X102565200Y-102325714D01*
X102565200Y-102325714D02*
X102560192Y-102325678D01*
X102560192Y-102325678D02*
X102560192Y-102180571D01*
X102560192Y-102180571D02*
X102626430Y-102179727D01*
X102626430Y-102179727D02*
X102670386Y-102176404D01*
X102670386Y-102176404D02*
X102698779Y-102169417D01*
X102698779Y-102169417D02*
X102718325Y-102157584D01*
X102718325Y-102157584D02*
X102724857Y-102151543D01*
X102724857Y-102151543D02*
X102749680Y-102116814D01*
X102749680Y-102116814D02*
X102748548Y-102083097D01*
X102748548Y-102083097D02*
X102727016Y-102049005D01*
X102727016Y-102049005D02*
X102704029Y-102028671D01*
X102704029Y-102028671D02*
X102670478Y-102016629D01*
X102670478Y-102016629D02*
X102617569Y-102009866D01*
X102617569Y-102009866D02*
X102611399Y-102009402D01*
X102611399Y-102009402D02*
X102515513Y-102008248D01*
X102515513Y-102008248D02*
X102444299Y-102020312D01*
X102444299Y-102020312D02*
X102398194Y-102045430D01*
X102398194Y-102045430D02*
X102377635Y-102083440D01*
X102377635Y-102083440D02*
X102376514Y-102097008D01*
X102376514Y-102097008D02*
X102382152Y-102132636D01*
X102382152Y-102132636D02*
X102401686Y-102157006D01*
X102401686Y-102157006D02*
X102439042Y-102171907D01*
X102439042Y-102171907D02*
X102498150Y-102179125D01*
X102498150Y-102179125D02*
X102560192Y-102180571D01*
X102560192Y-102180571D02*
X102560192Y-102325678D01*
X102560192Y-102325678D02*
X102490413Y-102325174D01*
X102490413Y-102325174D02*
X102438159Y-102322904D01*
X102438159Y-102322904D02*
X102401949Y-102317932D01*
X102401949Y-102317932D02*
X102375299Y-102309287D01*
X102375299Y-102309287D02*
X102351722Y-102295995D01*
X102351722Y-102295995D02*
X102347338Y-102293057D01*
X102347338Y-102293057D02*
X102288249Y-102243687D01*
X102288249Y-102243687D02*
X102253947Y-102189891D01*
X102253947Y-102189891D02*
X102240331Y-102124398D01*
X102240331Y-102124398D02*
X102239665Y-102102158D01*
X102239665Y-102102158D02*
X102251962Y-102018885D01*
X102251962Y-102018885D02*
X102251962Y-102018885D01*
G36*
X102438159Y-102322904D02*
G01*
X102401949Y-102317932D01*
X102375299Y-102309287D01*
X102351722Y-102295995D01*
X102347338Y-102293057D01*
X102288249Y-102243687D01*
X102253947Y-102189891D01*
X102240331Y-102124398D01*
X102239665Y-102102158D01*
X102240426Y-102097008D01*
X102376514Y-102097008D01*
X102382152Y-102132636D01*
X102401686Y-102157006D01*
X102439042Y-102171907D01*
X102498150Y-102179125D01*
X102560192Y-102180571D01*
X102626430Y-102179727D01*
X102670386Y-102176404D01*
X102698779Y-102169417D01*
X102718325Y-102157584D01*
X102724857Y-102151543D01*
X102749680Y-102116814D01*
X102748548Y-102083097D01*
X102727016Y-102049005D01*
X102704029Y-102028671D01*
X102670478Y-102016629D01*
X102617569Y-102009866D01*
X102611399Y-102009402D01*
X102515513Y-102008248D01*
X102444299Y-102020312D01*
X102398194Y-102045430D01*
X102377635Y-102083440D01*
X102376514Y-102097008D01*
X102240426Y-102097008D01*
X102251962Y-102018885D01*
X102287733Y-101950855D01*
X102345301Y-101900649D01*
X102382312Y-101882815D01*
X102437882Y-101868937D01*
X102508096Y-101861833D01*
X102584727Y-101861160D01*
X102659552Y-101866573D01*
X102724342Y-101877730D01*
X102770873Y-101894286D01*
X102778887Y-101899374D01*
X102838707Y-101959645D01*
X102874535Y-102031231D01*
X102885020Y-102108908D01*
X102868810Y-102187452D01*
X102859092Y-102209311D01*
X102829143Y-102251878D01*
X102789433Y-102289237D01*
X102784397Y-102292768D01*
X102760124Y-102307119D01*
X102734178Y-102316606D01*
X102700022Y-102322210D01*
X102651119Y-102324914D01*
X102580935Y-102325701D01*
X102565200Y-102325714D01*
X102560192Y-102325678D01*
X102490413Y-102325174D01*
X102438159Y-102322904D01*
G37*
X102438159Y-102322904D02*
X102401949Y-102317932D01*
X102375299Y-102309287D01*
X102351722Y-102295995D01*
X102347338Y-102293057D01*
X102288249Y-102243687D01*
X102253947Y-102189891D01*
X102240331Y-102124398D01*
X102239665Y-102102158D01*
X102240426Y-102097008D01*
X102376514Y-102097008D01*
X102382152Y-102132636D01*
X102401686Y-102157006D01*
X102439042Y-102171907D01*
X102498150Y-102179125D01*
X102560192Y-102180571D01*
X102626430Y-102179727D01*
X102670386Y-102176404D01*
X102698779Y-102169417D01*
X102718325Y-102157584D01*
X102724857Y-102151543D01*
X102749680Y-102116814D01*
X102748548Y-102083097D01*
X102727016Y-102049005D01*
X102704029Y-102028671D01*
X102670478Y-102016629D01*
X102617569Y-102009866D01*
X102611399Y-102009402D01*
X102515513Y-102008248D01*
X102444299Y-102020312D01*
X102398194Y-102045430D01*
X102377635Y-102083440D01*
X102376514Y-102097008D01*
X102240426Y-102097008D01*
X102251962Y-102018885D01*
X102287733Y-101950855D01*
X102345301Y-101900649D01*
X102382312Y-101882815D01*
X102437882Y-101868937D01*
X102508096Y-101861833D01*
X102584727Y-101861160D01*
X102659552Y-101866573D01*
X102724342Y-101877730D01*
X102770873Y-101894286D01*
X102778887Y-101899374D01*
X102838707Y-101959645D01*
X102874535Y-102031231D01*
X102885020Y-102108908D01*
X102868810Y-102187452D01*
X102859092Y-102209311D01*
X102829143Y-102251878D01*
X102789433Y-102289237D01*
X102784397Y-102292768D01*
X102760124Y-102307119D01*
X102734178Y-102316606D01*
X102700022Y-102322210D01*
X102651119Y-102324914D01*
X102580935Y-102325701D01*
X102565200Y-102325714D01*
X102560192Y-102325678D01*
X102490413Y-102325174D01*
X102438159Y-102322904D01*
X102257780Y-100343907D02*
X102284723Y-100297328D01*
X102284723Y-100297328D02*
X102311466Y-100264943D01*
X102311466Y-100264943D02*
X102339484Y-100241258D01*
X102339484Y-100241258D02*
X102373748Y-100224941D01*
X102373748Y-100224941D02*
X102419227Y-100214661D01*
X102419227Y-100214661D02*
X102480892Y-100209086D01*
X102480892Y-100209086D02*
X102563711Y-100206884D01*
X102563711Y-100206884D02*
X102623246Y-100206629D01*
X102623246Y-100206629D02*
X102842391Y-100206629D01*
X102842391Y-100206629D02*
X102870044Y-100268314D01*
X102870044Y-100268314D02*
X102897697Y-100330000D01*
X102897697Y-100330000D02*
X102657670Y-100337257D01*
X102657670Y-100337257D02*
X102568028Y-100340256D01*
X102568028Y-100340256D02*
X102502962Y-100343402D01*
X102502962Y-100343402D02*
X102458026Y-100347299D01*
X102458026Y-100347299D02*
X102428770Y-100352553D01*
X102428770Y-100352553D02*
X102410748Y-100359769D01*
X102410748Y-100359769D02*
X102399511Y-100369550D01*
X102399511Y-100369550D02*
X102397079Y-100372688D01*
X102397079Y-100372688D02*
X102378083Y-100420239D01*
X102378083Y-100420239D02*
X102385600Y-100468303D01*
X102385600Y-100468303D02*
X102405543Y-100496914D01*
X102405543Y-100496914D02*
X102419675Y-100508553D01*
X102419675Y-100508553D02*
X102438220Y-100516609D01*
X102438220Y-100516609D02*
X102466334Y-100521729D01*
X102466334Y-100521729D02*
X102509173Y-100524559D01*
X102509173Y-100524559D02*
X102571895Y-100525744D01*
X102571895Y-100525744D02*
X102637261Y-100525943D01*
X102637261Y-100525943D02*
X102719268Y-100525982D01*
X102719268Y-100525982D02*
X102777316Y-100527386D01*
X102777316Y-100527386D02*
X102816465Y-100532086D01*
X102816465Y-100532086D02*
X102841780Y-100542013D01*
X102841780Y-100542013D02*
X102858323Y-100559097D01*
X102858323Y-100559097D02*
X102871156Y-100585268D01*
X102871156Y-100585268D02*
X102884491Y-100620225D01*
X102884491Y-100620225D02*
X102899007Y-100658404D01*
X102899007Y-100658404D02*
X102641389Y-100653859D01*
X102641389Y-100653859D02*
X102548519Y-100652029D01*
X102548519Y-100652029D02*
X102479889Y-100649888D01*
X102479889Y-100649888D02*
X102430711Y-100646819D01*
X102430711Y-100646819D02*
X102396198Y-100642206D01*
X102396198Y-100642206D02*
X102371562Y-100635432D01*
X102371562Y-100635432D02*
X102352016Y-100625881D01*
X102352016Y-100625881D02*
X102334770Y-100614366D01*
X102334770Y-100614366D02*
X102279680Y-100558810D01*
X102279680Y-100558810D02*
X102247822Y-100491020D01*
X102247822Y-100491020D02*
X102240191Y-100417287D01*
X102240191Y-100417287D02*
X102257780Y-100343907D01*
X102257780Y-100343907D02*
X102257780Y-100343907D01*
G36*
X102870044Y-100268314D02*
G01*
X102897697Y-100330000D01*
X102657670Y-100337257D01*
X102568028Y-100340256D01*
X102502962Y-100343402D01*
X102458026Y-100347299D01*
X102428770Y-100352553D01*
X102410748Y-100359769D01*
X102399511Y-100369550D01*
X102397079Y-100372688D01*
X102378083Y-100420239D01*
X102385600Y-100468303D01*
X102405543Y-100496914D01*
X102419675Y-100508553D01*
X102438220Y-100516609D01*
X102466334Y-100521729D01*
X102509173Y-100524559D01*
X102571895Y-100525744D01*
X102637261Y-100525943D01*
X102719268Y-100525982D01*
X102777316Y-100527386D01*
X102816465Y-100532086D01*
X102841780Y-100542013D01*
X102858323Y-100559097D01*
X102871156Y-100585268D01*
X102884491Y-100620225D01*
X102899007Y-100658404D01*
X102641389Y-100653859D01*
X102548519Y-100652029D01*
X102479889Y-100649888D01*
X102430711Y-100646819D01*
X102396198Y-100642206D01*
X102371562Y-100635432D01*
X102352016Y-100625881D01*
X102334770Y-100614366D01*
X102279680Y-100558810D01*
X102247822Y-100491020D01*
X102240191Y-100417287D01*
X102257780Y-100343907D01*
X102284723Y-100297328D01*
X102311466Y-100264943D01*
X102339484Y-100241258D01*
X102373748Y-100224941D01*
X102419227Y-100214661D01*
X102480892Y-100209086D01*
X102563711Y-100206884D01*
X102623246Y-100206629D01*
X102842391Y-100206629D01*
X102870044Y-100268314D01*
G37*
X102870044Y-100268314D02*
X102897697Y-100330000D01*
X102657670Y-100337257D01*
X102568028Y-100340256D01*
X102502962Y-100343402D01*
X102458026Y-100347299D01*
X102428770Y-100352553D01*
X102410748Y-100359769D01*
X102399511Y-100369550D01*
X102397079Y-100372688D01*
X102378083Y-100420239D01*
X102385600Y-100468303D01*
X102405543Y-100496914D01*
X102419675Y-100508553D01*
X102438220Y-100516609D01*
X102466334Y-100521729D01*
X102509173Y-100524559D01*
X102571895Y-100525744D01*
X102637261Y-100525943D01*
X102719268Y-100525982D01*
X102777316Y-100527386D01*
X102816465Y-100532086D01*
X102841780Y-100542013D01*
X102858323Y-100559097D01*
X102871156Y-100585268D01*
X102884491Y-100620225D01*
X102899007Y-100658404D01*
X102641389Y-100653859D01*
X102548519Y-100652029D01*
X102479889Y-100649888D01*
X102430711Y-100646819D01*
X102396198Y-100642206D01*
X102371562Y-100635432D01*
X102352016Y-100625881D01*
X102334770Y-100614366D01*
X102279680Y-100558810D01*
X102247822Y-100491020D01*
X102240191Y-100417287D01*
X102257780Y-100343907D01*
X102284723Y-100297328D01*
X102311466Y-100264943D01*
X102339484Y-100241258D01*
X102373748Y-100224941D01*
X102419227Y-100214661D01*
X102480892Y-100209086D01*
X102563711Y-100206884D01*
X102623246Y-100206629D01*
X102842391Y-100206629D01*
X102870044Y-100268314D01*
X102249918Y-101460256D02*
X102277568Y-101404799D01*
X102277568Y-101404799D02*
X102328480Y-101355852D01*
X102328480Y-101355852D02*
X102347338Y-101342371D01*
X102347338Y-101342371D02*
X102372015Y-101327686D01*
X102372015Y-101327686D02*
X102398816Y-101318158D01*
X102398816Y-101318158D02*
X102434587Y-101312707D01*
X102434587Y-101312707D02*
X102486169Y-101310253D01*
X102486169Y-101310253D02*
X102554267Y-101309714D01*
X102554267Y-101309714D02*
X102647588Y-101312148D01*
X102647588Y-101312148D02*
X102717657Y-101320606D01*
X102717657Y-101320606D02*
X102769931Y-101336826D01*
X102769931Y-101336826D02*
X102809869Y-101362546D01*
X102809869Y-101362546D02*
X102842929Y-101399503D01*
X102842929Y-101399503D02*
X102844886Y-101402218D01*
X102844886Y-101402218D02*
X102864908Y-101438640D01*
X102864908Y-101438640D02*
X102874815Y-101482498D01*
X102874815Y-101482498D02*
X102877257Y-101538276D01*
X102877257Y-101538276D02*
X102877257Y-101628952D01*
X102877257Y-101628952D02*
X102965283Y-101628990D01*
X102965283Y-101628990D02*
X103014308Y-101629834D01*
X103014308Y-101629834D02*
X103043065Y-101634976D01*
X103043065Y-101634976D02*
X103060311Y-101648413D01*
X103060311Y-101648413D02*
X103074808Y-101674142D01*
X103074808Y-101674142D02*
X103077769Y-101680321D01*
X103077769Y-101680321D02*
X103091648Y-101709236D01*
X103091648Y-101709236D02*
X103100414Y-101731624D01*
X103100414Y-101731624D02*
X103101171Y-101748271D01*
X103101171Y-101748271D02*
X103091023Y-101759964D01*
X103091023Y-101759964D02*
X103067073Y-101767490D01*
X103067073Y-101767490D02*
X103026426Y-101771634D01*
X103026426Y-101771634D02*
X102966186Y-101773185D01*
X102966186Y-101773185D02*
X102883455Y-101772929D01*
X102883455Y-101772929D02*
X102775339Y-101771651D01*
X102775339Y-101771651D02*
X102743000Y-101771252D01*
X102743000Y-101771252D02*
X102631524Y-101769815D01*
X102631524Y-101769815D02*
X102558603Y-101768528D01*
X102558603Y-101768528D02*
X102558603Y-101629029D01*
X102558603Y-101629029D02*
X102620499Y-101628245D01*
X102620499Y-101628245D02*
X102660997Y-101624760D01*
X102660997Y-101624760D02*
X102687708Y-101616876D01*
X102687708Y-101616876D02*
X102708244Y-101602895D01*
X102708244Y-101602895D02*
X102718260Y-101593403D01*
X102718260Y-101593403D02*
X102747567Y-101554596D01*
X102747567Y-101554596D02*
X102749952Y-101520237D01*
X102749952Y-101520237D02*
X102725750Y-101484784D01*
X102725750Y-101484784D02*
X102724857Y-101483886D01*
X102724857Y-101483886D02*
X102706153Y-101469461D01*
X102706153Y-101469461D02*
X102680732Y-101460687D01*
X102680732Y-101460687D02*
X102641584Y-101456261D01*
X102641584Y-101456261D02*
X102581697Y-101454882D01*
X102581697Y-101454882D02*
X102568430Y-101454857D01*
X102568430Y-101454857D02*
X102485901Y-101458188D01*
X102485901Y-101458188D02*
X102428691Y-101469031D01*
X102428691Y-101469031D02*
X102393766Y-101488660D01*
X102393766Y-101488660D02*
X102378094Y-101518350D01*
X102378094Y-101518350D02*
X102376514Y-101535509D01*
X102376514Y-101535509D02*
X102383926Y-101576234D01*
X102383926Y-101576234D02*
X102408330Y-101604168D01*
X102408330Y-101604168D02*
X102452980Y-101620983D01*
X102452980Y-101620983D02*
X102521130Y-101628350D01*
X102521130Y-101628350D02*
X102558603Y-101629029D01*
X102558603Y-101629029D02*
X102558603Y-101768528D01*
X102558603Y-101768528D02*
X102545245Y-101768292D01*
X102545245Y-101768292D02*
X102480333Y-101766323D01*
X102480333Y-101766323D02*
X102432958Y-101763550D01*
X102432958Y-101763550D02*
X102399290Y-101759612D01*
X102399290Y-101759612D02*
X102375498Y-101754151D01*
X102375498Y-101754151D02*
X102357753Y-101746808D01*
X102357753Y-101746808D02*
X102342224Y-101737223D01*
X102342224Y-101737223D02*
X102336381Y-101733113D01*
X102336381Y-101733113D02*
X102281185Y-101678595D01*
X102281185Y-101678595D02*
X102249890Y-101609664D01*
X102249890Y-101609664D02*
X102241165Y-101529928D01*
X102241165Y-101529928D02*
X102249918Y-101460256D01*
X102249918Y-101460256D02*
X102249918Y-101460256D01*
G36*
X102480333Y-101766323D02*
G01*
X102432958Y-101763550D01*
X102399290Y-101759612D01*
X102375498Y-101754151D01*
X102357753Y-101746808D01*
X102342224Y-101737223D01*
X102336381Y-101733113D01*
X102281185Y-101678595D01*
X102249890Y-101609664D01*
X102241776Y-101535509D01*
X102376514Y-101535509D01*
X102383926Y-101576234D01*
X102408330Y-101604168D01*
X102452980Y-101620983D01*
X102521130Y-101628350D01*
X102558603Y-101629029D01*
X102620499Y-101628245D01*
X102660997Y-101624760D01*
X102687708Y-101616876D01*
X102708244Y-101602895D01*
X102718260Y-101593403D01*
X102747567Y-101554596D01*
X102749952Y-101520237D01*
X102725750Y-101484784D01*
X102724857Y-101483886D01*
X102706153Y-101469461D01*
X102680732Y-101460687D01*
X102641584Y-101456261D01*
X102581697Y-101454882D01*
X102568430Y-101454857D01*
X102485901Y-101458188D01*
X102428691Y-101469031D01*
X102393766Y-101488660D01*
X102378094Y-101518350D01*
X102376514Y-101535509D01*
X102241776Y-101535509D01*
X102241165Y-101529928D01*
X102249918Y-101460256D01*
X102277568Y-101404799D01*
X102328480Y-101355852D01*
X102347338Y-101342371D01*
X102372015Y-101327686D01*
X102398816Y-101318158D01*
X102434587Y-101312707D01*
X102486169Y-101310253D01*
X102554267Y-101309714D01*
X102647588Y-101312148D01*
X102717657Y-101320606D01*
X102769931Y-101336826D01*
X102809869Y-101362546D01*
X102842929Y-101399503D01*
X102844886Y-101402218D01*
X102864908Y-101438640D01*
X102874815Y-101482498D01*
X102877257Y-101538276D01*
X102877257Y-101628952D01*
X102965283Y-101628990D01*
X103014308Y-101629834D01*
X103043065Y-101634976D01*
X103060311Y-101648413D01*
X103074808Y-101674142D01*
X103077769Y-101680321D01*
X103091648Y-101709236D01*
X103100414Y-101731624D01*
X103101171Y-101748271D01*
X103091023Y-101759964D01*
X103067073Y-101767490D01*
X103026426Y-101771634D01*
X102966186Y-101773185D01*
X102883455Y-101772929D01*
X102775339Y-101771651D01*
X102743000Y-101771252D01*
X102631524Y-101769815D01*
X102558603Y-101768528D01*
X102545245Y-101768292D01*
X102480333Y-101766323D01*
G37*
X102480333Y-101766323D02*
X102432958Y-101763550D01*
X102399290Y-101759612D01*
X102375498Y-101754151D01*
X102357753Y-101746808D01*
X102342224Y-101737223D01*
X102336381Y-101733113D01*
X102281185Y-101678595D01*
X102249890Y-101609664D01*
X102241776Y-101535509D01*
X102376514Y-101535509D01*
X102383926Y-101576234D01*
X102408330Y-101604168D01*
X102452980Y-101620983D01*
X102521130Y-101628350D01*
X102558603Y-101629029D01*
X102620499Y-101628245D01*
X102660997Y-101624760D01*
X102687708Y-101616876D01*
X102708244Y-101602895D01*
X102718260Y-101593403D01*
X102747567Y-101554596D01*
X102749952Y-101520237D01*
X102725750Y-101484784D01*
X102724857Y-101483886D01*
X102706153Y-101469461D01*
X102680732Y-101460687D01*
X102641584Y-101456261D01*
X102581697Y-101454882D01*
X102568430Y-101454857D01*
X102485901Y-101458188D01*
X102428691Y-101469031D01*
X102393766Y-101488660D01*
X102378094Y-101518350D01*
X102376514Y-101535509D01*
X102241776Y-101535509D01*
X102241165Y-101529928D01*
X102249918Y-101460256D01*
X102277568Y-101404799D01*
X102328480Y-101355852D01*
X102347338Y-101342371D01*
X102372015Y-101327686D01*
X102398816Y-101318158D01*
X102434587Y-101312707D01*
X102486169Y-101310253D01*
X102554267Y-101309714D01*
X102647588Y-101312148D01*
X102717657Y-101320606D01*
X102769931Y-101336826D01*
X102809869Y-101362546D01*
X102842929Y-101399503D01*
X102844886Y-101402218D01*
X102864908Y-101438640D01*
X102874815Y-101482498D01*
X102877257Y-101538276D01*
X102877257Y-101628952D01*
X102965283Y-101628990D01*
X103014308Y-101629834D01*
X103043065Y-101634976D01*
X103060311Y-101648413D01*
X103074808Y-101674142D01*
X103077769Y-101680321D01*
X103091648Y-101709236D01*
X103100414Y-101731624D01*
X103101171Y-101748271D01*
X103091023Y-101759964D01*
X103067073Y-101767490D01*
X103026426Y-101771634D01*
X102966186Y-101773185D01*
X102883455Y-101772929D01*
X102775339Y-101771651D01*
X102743000Y-101771252D01*
X102631524Y-101769815D01*
X102558603Y-101768528D01*
X102545245Y-101768292D01*
X102480333Y-101766323D01*
D13*
%TO.C,R1*%
X107300000Y-103220000D02*
X107300000Y-105060000D01*
X112090000Y-104140000D02*
X111140000Y-104140000D01*
X111140000Y-103220000D02*
X107300000Y-103220000D01*
X107300000Y-105060000D02*
X111140000Y-105060000D01*
X111140000Y-105060000D02*
X111140000Y-103220000D01*
X106350000Y-104140000D02*
X107300000Y-104140000D01*
%TO.C,J2*%
X115610000Y-115980000D02*
X101370000Y-115980000D01*
X119610000Y-109440000D02*
X119610000Y-115680000D01*
X119610000Y-115680000D02*
X115610000Y-115680000D01*
X101370000Y-107540000D02*
X115610000Y-107540000D01*
X115610000Y-107540000D02*
X115610000Y-109440000D01*
X115610000Y-115680000D02*
X115610000Y-115980000D01*
X115610000Y-109440000D02*
X119610000Y-109440000D01*
X101370000Y-115980000D02*
X101370000Y-107540000D01*
%TO.C,J3*%
X119620000Y-86680000D02*
X119620000Y-92920000D01*
X115620000Y-86680000D02*
X119620000Y-86680000D01*
X115620000Y-92920000D02*
X115620000Y-93220000D01*
X101380000Y-93220000D02*
X101380000Y-84780000D01*
X101380000Y-84780000D02*
X115620000Y-84780000D01*
X115620000Y-84780000D02*
X115620000Y-86680000D01*
X119620000Y-92920000D02*
X115620000Y-92920000D01*
X115620000Y-93220000D02*
X101380000Y-93220000D01*
%TO.C,Q1*%
X107420000Y-99640000D02*
X111020000Y-99640000D01*
X111058478Y-99628478D02*
G75*
G03*
X109220000Y-95190000I-1838478J1838478D01*
G01*
X107381522Y-99628478D02*
G75*
G02*
X109220000Y-95190000I1838478J1838478D01*
G01*
%TD*%
M02*
