%TF.GenerationSoftware,KiCad,Pcbnew,(5.99.0-9501-gd6b12eab50)*%
%TF.CreationDate,2021-02-28T09:53:11+01:00*%
%TF.ProjectId,audio-adapter,61756469-6f2d-4616-9461-707465722e6b,rev?*%
%TF.SameCoordinates,Original*%
%TF.FileFunction,Copper,L1,Top*%
%TF.FilePolarity,Positive*%
%FSLAX46Y46*%
G04 Gerber Fmt 4.6, Leading zero omitted, Abs format (unit mm)*
G04 Created by KiCad (PCBNEW (5.99.0-9501-gd6b12eab50)) date 2021-02-28 09:53:11*
%MOMM*%
%LPD*%
G01*
G04 APERTURE LIST*
%TA.AperFunction,ComponentPad*%
%ADD10R,1.700000X1.700000*%
%TD*%
%TA.AperFunction,ComponentPad*%
%ADD11O,1.700000X1.700000*%
%TD*%
%TA.AperFunction,ComponentPad*%
%ADD12C,1.400000*%
%TD*%
%TA.AperFunction,ComponentPad*%
%ADD13O,1.400000X1.400000*%
%TD*%
%TA.AperFunction,ComponentPad*%
%ADD14O,1.800000X2.800000*%
%TD*%
%TA.AperFunction,ComponentPad*%
%ADD15R,1.050000X1.500000*%
%TD*%
%TA.AperFunction,ComponentPad*%
%ADD16O,1.050000X1.500000*%
%TD*%
%TA.AperFunction,Conductor*%
%ADD17C,0.250000*%
%TD*%
G04 APERTURE END LIST*
D10*
%TO.P,J1,1,Pin_1*%
%TO.N,Net-(J1-Pad1)*%
X95250000Y-113030000D03*
D11*
%TO.P,J1,2,Pin_2*%
%TO.N,/GND*%
X95250000Y-110490000D03*
%TO.P,J1,3,Pin_3*%
%TO.N,unconnected-(J1-Pad3)*%
X95250000Y-107950000D03*
%TO.P,J1,4,Pin_4*%
%TO.N,unconnected-(J1-Pad4)*%
X95250000Y-105410000D03*
%TO.P,J1,5,Pin_5*%
%TO.N,unconnected-(J1-Pad5)*%
X95250000Y-102870000D03*
%TO.P,J1,6,Pin_6*%
%TO.N,Net-(J1-Pad1)*%
X95250000Y-100330000D03*
%TO.P,J1,7,Pin_7*%
%TO.N,/Audio Out*%
X95250000Y-97790000D03*
%TO.P,J1,8,Pin_8*%
%TO.N,unconnected-(J1-Pad8)*%
X95250000Y-95250000D03*
%TO.P,J1,9,Pin_9*%
%TO.N,unconnected-(J1-Pad9)*%
X95250000Y-92710000D03*
%TO.P,J1,10,Pin_10*%
%TO.N,unconnected-(J1-Pad10)*%
X95250000Y-90170000D03*
%TO.P,J1,11,Pin_11*%
%TO.N,unconnected-(J1-Pad11)*%
X95250000Y-87630000D03*
%TD*%
D12*
%TO.P,R1,1*%
%TO.N,/GND*%
X113030000Y-104140000D03*
D13*
%TO.P,R1,2*%
%TO.N,Net-(Q1-Pad1)*%
X105410000Y-104140000D03*
%TD*%
D14*
%TO.P,J2,R*%
%TO.N,/Audio In*%
X106390000Y-113660000D03*
%TO.P,J2,RN*%
X108190000Y-111660000D03*
%TO.P,J2,S*%
%TO.N,/GND*%
X114290000Y-111660000D03*
%TO.P,J2,T*%
%TO.N,/Audio In*%
X111890000Y-113660000D03*
%TO.P,J2,TN*%
X102690000Y-111660000D03*
%TD*%
%TO.P,J3,R*%
%TO.N,/Audio Out*%
X106400000Y-90900000D03*
%TO.P,J3,RN*%
X108200000Y-88900000D03*
%TO.P,J3,S*%
%TO.N,/GND*%
X114300000Y-88900000D03*
%TO.P,J3,T*%
%TO.N,/Audio Out*%
X111900000Y-90900000D03*
%TO.P,J3,TN*%
X102700000Y-88900000D03*
%TD*%
D15*
%TO.P,Q1,1,C*%
%TO.N,Net-(Q1-Pad1)*%
X107950000Y-97790000D03*
D16*
%TO.P,Q1,2,B*%
%TO.N,/Audio In*%
X109220000Y-97790000D03*
%TO.P,Q1,3,E*%
%TO.N,Net-(J1-Pad1)*%
X110490000Y-97790000D03*
%TD*%
D17*
%TO.N,Net-(Q1-Pad1)*%
X105410000Y-100330000D02*
X107950000Y-97790000D01*
X105410000Y-104140000D02*
X105410000Y-100330000D01*
%TO.N,Net-(J1-Pad7)*%
X106400000Y-90900000D02*
X111900000Y-90900000D01*
X102700000Y-90340000D02*
X102700000Y-88900000D01*
X106400000Y-90900000D02*
X106400000Y-90700000D01*
X99060000Y-93980000D02*
X95250000Y-97790000D01*
X102700000Y-88900000D02*
X100330000Y-88900000D01*
X99060000Y-90170000D02*
X99060000Y-93980000D01*
X106400000Y-90700000D02*
X108200000Y-88900000D01*
X102700000Y-88900000D02*
X108200000Y-88900000D01*
X100330000Y-88900000D02*
X99060000Y-90170000D01*
%TO.N,Net-(J1-Pad1)*%
X99060000Y-101600000D02*
X97790000Y-100330000D01*
X95250000Y-100330000D02*
X97790000Y-100330000D01*
X97790000Y-113030000D02*
X99060000Y-111760000D01*
X110490000Y-98015000D02*
X110490000Y-97790000D01*
X105410000Y-95250000D02*
X109220000Y-95250000D01*
X110490000Y-97790000D02*
X110490000Y-97565000D01*
X95250000Y-113030000D02*
X97790000Y-113030000D01*
X109220000Y-95250000D02*
X110490000Y-96520000D01*
X99060000Y-111760000D02*
X99060000Y-101600000D01*
X99060000Y-101600000D02*
X105410000Y-95250000D01*
X110490000Y-96520000D02*
X110490000Y-97790000D01*
%TO.N,Net-(J2-PadR)*%
X111760000Y-114300000D02*
X111120000Y-113660000D01*
X111890000Y-114170000D02*
X111760000Y-114300000D01*
X109220000Y-110630000D02*
X108190000Y-111660000D01*
X108190000Y-111860000D02*
X106390000Y-113660000D01*
X108190000Y-111660000D02*
X108190000Y-111860000D01*
X111120000Y-113660000D02*
X106390000Y-113660000D01*
X102690000Y-111660000D02*
X108190000Y-111660000D01*
X109220000Y-97790000D02*
X109220000Y-110630000D01*
X111890000Y-113660000D02*
X111890000Y-114170000D01*
%TD*%
M02*
